G04 #@! TF.GenerationSoftware,KiCad,Pcbnew,7.0.9-dirty*
G04 #@! TF.CreationDate,2024-01-14T20:59:28+01:00*
G04 #@! TF.ProjectId,ranura 13857,72616e75-7261-4203-9133-3835372e6b69,1*
G04 #@! TF.SameCoordinates,Original*
G04 #@! TF.FileFunction,Legend,Bot*
G04 #@! TF.FilePolarity,Positive*
%FSLAX46Y46*%
G04 Gerber Fmt 4.6, Leading zero omitted, Abs format (unit mm)*
G04 Created by KiCad (PCBNEW 7.0.9-dirty) date 2024-01-14 20:59:28*
%MOMM*%
%LPD*%
G01*
G04 APERTURE LIST*
%ADD10C,0.500000*%
%ADD11C,0.150000*%
G04 APERTURE END LIST*
D10*
X79194862Y-58606857D02*
X79194862Y-55606857D01*
X79194862Y-55606857D02*
X78718672Y-55606857D01*
X78718672Y-55606857D02*
X78432957Y-55749714D01*
X78432957Y-55749714D02*
X78242481Y-56035428D01*
X78242481Y-56035428D02*
X78147243Y-56321142D01*
X78147243Y-56321142D02*
X78052005Y-56892571D01*
X78052005Y-56892571D02*
X78052005Y-57321142D01*
X78052005Y-57321142D02*
X78147243Y-57892571D01*
X78147243Y-57892571D02*
X78242481Y-58178285D01*
X78242481Y-58178285D02*
X78432957Y-58464000D01*
X78432957Y-58464000D02*
X78718672Y-58606857D01*
X78718672Y-58606857D02*
X79194862Y-58606857D01*
X77194862Y-58606857D02*
X77194862Y-55606857D01*
X76337719Y-58464000D02*
X76052005Y-58606857D01*
X76052005Y-58606857D02*
X75575814Y-58606857D01*
X75575814Y-58606857D02*
X75385338Y-58464000D01*
X75385338Y-58464000D02*
X75290100Y-58321142D01*
X75290100Y-58321142D02*
X75194862Y-58035428D01*
X75194862Y-58035428D02*
X75194862Y-57749714D01*
X75194862Y-57749714D02*
X75290100Y-57464000D01*
X75290100Y-57464000D02*
X75385338Y-57321142D01*
X75385338Y-57321142D02*
X75575814Y-57178285D01*
X75575814Y-57178285D02*
X75956767Y-57035428D01*
X75956767Y-57035428D02*
X76147243Y-56892571D01*
X76147243Y-56892571D02*
X76242481Y-56749714D01*
X76242481Y-56749714D02*
X76337719Y-56464000D01*
X76337719Y-56464000D02*
X76337719Y-56178285D01*
X76337719Y-56178285D02*
X76242481Y-55892571D01*
X76242481Y-55892571D02*
X76147243Y-55749714D01*
X76147243Y-55749714D02*
X75956767Y-55606857D01*
X75956767Y-55606857D02*
X75480576Y-55606857D01*
X75480576Y-55606857D02*
X75194862Y-55749714D01*
X74623433Y-55606857D02*
X73480576Y-55606857D01*
X74052005Y-58606857D02*
X74052005Y-55606857D01*
X72909147Y-57749714D02*
X71956766Y-57749714D01*
X73099623Y-58606857D02*
X72432957Y-55606857D01*
X72432957Y-55606857D02*
X71766290Y-58606857D01*
X71099623Y-58606857D02*
X71099623Y-55606857D01*
X71099623Y-55606857D02*
X69956766Y-58606857D01*
X69956766Y-58606857D02*
X69956766Y-55606857D01*
X67861528Y-58321142D02*
X67956766Y-58464000D01*
X67956766Y-58464000D02*
X68242480Y-58606857D01*
X68242480Y-58606857D02*
X68432956Y-58606857D01*
X68432956Y-58606857D02*
X68718671Y-58464000D01*
X68718671Y-58464000D02*
X68909147Y-58178285D01*
X68909147Y-58178285D02*
X69004385Y-57892571D01*
X69004385Y-57892571D02*
X69099623Y-57321142D01*
X69099623Y-57321142D02*
X69099623Y-56892571D01*
X69099623Y-56892571D02*
X69004385Y-56321142D01*
X69004385Y-56321142D02*
X68909147Y-56035428D01*
X68909147Y-56035428D02*
X68718671Y-55749714D01*
X68718671Y-55749714D02*
X68432956Y-55606857D01*
X68432956Y-55606857D02*
X68242480Y-55606857D01*
X68242480Y-55606857D02*
X67956766Y-55749714D01*
X67956766Y-55749714D02*
X67861528Y-55892571D01*
X67004385Y-58606857D02*
X67004385Y-55606857D01*
X66147242Y-57749714D02*
X65194861Y-57749714D01*
X66337718Y-58606857D02*
X65671052Y-55606857D01*
X65671052Y-55606857D02*
X65004385Y-58606857D01*
X64432956Y-58464000D02*
X64147242Y-58606857D01*
X64147242Y-58606857D02*
X63671051Y-58606857D01*
X63671051Y-58606857D02*
X63480575Y-58464000D01*
X63480575Y-58464000D02*
X63385337Y-58321142D01*
X63385337Y-58321142D02*
X63290099Y-58035428D01*
X63290099Y-58035428D02*
X63290099Y-57749714D01*
X63290099Y-57749714D02*
X63385337Y-57464000D01*
X63385337Y-57464000D02*
X63480575Y-57321142D01*
X63480575Y-57321142D02*
X63671051Y-57178285D01*
X63671051Y-57178285D02*
X64052004Y-57035428D01*
X64052004Y-57035428D02*
X64242480Y-56892571D01*
X64242480Y-56892571D02*
X64337718Y-56749714D01*
X64337718Y-56749714D02*
X64432956Y-56464000D01*
X64432956Y-56464000D02*
X64432956Y-56178285D01*
X64432956Y-56178285D02*
X64337718Y-55892571D01*
X64337718Y-55892571D02*
X64242480Y-55749714D01*
X64242480Y-55749714D02*
X64052004Y-55606857D01*
X64052004Y-55606857D02*
X63575813Y-55606857D01*
X63575813Y-55606857D02*
X63290099Y-55749714D01*
X60909146Y-58606857D02*
X60909146Y-55606857D01*
X60909146Y-55606857D02*
X60242479Y-57749714D01*
X60242479Y-57749714D02*
X59575813Y-55606857D01*
X59575813Y-55606857D02*
X59575813Y-58606857D01*
X58623432Y-58606857D02*
X58623432Y-55606857D01*
X58432956Y-54464000D02*
X58718670Y-54892571D01*
X57671051Y-58606857D02*
X57671051Y-55606857D01*
X57671051Y-55606857D02*
X56528194Y-58606857D01*
X56528194Y-58606857D02*
X56528194Y-55606857D01*
X55575813Y-58606857D02*
X55575813Y-55606857D01*
X54623432Y-58606857D02*
X54623432Y-55606857D01*
X54623432Y-55606857D02*
X53956765Y-57749714D01*
X53956765Y-57749714D02*
X53290099Y-55606857D01*
X53290099Y-55606857D02*
X53290099Y-58606857D01*
X52432956Y-57749714D02*
X51480575Y-57749714D01*
X52623432Y-58606857D02*
X51956766Y-55606857D01*
X51956766Y-55606857D02*
X51290099Y-58606857D01*
X50718670Y-58464000D02*
X50432956Y-58606857D01*
X50432956Y-58606857D02*
X49956765Y-58606857D01*
X49956765Y-58606857D02*
X49766289Y-58464000D01*
X49766289Y-58464000D02*
X49671051Y-58321142D01*
X49671051Y-58321142D02*
X49575813Y-58035428D01*
X49575813Y-58035428D02*
X49575813Y-57749714D01*
X49575813Y-57749714D02*
X49671051Y-57464000D01*
X49671051Y-57464000D02*
X49766289Y-57321142D01*
X49766289Y-57321142D02*
X49956765Y-57178285D01*
X49956765Y-57178285D02*
X50337718Y-57035428D01*
X50337718Y-57035428D02*
X50528194Y-56892571D01*
X50528194Y-56892571D02*
X50623432Y-56749714D01*
X50623432Y-56749714D02*
X50718670Y-56464000D01*
X50718670Y-56464000D02*
X50718670Y-56178285D01*
X50718670Y-56178285D02*
X50623432Y-55892571D01*
X50623432Y-55892571D02*
X50528194Y-55749714D01*
X50528194Y-55749714D02*
X50337718Y-55606857D01*
X50337718Y-55606857D02*
X49861527Y-55606857D01*
X49861527Y-55606857D02*
X49575813Y-55749714D01*
X78052005Y-53321142D02*
X78147243Y-53464000D01*
X78147243Y-53464000D02*
X78432957Y-53606857D01*
X78432957Y-53606857D02*
X78623433Y-53606857D01*
X78623433Y-53606857D02*
X78909148Y-53464000D01*
X78909148Y-53464000D02*
X79099624Y-53178285D01*
X79099624Y-53178285D02*
X79194862Y-52892571D01*
X79194862Y-52892571D02*
X79290100Y-52321142D01*
X79290100Y-52321142D02*
X79290100Y-51892571D01*
X79290100Y-51892571D02*
X79194862Y-51321142D01*
X79194862Y-51321142D02*
X79099624Y-51035428D01*
X79099624Y-51035428D02*
X78909148Y-50749714D01*
X78909148Y-50749714D02*
X78623433Y-50606857D01*
X78623433Y-50606857D02*
X78432957Y-50606857D01*
X78432957Y-50606857D02*
X78147243Y-50749714D01*
X78147243Y-50749714D02*
X78052005Y-50892571D01*
X76813910Y-50606857D02*
X76432957Y-50606857D01*
X76432957Y-50606857D02*
X76242481Y-50749714D01*
X76242481Y-50749714D02*
X76052005Y-51035428D01*
X76052005Y-51035428D02*
X75956767Y-51606857D01*
X75956767Y-51606857D02*
X75956767Y-52606857D01*
X75956767Y-52606857D02*
X76052005Y-53178285D01*
X76052005Y-53178285D02*
X76242481Y-53464000D01*
X76242481Y-53464000D02*
X76432957Y-53606857D01*
X76432957Y-53606857D02*
X76813910Y-53606857D01*
X76813910Y-53606857D02*
X77004386Y-53464000D01*
X77004386Y-53464000D02*
X77194862Y-53178285D01*
X77194862Y-53178285D02*
X77290100Y-52606857D01*
X77290100Y-52606857D02*
X77290100Y-51606857D01*
X77290100Y-51606857D02*
X77194862Y-51035428D01*
X77194862Y-51035428D02*
X77004386Y-50749714D01*
X77004386Y-50749714D02*
X76813910Y-50606857D01*
X75099624Y-53606857D02*
X75099624Y-50606857D01*
X75099624Y-50606857D02*
X74432957Y-52749714D01*
X74432957Y-52749714D02*
X73766291Y-50606857D01*
X73766291Y-50606857D02*
X73766291Y-53606857D01*
X72813910Y-53606857D02*
X72813910Y-50606857D01*
X72813910Y-50606857D02*
X72052005Y-50606857D01*
X72052005Y-50606857D02*
X71861529Y-50749714D01*
X71861529Y-50749714D02*
X71766291Y-50892571D01*
X71766291Y-50892571D02*
X71671053Y-51178285D01*
X71671053Y-51178285D02*
X71671053Y-51606857D01*
X71671053Y-51606857D02*
X71766291Y-51892571D01*
X71766291Y-51892571D02*
X71861529Y-52035428D01*
X71861529Y-52035428D02*
X72052005Y-52178285D01*
X72052005Y-52178285D02*
X72813910Y-52178285D01*
X69671053Y-53606857D02*
X70337720Y-52178285D01*
X70813910Y-53606857D02*
X70813910Y-50606857D01*
X70813910Y-50606857D02*
X70052005Y-50606857D01*
X70052005Y-50606857D02*
X69861529Y-50749714D01*
X69861529Y-50749714D02*
X69766291Y-50892571D01*
X69766291Y-50892571D02*
X69671053Y-51178285D01*
X69671053Y-51178285D02*
X69671053Y-51606857D01*
X69671053Y-51606857D02*
X69766291Y-51892571D01*
X69766291Y-51892571D02*
X69861529Y-52035428D01*
X69861529Y-52035428D02*
X70052005Y-52178285D01*
X70052005Y-52178285D02*
X70813910Y-52178285D01*
X68432958Y-50606857D02*
X68052005Y-50606857D01*
X68052005Y-50606857D02*
X67861529Y-50749714D01*
X67861529Y-50749714D02*
X67671053Y-51035428D01*
X67671053Y-51035428D02*
X67575815Y-51606857D01*
X67575815Y-51606857D02*
X67575815Y-52606857D01*
X67575815Y-52606857D02*
X67671053Y-53178285D01*
X67671053Y-53178285D02*
X67861529Y-53464000D01*
X67861529Y-53464000D02*
X68052005Y-53606857D01*
X68052005Y-53606857D02*
X68432958Y-53606857D01*
X68432958Y-53606857D02*
X68623434Y-53464000D01*
X68623434Y-53464000D02*
X68813910Y-53178285D01*
X68813910Y-53178285D02*
X68909148Y-52606857D01*
X68909148Y-52606857D02*
X68909148Y-51606857D01*
X68909148Y-51606857D02*
X68813910Y-51035428D01*
X68813910Y-51035428D02*
X68623434Y-50749714D01*
X68623434Y-50749714D02*
X68432958Y-50606857D01*
X66052005Y-52035428D02*
X65766291Y-52178285D01*
X65766291Y-52178285D02*
X65671053Y-52321142D01*
X65671053Y-52321142D02*
X65575815Y-52606857D01*
X65575815Y-52606857D02*
X65575815Y-53035428D01*
X65575815Y-53035428D02*
X65671053Y-53321142D01*
X65671053Y-53321142D02*
X65766291Y-53464000D01*
X65766291Y-53464000D02*
X65956767Y-53606857D01*
X65956767Y-53606857D02*
X66718672Y-53606857D01*
X66718672Y-53606857D02*
X66718672Y-50606857D01*
X66718672Y-50606857D02*
X66052005Y-50606857D01*
X66052005Y-50606857D02*
X65861529Y-50749714D01*
X65861529Y-50749714D02*
X65766291Y-50892571D01*
X65766291Y-50892571D02*
X65671053Y-51178285D01*
X65671053Y-51178285D02*
X65671053Y-51464000D01*
X65671053Y-51464000D02*
X65766291Y-51749714D01*
X65766291Y-51749714D02*
X65861529Y-51892571D01*
X65861529Y-51892571D02*
X66052005Y-52035428D01*
X66052005Y-52035428D02*
X66718672Y-52035428D01*
X64813910Y-52749714D02*
X63861529Y-52749714D01*
X65004386Y-53606857D02*
X64337720Y-50606857D01*
X64337720Y-50606857D02*
X63671053Y-53606857D01*
X63004386Y-53606857D02*
X63004386Y-50606857D01*
X63004386Y-50606857D02*
X62528196Y-50606857D01*
X62528196Y-50606857D02*
X62242481Y-50749714D01*
X62242481Y-50749714D02*
X62052005Y-51035428D01*
X62052005Y-51035428D02*
X61956767Y-51321142D01*
X61956767Y-51321142D02*
X61861529Y-51892571D01*
X61861529Y-51892571D02*
X61861529Y-52321142D01*
X61861529Y-52321142D02*
X61956767Y-52892571D01*
X61956767Y-52892571D02*
X62052005Y-53178285D01*
X62052005Y-53178285D02*
X62242481Y-53464000D01*
X62242481Y-53464000D02*
X62528196Y-53606857D01*
X62528196Y-53606857D02*
X63004386Y-53606857D01*
X60623434Y-50606857D02*
X60242481Y-50606857D01*
X60242481Y-50606857D02*
X60052005Y-50749714D01*
X60052005Y-50749714D02*
X59861529Y-51035428D01*
X59861529Y-51035428D02*
X59766291Y-51606857D01*
X59766291Y-51606857D02*
X59766291Y-52606857D01*
X59766291Y-52606857D02*
X59861529Y-53178285D01*
X59861529Y-53178285D02*
X60052005Y-53464000D01*
X60052005Y-53464000D02*
X60242481Y-53606857D01*
X60242481Y-53606857D02*
X60623434Y-53606857D01*
X60623434Y-53606857D02*
X60813910Y-53464000D01*
X60813910Y-53464000D02*
X61004386Y-53178285D01*
X61004386Y-53178285D02*
X61099624Y-52606857D01*
X61099624Y-52606857D02*
X61099624Y-51606857D01*
X61099624Y-51606857D02*
X61004386Y-51035428D01*
X61004386Y-51035428D02*
X60813910Y-50749714D01*
X60813910Y-50749714D02*
X60623434Y-50606857D01*
X57766291Y-53606857D02*
X58432958Y-52178285D01*
X58909148Y-53606857D02*
X58909148Y-50606857D01*
X58909148Y-50606857D02*
X58147243Y-50606857D01*
X58147243Y-50606857D02*
X57956767Y-50749714D01*
X57956767Y-50749714D02*
X57861529Y-50892571D01*
X57861529Y-50892571D02*
X57766291Y-51178285D01*
X57766291Y-51178285D02*
X57766291Y-51606857D01*
X57766291Y-51606857D02*
X57861529Y-51892571D01*
X57861529Y-51892571D02*
X57956767Y-52035428D01*
X57956767Y-52035428D02*
X58147243Y-52178285D01*
X58147243Y-52178285D02*
X58909148Y-52178285D01*
X55385338Y-53606857D02*
X55385338Y-50606857D01*
X55385338Y-50606857D02*
X54909148Y-50606857D01*
X54909148Y-50606857D02*
X54623433Y-50749714D01*
X54623433Y-50749714D02*
X54432957Y-51035428D01*
X54432957Y-51035428D02*
X54337719Y-51321142D01*
X54337719Y-51321142D02*
X54242481Y-51892571D01*
X54242481Y-51892571D02*
X54242481Y-52321142D01*
X54242481Y-52321142D02*
X54337719Y-52892571D01*
X54337719Y-52892571D02*
X54432957Y-53178285D01*
X54432957Y-53178285D02*
X54623433Y-53464000D01*
X54623433Y-53464000D02*
X54909148Y-53606857D01*
X54909148Y-53606857D02*
X55385338Y-53606857D01*
X53385338Y-52035428D02*
X52718671Y-52035428D01*
X52432957Y-53606857D02*
X53385338Y-53606857D01*
X53385338Y-53606857D02*
X53385338Y-50606857D01*
X53385338Y-50606857D02*
X52432957Y-50606857D01*
X48909147Y-53606857D02*
X49575814Y-52178285D01*
X50052004Y-53606857D02*
X50052004Y-50606857D01*
X50052004Y-50606857D02*
X49290099Y-50606857D01*
X49290099Y-50606857D02*
X49099623Y-50749714D01*
X49099623Y-50749714D02*
X49004385Y-50892571D01*
X49004385Y-50892571D02*
X48909147Y-51178285D01*
X48909147Y-51178285D02*
X48909147Y-51606857D01*
X48909147Y-51606857D02*
X49004385Y-51892571D01*
X49004385Y-51892571D02*
X49099623Y-52035428D01*
X49099623Y-52035428D02*
X49290099Y-52178285D01*
X49290099Y-52178285D02*
X50052004Y-52178285D01*
X48052004Y-52035428D02*
X47385337Y-52035428D01*
X47099623Y-53606857D02*
X48052004Y-53606857D01*
X48052004Y-53606857D02*
X48052004Y-50606857D01*
X48052004Y-50606857D02*
X47099623Y-50606857D01*
X46337718Y-53464000D02*
X46052004Y-53606857D01*
X46052004Y-53606857D02*
X45575813Y-53606857D01*
X45575813Y-53606857D02*
X45385337Y-53464000D01*
X45385337Y-53464000D02*
X45290099Y-53321142D01*
X45290099Y-53321142D02*
X45194861Y-53035428D01*
X45194861Y-53035428D02*
X45194861Y-52749714D01*
X45194861Y-52749714D02*
X45290099Y-52464000D01*
X45290099Y-52464000D02*
X45385337Y-52321142D01*
X45385337Y-52321142D02*
X45575813Y-52178285D01*
X45575813Y-52178285D02*
X45956766Y-52035428D01*
X45956766Y-52035428D02*
X46147242Y-51892571D01*
X46147242Y-51892571D02*
X46242480Y-51749714D01*
X46242480Y-51749714D02*
X46337718Y-51464000D01*
X46337718Y-51464000D02*
X46337718Y-51178285D01*
X46337718Y-51178285D02*
X46242480Y-50892571D01*
X46242480Y-50892571D02*
X46147242Y-50749714D01*
X46147242Y-50749714D02*
X45956766Y-50606857D01*
X45956766Y-50606857D02*
X45480575Y-50606857D01*
X45480575Y-50606857D02*
X45194861Y-50749714D01*
X43290099Y-50749714D02*
X43480575Y-50606857D01*
X43480575Y-50606857D02*
X43766289Y-50606857D01*
X43766289Y-50606857D02*
X44052004Y-50749714D01*
X44052004Y-50749714D02*
X44242480Y-51035428D01*
X44242480Y-51035428D02*
X44337718Y-51321142D01*
X44337718Y-51321142D02*
X44432956Y-51892571D01*
X44432956Y-51892571D02*
X44432956Y-52321142D01*
X44432956Y-52321142D02*
X44337718Y-52892571D01*
X44337718Y-52892571D02*
X44242480Y-53178285D01*
X44242480Y-53178285D02*
X44052004Y-53464000D01*
X44052004Y-53464000D02*
X43766289Y-53606857D01*
X43766289Y-53606857D02*
X43575813Y-53606857D01*
X43575813Y-53606857D02*
X43290099Y-53464000D01*
X43290099Y-53464000D02*
X43194861Y-53321142D01*
X43194861Y-53321142D02*
X43194861Y-52321142D01*
X43194861Y-52321142D02*
X43575813Y-52321142D01*
X42337718Y-50606857D02*
X42337718Y-53035428D01*
X42337718Y-53035428D02*
X42242480Y-53321142D01*
X42242480Y-53321142D02*
X42147242Y-53464000D01*
X42147242Y-53464000D02*
X41956766Y-53606857D01*
X41956766Y-53606857D02*
X41575813Y-53606857D01*
X41575813Y-53606857D02*
X41385337Y-53464000D01*
X41385337Y-53464000D02*
X41290099Y-53321142D01*
X41290099Y-53321142D02*
X41194861Y-53035428D01*
X41194861Y-53035428D02*
X41194861Y-50606857D01*
X40337718Y-52749714D02*
X39385337Y-52749714D01*
X40528194Y-53606857D02*
X39861528Y-50606857D01*
X39861528Y-50606857D02*
X39194861Y-53606857D01*
X37385337Y-53606857D02*
X38052004Y-52178285D01*
X38528194Y-53606857D02*
X38528194Y-50606857D01*
X38528194Y-50606857D02*
X37766289Y-50606857D01*
X37766289Y-50606857D02*
X37575813Y-50749714D01*
X37575813Y-50749714D02*
X37480575Y-50892571D01*
X37480575Y-50892571D02*
X37385337Y-51178285D01*
X37385337Y-51178285D02*
X37385337Y-51606857D01*
X37385337Y-51606857D02*
X37480575Y-51892571D01*
X37480575Y-51892571D02*
X37575813Y-52035428D01*
X37575813Y-52035428D02*
X37766289Y-52178285D01*
X37766289Y-52178285D02*
X38528194Y-52178285D01*
X36528194Y-53606857D02*
X36528194Y-50606857D01*
X36528194Y-50606857D02*
X36052004Y-50606857D01*
X36052004Y-50606857D02*
X35766289Y-50749714D01*
X35766289Y-50749714D02*
X35575813Y-51035428D01*
X35575813Y-51035428D02*
X35480575Y-51321142D01*
X35480575Y-51321142D02*
X35385337Y-51892571D01*
X35385337Y-51892571D02*
X35385337Y-52321142D01*
X35385337Y-52321142D02*
X35480575Y-52892571D01*
X35480575Y-52892571D02*
X35575813Y-53178285D01*
X35575813Y-53178285D02*
X35766289Y-53464000D01*
X35766289Y-53464000D02*
X36052004Y-53606857D01*
X36052004Y-53606857D02*
X36528194Y-53606857D01*
X34147242Y-50606857D02*
X33766289Y-50606857D01*
X33766289Y-50606857D02*
X33575813Y-50749714D01*
X33575813Y-50749714D02*
X33385337Y-51035428D01*
X33385337Y-51035428D02*
X33290099Y-51606857D01*
X33290099Y-51606857D02*
X33290099Y-52606857D01*
X33290099Y-52606857D02*
X33385337Y-53178285D01*
X33385337Y-53178285D02*
X33575813Y-53464000D01*
X33575813Y-53464000D02*
X33766289Y-53606857D01*
X33766289Y-53606857D02*
X34147242Y-53606857D01*
X34147242Y-53606857D02*
X34337718Y-53464000D01*
X34337718Y-53464000D02*
X34528194Y-53178285D01*
X34528194Y-53178285D02*
X34623432Y-52606857D01*
X34623432Y-52606857D02*
X34623432Y-51606857D01*
X34623432Y-51606857D02*
X34528194Y-51035428D01*
X34528194Y-51035428D02*
X34337718Y-50749714D01*
X34337718Y-50749714D02*
X34147242Y-50606857D01*
X32528194Y-53464000D02*
X32242480Y-53606857D01*
X32242480Y-53606857D02*
X31766289Y-53606857D01*
X31766289Y-53606857D02*
X31575813Y-53464000D01*
X31575813Y-53464000D02*
X31480575Y-53321142D01*
X31480575Y-53321142D02*
X31385337Y-53035428D01*
X31385337Y-53035428D02*
X31385337Y-52749714D01*
X31385337Y-52749714D02*
X31480575Y-52464000D01*
X31480575Y-52464000D02*
X31575813Y-52321142D01*
X31575813Y-52321142D02*
X31766289Y-52178285D01*
X31766289Y-52178285D02*
X32147242Y-52035428D01*
X32147242Y-52035428D02*
X32337718Y-51892571D01*
X32337718Y-51892571D02*
X32432956Y-51749714D01*
X32432956Y-51749714D02*
X32528194Y-51464000D01*
X32528194Y-51464000D02*
X32528194Y-51178285D01*
X32528194Y-51178285D02*
X32432956Y-50892571D01*
X32432956Y-50892571D02*
X32337718Y-50749714D01*
X32337718Y-50749714D02*
X32147242Y-50606857D01*
X32147242Y-50606857D02*
X31671051Y-50606857D01*
X31671051Y-50606857D02*
X31385337Y-50749714D01*
X79194862Y-102606857D02*
X79194862Y-99606857D01*
X79194862Y-99606857D02*
X78718672Y-99606857D01*
X78718672Y-99606857D02*
X78432957Y-99749714D01*
X78432957Y-99749714D02*
X78242481Y-100035428D01*
X78242481Y-100035428D02*
X78147243Y-100321142D01*
X78147243Y-100321142D02*
X78052005Y-100892571D01*
X78052005Y-100892571D02*
X78052005Y-101321142D01*
X78052005Y-101321142D02*
X78147243Y-101892571D01*
X78147243Y-101892571D02*
X78242481Y-102178285D01*
X78242481Y-102178285D02*
X78432957Y-102464000D01*
X78432957Y-102464000D02*
X78718672Y-102606857D01*
X78718672Y-102606857D02*
X79194862Y-102606857D01*
X77194862Y-102606857D02*
X77194862Y-99606857D01*
X76337719Y-102464000D02*
X76052005Y-102606857D01*
X76052005Y-102606857D02*
X75575814Y-102606857D01*
X75575814Y-102606857D02*
X75385338Y-102464000D01*
X75385338Y-102464000D02*
X75290100Y-102321142D01*
X75290100Y-102321142D02*
X75194862Y-102035428D01*
X75194862Y-102035428D02*
X75194862Y-101749714D01*
X75194862Y-101749714D02*
X75290100Y-101464000D01*
X75290100Y-101464000D02*
X75385338Y-101321142D01*
X75385338Y-101321142D02*
X75575814Y-101178285D01*
X75575814Y-101178285D02*
X75956767Y-101035428D01*
X75956767Y-101035428D02*
X76147243Y-100892571D01*
X76147243Y-100892571D02*
X76242481Y-100749714D01*
X76242481Y-100749714D02*
X76337719Y-100464000D01*
X76337719Y-100464000D02*
X76337719Y-100178285D01*
X76337719Y-100178285D02*
X76242481Y-99892571D01*
X76242481Y-99892571D02*
X76147243Y-99749714D01*
X76147243Y-99749714D02*
X75956767Y-99606857D01*
X75956767Y-99606857D02*
X75480576Y-99606857D01*
X75480576Y-99606857D02*
X75194862Y-99749714D01*
X74623433Y-99606857D02*
X73480576Y-99606857D01*
X74052005Y-102606857D02*
X74052005Y-99606857D01*
X72909147Y-101749714D02*
X71956766Y-101749714D01*
X73099623Y-102606857D02*
X72432957Y-99606857D01*
X72432957Y-99606857D02*
X71766290Y-102606857D01*
X71099623Y-102606857D02*
X71099623Y-99606857D01*
X71099623Y-99606857D02*
X69956766Y-102606857D01*
X69956766Y-102606857D02*
X69956766Y-99606857D01*
X67861528Y-102321142D02*
X67956766Y-102464000D01*
X67956766Y-102464000D02*
X68242480Y-102606857D01*
X68242480Y-102606857D02*
X68432956Y-102606857D01*
X68432956Y-102606857D02*
X68718671Y-102464000D01*
X68718671Y-102464000D02*
X68909147Y-102178285D01*
X68909147Y-102178285D02*
X69004385Y-101892571D01*
X69004385Y-101892571D02*
X69099623Y-101321142D01*
X69099623Y-101321142D02*
X69099623Y-100892571D01*
X69099623Y-100892571D02*
X69004385Y-100321142D01*
X69004385Y-100321142D02*
X68909147Y-100035428D01*
X68909147Y-100035428D02*
X68718671Y-99749714D01*
X68718671Y-99749714D02*
X68432956Y-99606857D01*
X68432956Y-99606857D02*
X68242480Y-99606857D01*
X68242480Y-99606857D02*
X67956766Y-99749714D01*
X67956766Y-99749714D02*
X67861528Y-99892571D01*
X67004385Y-102606857D02*
X67004385Y-99606857D01*
X66147242Y-101749714D02*
X65194861Y-101749714D01*
X66337718Y-102606857D02*
X65671052Y-99606857D01*
X65671052Y-99606857D02*
X65004385Y-102606857D01*
X64432956Y-102464000D02*
X64147242Y-102606857D01*
X64147242Y-102606857D02*
X63671051Y-102606857D01*
X63671051Y-102606857D02*
X63480575Y-102464000D01*
X63480575Y-102464000D02*
X63385337Y-102321142D01*
X63385337Y-102321142D02*
X63290099Y-102035428D01*
X63290099Y-102035428D02*
X63290099Y-101749714D01*
X63290099Y-101749714D02*
X63385337Y-101464000D01*
X63385337Y-101464000D02*
X63480575Y-101321142D01*
X63480575Y-101321142D02*
X63671051Y-101178285D01*
X63671051Y-101178285D02*
X64052004Y-101035428D01*
X64052004Y-101035428D02*
X64242480Y-100892571D01*
X64242480Y-100892571D02*
X64337718Y-100749714D01*
X64337718Y-100749714D02*
X64432956Y-100464000D01*
X64432956Y-100464000D02*
X64432956Y-100178285D01*
X64432956Y-100178285D02*
X64337718Y-99892571D01*
X64337718Y-99892571D02*
X64242480Y-99749714D01*
X64242480Y-99749714D02*
X64052004Y-99606857D01*
X64052004Y-99606857D02*
X63575813Y-99606857D01*
X63575813Y-99606857D02*
X63290099Y-99749714D01*
X60909146Y-102606857D02*
X60909146Y-99606857D01*
X60909146Y-99606857D02*
X60242479Y-101749714D01*
X60242479Y-101749714D02*
X59575813Y-99606857D01*
X59575813Y-99606857D02*
X59575813Y-102606857D01*
X58623432Y-102606857D02*
X58623432Y-99606857D01*
X58432956Y-98464000D02*
X58718670Y-98892571D01*
X57671051Y-102606857D02*
X57671051Y-99606857D01*
X57671051Y-99606857D02*
X56528194Y-102606857D01*
X56528194Y-102606857D02*
X56528194Y-99606857D01*
X55575813Y-102606857D02*
X55575813Y-99606857D01*
X54623432Y-102606857D02*
X54623432Y-99606857D01*
X54623432Y-99606857D02*
X53956765Y-101749714D01*
X53956765Y-101749714D02*
X53290099Y-99606857D01*
X53290099Y-99606857D02*
X53290099Y-102606857D01*
X52432956Y-101749714D02*
X51480575Y-101749714D01*
X52623432Y-102606857D02*
X51956766Y-99606857D01*
X51956766Y-99606857D02*
X51290099Y-102606857D01*
X50718670Y-102464000D02*
X50432956Y-102606857D01*
X50432956Y-102606857D02*
X49956765Y-102606857D01*
X49956765Y-102606857D02*
X49766289Y-102464000D01*
X49766289Y-102464000D02*
X49671051Y-102321142D01*
X49671051Y-102321142D02*
X49575813Y-102035428D01*
X49575813Y-102035428D02*
X49575813Y-101749714D01*
X49575813Y-101749714D02*
X49671051Y-101464000D01*
X49671051Y-101464000D02*
X49766289Y-101321142D01*
X49766289Y-101321142D02*
X49956765Y-101178285D01*
X49956765Y-101178285D02*
X50337718Y-101035428D01*
X50337718Y-101035428D02*
X50528194Y-100892571D01*
X50528194Y-100892571D02*
X50623432Y-100749714D01*
X50623432Y-100749714D02*
X50718670Y-100464000D01*
X50718670Y-100464000D02*
X50718670Y-100178285D01*
X50718670Y-100178285D02*
X50623432Y-99892571D01*
X50623432Y-99892571D02*
X50528194Y-99749714D01*
X50528194Y-99749714D02*
X50337718Y-99606857D01*
X50337718Y-99606857D02*
X49861527Y-99606857D01*
X49861527Y-99606857D02*
X49575813Y-99749714D01*
X78052005Y-97321142D02*
X78147243Y-97464000D01*
X78147243Y-97464000D02*
X78432957Y-97606857D01*
X78432957Y-97606857D02*
X78623433Y-97606857D01*
X78623433Y-97606857D02*
X78909148Y-97464000D01*
X78909148Y-97464000D02*
X79099624Y-97178285D01*
X79099624Y-97178285D02*
X79194862Y-96892571D01*
X79194862Y-96892571D02*
X79290100Y-96321142D01*
X79290100Y-96321142D02*
X79290100Y-95892571D01*
X79290100Y-95892571D02*
X79194862Y-95321142D01*
X79194862Y-95321142D02*
X79099624Y-95035428D01*
X79099624Y-95035428D02*
X78909148Y-94749714D01*
X78909148Y-94749714D02*
X78623433Y-94606857D01*
X78623433Y-94606857D02*
X78432957Y-94606857D01*
X78432957Y-94606857D02*
X78147243Y-94749714D01*
X78147243Y-94749714D02*
X78052005Y-94892571D01*
X76813910Y-94606857D02*
X76432957Y-94606857D01*
X76432957Y-94606857D02*
X76242481Y-94749714D01*
X76242481Y-94749714D02*
X76052005Y-95035428D01*
X76052005Y-95035428D02*
X75956767Y-95606857D01*
X75956767Y-95606857D02*
X75956767Y-96606857D01*
X75956767Y-96606857D02*
X76052005Y-97178285D01*
X76052005Y-97178285D02*
X76242481Y-97464000D01*
X76242481Y-97464000D02*
X76432957Y-97606857D01*
X76432957Y-97606857D02*
X76813910Y-97606857D01*
X76813910Y-97606857D02*
X77004386Y-97464000D01*
X77004386Y-97464000D02*
X77194862Y-97178285D01*
X77194862Y-97178285D02*
X77290100Y-96606857D01*
X77290100Y-96606857D02*
X77290100Y-95606857D01*
X77290100Y-95606857D02*
X77194862Y-95035428D01*
X77194862Y-95035428D02*
X77004386Y-94749714D01*
X77004386Y-94749714D02*
X76813910Y-94606857D01*
X75099624Y-97606857D02*
X75099624Y-94606857D01*
X75099624Y-94606857D02*
X74432957Y-96749714D01*
X74432957Y-96749714D02*
X73766291Y-94606857D01*
X73766291Y-94606857D02*
X73766291Y-97606857D01*
X72813910Y-97606857D02*
X72813910Y-94606857D01*
X72813910Y-94606857D02*
X72052005Y-94606857D01*
X72052005Y-94606857D02*
X71861529Y-94749714D01*
X71861529Y-94749714D02*
X71766291Y-94892571D01*
X71766291Y-94892571D02*
X71671053Y-95178285D01*
X71671053Y-95178285D02*
X71671053Y-95606857D01*
X71671053Y-95606857D02*
X71766291Y-95892571D01*
X71766291Y-95892571D02*
X71861529Y-96035428D01*
X71861529Y-96035428D02*
X72052005Y-96178285D01*
X72052005Y-96178285D02*
X72813910Y-96178285D01*
X69671053Y-97606857D02*
X70337720Y-96178285D01*
X70813910Y-97606857D02*
X70813910Y-94606857D01*
X70813910Y-94606857D02*
X70052005Y-94606857D01*
X70052005Y-94606857D02*
X69861529Y-94749714D01*
X69861529Y-94749714D02*
X69766291Y-94892571D01*
X69766291Y-94892571D02*
X69671053Y-95178285D01*
X69671053Y-95178285D02*
X69671053Y-95606857D01*
X69671053Y-95606857D02*
X69766291Y-95892571D01*
X69766291Y-95892571D02*
X69861529Y-96035428D01*
X69861529Y-96035428D02*
X70052005Y-96178285D01*
X70052005Y-96178285D02*
X70813910Y-96178285D01*
X68432958Y-94606857D02*
X68052005Y-94606857D01*
X68052005Y-94606857D02*
X67861529Y-94749714D01*
X67861529Y-94749714D02*
X67671053Y-95035428D01*
X67671053Y-95035428D02*
X67575815Y-95606857D01*
X67575815Y-95606857D02*
X67575815Y-96606857D01*
X67575815Y-96606857D02*
X67671053Y-97178285D01*
X67671053Y-97178285D02*
X67861529Y-97464000D01*
X67861529Y-97464000D02*
X68052005Y-97606857D01*
X68052005Y-97606857D02*
X68432958Y-97606857D01*
X68432958Y-97606857D02*
X68623434Y-97464000D01*
X68623434Y-97464000D02*
X68813910Y-97178285D01*
X68813910Y-97178285D02*
X68909148Y-96606857D01*
X68909148Y-96606857D02*
X68909148Y-95606857D01*
X68909148Y-95606857D02*
X68813910Y-95035428D01*
X68813910Y-95035428D02*
X68623434Y-94749714D01*
X68623434Y-94749714D02*
X68432958Y-94606857D01*
X66052005Y-96035428D02*
X65766291Y-96178285D01*
X65766291Y-96178285D02*
X65671053Y-96321142D01*
X65671053Y-96321142D02*
X65575815Y-96606857D01*
X65575815Y-96606857D02*
X65575815Y-97035428D01*
X65575815Y-97035428D02*
X65671053Y-97321142D01*
X65671053Y-97321142D02*
X65766291Y-97464000D01*
X65766291Y-97464000D02*
X65956767Y-97606857D01*
X65956767Y-97606857D02*
X66718672Y-97606857D01*
X66718672Y-97606857D02*
X66718672Y-94606857D01*
X66718672Y-94606857D02*
X66052005Y-94606857D01*
X66052005Y-94606857D02*
X65861529Y-94749714D01*
X65861529Y-94749714D02*
X65766291Y-94892571D01*
X65766291Y-94892571D02*
X65671053Y-95178285D01*
X65671053Y-95178285D02*
X65671053Y-95464000D01*
X65671053Y-95464000D02*
X65766291Y-95749714D01*
X65766291Y-95749714D02*
X65861529Y-95892571D01*
X65861529Y-95892571D02*
X66052005Y-96035428D01*
X66052005Y-96035428D02*
X66718672Y-96035428D01*
X64813910Y-96749714D02*
X63861529Y-96749714D01*
X65004386Y-97606857D02*
X64337720Y-94606857D01*
X64337720Y-94606857D02*
X63671053Y-97606857D01*
X63004386Y-97606857D02*
X63004386Y-94606857D01*
X63004386Y-94606857D02*
X62528196Y-94606857D01*
X62528196Y-94606857D02*
X62242481Y-94749714D01*
X62242481Y-94749714D02*
X62052005Y-95035428D01*
X62052005Y-95035428D02*
X61956767Y-95321142D01*
X61956767Y-95321142D02*
X61861529Y-95892571D01*
X61861529Y-95892571D02*
X61861529Y-96321142D01*
X61861529Y-96321142D02*
X61956767Y-96892571D01*
X61956767Y-96892571D02*
X62052005Y-97178285D01*
X62052005Y-97178285D02*
X62242481Y-97464000D01*
X62242481Y-97464000D02*
X62528196Y-97606857D01*
X62528196Y-97606857D02*
X63004386Y-97606857D01*
X60623434Y-94606857D02*
X60242481Y-94606857D01*
X60242481Y-94606857D02*
X60052005Y-94749714D01*
X60052005Y-94749714D02*
X59861529Y-95035428D01*
X59861529Y-95035428D02*
X59766291Y-95606857D01*
X59766291Y-95606857D02*
X59766291Y-96606857D01*
X59766291Y-96606857D02*
X59861529Y-97178285D01*
X59861529Y-97178285D02*
X60052005Y-97464000D01*
X60052005Y-97464000D02*
X60242481Y-97606857D01*
X60242481Y-97606857D02*
X60623434Y-97606857D01*
X60623434Y-97606857D02*
X60813910Y-97464000D01*
X60813910Y-97464000D02*
X61004386Y-97178285D01*
X61004386Y-97178285D02*
X61099624Y-96606857D01*
X61099624Y-96606857D02*
X61099624Y-95606857D01*
X61099624Y-95606857D02*
X61004386Y-95035428D01*
X61004386Y-95035428D02*
X60813910Y-94749714D01*
X60813910Y-94749714D02*
X60623434Y-94606857D01*
X57766291Y-97606857D02*
X58432958Y-96178285D01*
X58909148Y-97606857D02*
X58909148Y-94606857D01*
X58909148Y-94606857D02*
X58147243Y-94606857D01*
X58147243Y-94606857D02*
X57956767Y-94749714D01*
X57956767Y-94749714D02*
X57861529Y-94892571D01*
X57861529Y-94892571D02*
X57766291Y-95178285D01*
X57766291Y-95178285D02*
X57766291Y-95606857D01*
X57766291Y-95606857D02*
X57861529Y-95892571D01*
X57861529Y-95892571D02*
X57956767Y-96035428D01*
X57956767Y-96035428D02*
X58147243Y-96178285D01*
X58147243Y-96178285D02*
X58909148Y-96178285D01*
X55385338Y-97606857D02*
X55385338Y-94606857D01*
X55385338Y-94606857D02*
X54909148Y-94606857D01*
X54909148Y-94606857D02*
X54623433Y-94749714D01*
X54623433Y-94749714D02*
X54432957Y-95035428D01*
X54432957Y-95035428D02*
X54337719Y-95321142D01*
X54337719Y-95321142D02*
X54242481Y-95892571D01*
X54242481Y-95892571D02*
X54242481Y-96321142D01*
X54242481Y-96321142D02*
X54337719Y-96892571D01*
X54337719Y-96892571D02*
X54432957Y-97178285D01*
X54432957Y-97178285D02*
X54623433Y-97464000D01*
X54623433Y-97464000D02*
X54909148Y-97606857D01*
X54909148Y-97606857D02*
X55385338Y-97606857D01*
X53385338Y-96035428D02*
X52718671Y-96035428D01*
X52432957Y-97606857D02*
X53385338Y-97606857D01*
X53385338Y-97606857D02*
X53385338Y-94606857D01*
X53385338Y-94606857D02*
X52432957Y-94606857D01*
X48909147Y-97606857D02*
X49575814Y-96178285D01*
X50052004Y-97606857D02*
X50052004Y-94606857D01*
X50052004Y-94606857D02*
X49290099Y-94606857D01*
X49290099Y-94606857D02*
X49099623Y-94749714D01*
X49099623Y-94749714D02*
X49004385Y-94892571D01*
X49004385Y-94892571D02*
X48909147Y-95178285D01*
X48909147Y-95178285D02*
X48909147Y-95606857D01*
X48909147Y-95606857D02*
X49004385Y-95892571D01*
X49004385Y-95892571D02*
X49099623Y-96035428D01*
X49099623Y-96035428D02*
X49290099Y-96178285D01*
X49290099Y-96178285D02*
X50052004Y-96178285D01*
X48052004Y-96035428D02*
X47385337Y-96035428D01*
X47099623Y-97606857D02*
X48052004Y-97606857D01*
X48052004Y-97606857D02*
X48052004Y-94606857D01*
X48052004Y-94606857D02*
X47099623Y-94606857D01*
X46337718Y-97464000D02*
X46052004Y-97606857D01*
X46052004Y-97606857D02*
X45575813Y-97606857D01*
X45575813Y-97606857D02*
X45385337Y-97464000D01*
X45385337Y-97464000D02*
X45290099Y-97321142D01*
X45290099Y-97321142D02*
X45194861Y-97035428D01*
X45194861Y-97035428D02*
X45194861Y-96749714D01*
X45194861Y-96749714D02*
X45290099Y-96464000D01*
X45290099Y-96464000D02*
X45385337Y-96321142D01*
X45385337Y-96321142D02*
X45575813Y-96178285D01*
X45575813Y-96178285D02*
X45956766Y-96035428D01*
X45956766Y-96035428D02*
X46147242Y-95892571D01*
X46147242Y-95892571D02*
X46242480Y-95749714D01*
X46242480Y-95749714D02*
X46337718Y-95464000D01*
X46337718Y-95464000D02*
X46337718Y-95178285D01*
X46337718Y-95178285D02*
X46242480Y-94892571D01*
X46242480Y-94892571D02*
X46147242Y-94749714D01*
X46147242Y-94749714D02*
X45956766Y-94606857D01*
X45956766Y-94606857D02*
X45480575Y-94606857D01*
X45480575Y-94606857D02*
X45194861Y-94749714D01*
X43290099Y-94749714D02*
X43480575Y-94606857D01*
X43480575Y-94606857D02*
X43766289Y-94606857D01*
X43766289Y-94606857D02*
X44052004Y-94749714D01*
X44052004Y-94749714D02*
X44242480Y-95035428D01*
X44242480Y-95035428D02*
X44337718Y-95321142D01*
X44337718Y-95321142D02*
X44432956Y-95892571D01*
X44432956Y-95892571D02*
X44432956Y-96321142D01*
X44432956Y-96321142D02*
X44337718Y-96892571D01*
X44337718Y-96892571D02*
X44242480Y-97178285D01*
X44242480Y-97178285D02*
X44052004Y-97464000D01*
X44052004Y-97464000D02*
X43766289Y-97606857D01*
X43766289Y-97606857D02*
X43575813Y-97606857D01*
X43575813Y-97606857D02*
X43290099Y-97464000D01*
X43290099Y-97464000D02*
X43194861Y-97321142D01*
X43194861Y-97321142D02*
X43194861Y-96321142D01*
X43194861Y-96321142D02*
X43575813Y-96321142D01*
X42337718Y-94606857D02*
X42337718Y-97035428D01*
X42337718Y-97035428D02*
X42242480Y-97321142D01*
X42242480Y-97321142D02*
X42147242Y-97464000D01*
X42147242Y-97464000D02*
X41956766Y-97606857D01*
X41956766Y-97606857D02*
X41575813Y-97606857D01*
X41575813Y-97606857D02*
X41385337Y-97464000D01*
X41385337Y-97464000D02*
X41290099Y-97321142D01*
X41290099Y-97321142D02*
X41194861Y-97035428D01*
X41194861Y-97035428D02*
X41194861Y-94606857D01*
X40337718Y-96749714D02*
X39385337Y-96749714D01*
X40528194Y-97606857D02*
X39861528Y-94606857D01*
X39861528Y-94606857D02*
X39194861Y-97606857D01*
X37385337Y-97606857D02*
X38052004Y-96178285D01*
X38528194Y-97606857D02*
X38528194Y-94606857D01*
X38528194Y-94606857D02*
X37766289Y-94606857D01*
X37766289Y-94606857D02*
X37575813Y-94749714D01*
X37575813Y-94749714D02*
X37480575Y-94892571D01*
X37480575Y-94892571D02*
X37385337Y-95178285D01*
X37385337Y-95178285D02*
X37385337Y-95606857D01*
X37385337Y-95606857D02*
X37480575Y-95892571D01*
X37480575Y-95892571D02*
X37575813Y-96035428D01*
X37575813Y-96035428D02*
X37766289Y-96178285D01*
X37766289Y-96178285D02*
X38528194Y-96178285D01*
X36528194Y-97606857D02*
X36528194Y-94606857D01*
X36528194Y-94606857D02*
X36052004Y-94606857D01*
X36052004Y-94606857D02*
X35766289Y-94749714D01*
X35766289Y-94749714D02*
X35575813Y-95035428D01*
X35575813Y-95035428D02*
X35480575Y-95321142D01*
X35480575Y-95321142D02*
X35385337Y-95892571D01*
X35385337Y-95892571D02*
X35385337Y-96321142D01*
X35385337Y-96321142D02*
X35480575Y-96892571D01*
X35480575Y-96892571D02*
X35575813Y-97178285D01*
X35575813Y-97178285D02*
X35766289Y-97464000D01*
X35766289Y-97464000D02*
X36052004Y-97606857D01*
X36052004Y-97606857D02*
X36528194Y-97606857D01*
X34147242Y-94606857D02*
X33766289Y-94606857D01*
X33766289Y-94606857D02*
X33575813Y-94749714D01*
X33575813Y-94749714D02*
X33385337Y-95035428D01*
X33385337Y-95035428D02*
X33290099Y-95606857D01*
X33290099Y-95606857D02*
X33290099Y-96606857D01*
X33290099Y-96606857D02*
X33385337Y-97178285D01*
X33385337Y-97178285D02*
X33575813Y-97464000D01*
X33575813Y-97464000D02*
X33766289Y-97606857D01*
X33766289Y-97606857D02*
X34147242Y-97606857D01*
X34147242Y-97606857D02*
X34337718Y-97464000D01*
X34337718Y-97464000D02*
X34528194Y-97178285D01*
X34528194Y-97178285D02*
X34623432Y-96606857D01*
X34623432Y-96606857D02*
X34623432Y-95606857D01*
X34623432Y-95606857D02*
X34528194Y-95035428D01*
X34528194Y-95035428D02*
X34337718Y-94749714D01*
X34337718Y-94749714D02*
X34147242Y-94606857D01*
X32528194Y-97464000D02*
X32242480Y-97606857D01*
X32242480Y-97606857D02*
X31766289Y-97606857D01*
X31766289Y-97606857D02*
X31575813Y-97464000D01*
X31575813Y-97464000D02*
X31480575Y-97321142D01*
X31480575Y-97321142D02*
X31385337Y-97035428D01*
X31385337Y-97035428D02*
X31385337Y-96749714D01*
X31385337Y-96749714D02*
X31480575Y-96464000D01*
X31480575Y-96464000D02*
X31575813Y-96321142D01*
X31575813Y-96321142D02*
X31766289Y-96178285D01*
X31766289Y-96178285D02*
X32147242Y-96035428D01*
X32147242Y-96035428D02*
X32337718Y-95892571D01*
X32337718Y-95892571D02*
X32432956Y-95749714D01*
X32432956Y-95749714D02*
X32528194Y-95464000D01*
X32528194Y-95464000D02*
X32528194Y-95178285D01*
X32528194Y-95178285D02*
X32432956Y-94892571D01*
X32432956Y-94892571D02*
X32337718Y-94749714D01*
X32337718Y-94749714D02*
X32147242Y-94606857D01*
X32147242Y-94606857D02*
X31671051Y-94606857D01*
X31671051Y-94606857D02*
X31385337Y-94749714D01*
D11*
X248686128Y-100142858D02*
X248686128Y-99285715D01*
X248686128Y-99714286D02*
X247186128Y-99714286D01*
X247186128Y-99714286D02*
X247400414Y-99571429D01*
X247400414Y-99571429D02*
X247543271Y-99428572D01*
X247543271Y-99428572D02*
X247614700Y-99285715D01*
X247186128Y-101071429D02*
X247186128Y-101214286D01*
X247186128Y-101214286D02*
X247257557Y-101357143D01*
X247257557Y-101357143D02*
X247328985Y-101428572D01*
X247328985Y-101428572D02*
X247471842Y-101500000D01*
X247471842Y-101500000D02*
X247757557Y-101571429D01*
X247757557Y-101571429D02*
X248114700Y-101571429D01*
X248114700Y-101571429D02*
X248400414Y-101500000D01*
X248400414Y-101500000D02*
X248543271Y-101428572D01*
X248543271Y-101428572D02*
X248614700Y-101357143D01*
X248614700Y-101357143D02*
X248686128Y-101214286D01*
X248686128Y-101214286D02*
X248686128Y-101071429D01*
X248686128Y-101071429D02*
X248614700Y-100928572D01*
X248614700Y-100928572D02*
X248543271Y-100857143D01*
X248543271Y-100857143D02*
X248400414Y-100785714D01*
X248400414Y-100785714D02*
X248114700Y-100714286D01*
X248114700Y-100714286D02*
X247757557Y-100714286D01*
X247757557Y-100714286D02*
X247471842Y-100785714D01*
X247471842Y-100785714D02*
X247328985Y-100857143D01*
X247328985Y-100857143D02*
X247257557Y-100928572D01*
X247257557Y-100928572D02*
X247186128Y-101071429D01*
X248686128Y-103357142D02*
X247686128Y-103357142D01*
X247828985Y-103357142D02*
X247757557Y-103428571D01*
X247757557Y-103428571D02*
X247686128Y-103571428D01*
X247686128Y-103571428D02*
X247686128Y-103785714D01*
X247686128Y-103785714D02*
X247757557Y-103928571D01*
X247757557Y-103928571D02*
X247900414Y-104000000D01*
X247900414Y-104000000D02*
X248686128Y-104000000D01*
X247900414Y-104000000D02*
X247757557Y-104071428D01*
X247757557Y-104071428D02*
X247686128Y-104214285D01*
X247686128Y-104214285D02*
X247686128Y-104428571D01*
X247686128Y-104428571D02*
X247757557Y-104571428D01*
X247757557Y-104571428D02*
X247900414Y-104642857D01*
X247900414Y-104642857D02*
X248686128Y-104642857D01*
X248686128Y-105357142D02*
X247686128Y-105357142D01*
X247828985Y-105357142D02*
X247757557Y-105428571D01*
X247757557Y-105428571D02*
X247686128Y-105571428D01*
X247686128Y-105571428D02*
X247686128Y-105785714D01*
X247686128Y-105785714D02*
X247757557Y-105928571D01*
X247757557Y-105928571D02*
X247900414Y-106000000D01*
X247900414Y-106000000D02*
X248686128Y-106000000D01*
X247900414Y-106000000D02*
X247757557Y-106071428D01*
X247757557Y-106071428D02*
X247686128Y-106214285D01*
X247686128Y-106214285D02*
X247686128Y-106428571D01*
X247686128Y-106428571D02*
X247757557Y-106571428D01*
X247757557Y-106571428D02*
X247900414Y-106642857D01*
X247900414Y-106642857D02*
X248686128Y-106642857D01*
X193686128Y-98142858D02*
X193686128Y-97285715D01*
X193686128Y-97714286D02*
X192186128Y-97714286D01*
X192186128Y-97714286D02*
X192400414Y-97571429D01*
X192400414Y-97571429D02*
X192543271Y-97428572D01*
X192543271Y-97428572D02*
X192614700Y-97285715D01*
X192328985Y-98714286D02*
X192257557Y-98785714D01*
X192257557Y-98785714D02*
X192186128Y-98928572D01*
X192186128Y-98928572D02*
X192186128Y-99285714D01*
X192186128Y-99285714D02*
X192257557Y-99428572D01*
X192257557Y-99428572D02*
X192328985Y-99500000D01*
X192328985Y-99500000D02*
X192471842Y-99571429D01*
X192471842Y-99571429D02*
X192614700Y-99571429D01*
X192614700Y-99571429D02*
X192828985Y-99500000D01*
X192828985Y-99500000D02*
X193686128Y-98642857D01*
X193686128Y-98642857D02*
X193686128Y-99571429D01*
X193686128Y-101357142D02*
X192686128Y-101357142D01*
X192828985Y-101357142D02*
X192757557Y-101428571D01*
X192757557Y-101428571D02*
X192686128Y-101571428D01*
X192686128Y-101571428D02*
X192686128Y-101785714D01*
X192686128Y-101785714D02*
X192757557Y-101928571D01*
X192757557Y-101928571D02*
X192900414Y-102000000D01*
X192900414Y-102000000D02*
X193686128Y-102000000D01*
X192900414Y-102000000D02*
X192757557Y-102071428D01*
X192757557Y-102071428D02*
X192686128Y-102214285D01*
X192686128Y-102214285D02*
X192686128Y-102428571D01*
X192686128Y-102428571D02*
X192757557Y-102571428D01*
X192757557Y-102571428D02*
X192900414Y-102642857D01*
X192900414Y-102642857D02*
X193686128Y-102642857D01*
X193686128Y-103357142D02*
X192686128Y-103357142D01*
X192828985Y-103357142D02*
X192757557Y-103428571D01*
X192757557Y-103428571D02*
X192686128Y-103571428D01*
X192686128Y-103571428D02*
X192686128Y-103785714D01*
X192686128Y-103785714D02*
X192757557Y-103928571D01*
X192757557Y-103928571D02*
X192900414Y-104000000D01*
X192900414Y-104000000D02*
X193686128Y-104000000D01*
X192900414Y-104000000D02*
X192757557Y-104071428D01*
X192757557Y-104071428D02*
X192686128Y-104214285D01*
X192686128Y-104214285D02*
X192686128Y-104428571D01*
X192686128Y-104428571D02*
X192757557Y-104571428D01*
X192757557Y-104571428D02*
X192900414Y-104642857D01*
X192900414Y-104642857D02*
X193686128Y-104642857D01*
D10*
X77052005Y-147321142D02*
X77147243Y-147464000D01*
X77147243Y-147464000D02*
X77432957Y-147606857D01*
X77432957Y-147606857D02*
X77623433Y-147606857D01*
X77623433Y-147606857D02*
X77909148Y-147464000D01*
X77909148Y-147464000D02*
X78099624Y-147178285D01*
X78099624Y-147178285D02*
X78194862Y-146892571D01*
X78194862Y-146892571D02*
X78290100Y-146321142D01*
X78290100Y-146321142D02*
X78290100Y-145892571D01*
X78290100Y-145892571D02*
X78194862Y-145321142D01*
X78194862Y-145321142D02*
X78099624Y-145035428D01*
X78099624Y-145035428D02*
X77909148Y-144749714D01*
X77909148Y-144749714D02*
X77623433Y-144606857D01*
X77623433Y-144606857D02*
X77432957Y-144606857D01*
X77432957Y-144606857D02*
X77147243Y-144749714D01*
X77147243Y-144749714D02*
X77052005Y-144892571D01*
X75813910Y-144606857D02*
X75432957Y-144606857D01*
X75432957Y-144606857D02*
X75242481Y-144749714D01*
X75242481Y-144749714D02*
X75052005Y-145035428D01*
X75052005Y-145035428D02*
X74956767Y-145606857D01*
X74956767Y-145606857D02*
X74956767Y-146606857D01*
X74956767Y-146606857D02*
X75052005Y-147178285D01*
X75052005Y-147178285D02*
X75242481Y-147464000D01*
X75242481Y-147464000D02*
X75432957Y-147606857D01*
X75432957Y-147606857D02*
X75813910Y-147606857D01*
X75813910Y-147606857D02*
X76004386Y-147464000D01*
X76004386Y-147464000D02*
X76194862Y-147178285D01*
X76194862Y-147178285D02*
X76290100Y-146606857D01*
X76290100Y-146606857D02*
X76290100Y-145606857D01*
X76290100Y-145606857D02*
X76194862Y-145035428D01*
X76194862Y-145035428D02*
X76004386Y-144749714D01*
X76004386Y-144749714D02*
X75813910Y-144606857D01*
X74099624Y-147606857D02*
X74099624Y-144606857D01*
X74099624Y-144606857D02*
X73432957Y-146749714D01*
X73432957Y-146749714D02*
X72766291Y-144606857D01*
X72766291Y-144606857D02*
X72766291Y-147606857D01*
X71813910Y-147606857D02*
X71813910Y-144606857D01*
X71813910Y-144606857D02*
X71052005Y-144606857D01*
X71052005Y-144606857D02*
X70861529Y-144749714D01*
X70861529Y-144749714D02*
X70766291Y-144892571D01*
X70766291Y-144892571D02*
X70671053Y-145178285D01*
X70671053Y-145178285D02*
X70671053Y-145606857D01*
X70671053Y-145606857D02*
X70766291Y-145892571D01*
X70766291Y-145892571D02*
X70861529Y-146035428D01*
X70861529Y-146035428D02*
X71052005Y-146178285D01*
X71052005Y-146178285D02*
X71813910Y-146178285D01*
X68671053Y-147606857D02*
X69337720Y-146178285D01*
X69813910Y-147606857D02*
X69813910Y-144606857D01*
X69813910Y-144606857D02*
X69052005Y-144606857D01*
X69052005Y-144606857D02*
X68861529Y-144749714D01*
X68861529Y-144749714D02*
X68766291Y-144892571D01*
X68766291Y-144892571D02*
X68671053Y-145178285D01*
X68671053Y-145178285D02*
X68671053Y-145606857D01*
X68671053Y-145606857D02*
X68766291Y-145892571D01*
X68766291Y-145892571D02*
X68861529Y-146035428D01*
X68861529Y-146035428D02*
X69052005Y-146178285D01*
X69052005Y-146178285D02*
X69813910Y-146178285D01*
X67432958Y-144606857D02*
X67052005Y-144606857D01*
X67052005Y-144606857D02*
X66861529Y-144749714D01*
X66861529Y-144749714D02*
X66671053Y-145035428D01*
X66671053Y-145035428D02*
X66575815Y-145606857D01*
X66575815Y-145606857D02*
X66575815Y-146606857D01*
X66575815Y-146606857D02*
X66671053Y-147178285D01*
X66671053Y-147178285D02*
X66861529Y-147464000D01*
X66861529Y-147464000D02*
X67052005Y-147606857D01*
X67052005Y-147606857D02*
X67432958Y-147606857D01*
X67432958Y-147606857D02*
X67623434Y-147464000D01*
X67623434Y-147464000D02*
X67813910Y-147178285D01*
X67813910Y-147178285D02*
X67909148Y-146606857D01*
X67909148Y-146606857D02*
X67909148Y-145606857D01*
X67909148Y-145606857D02*
X67813910Y-145035428D01*
X67813910Y-145035428D02*
X67623434Y-144749714D01*
X67623434Y-144749714D02*
X67432958Y-144606857D01*
X65052005Y-146035428D02*
X64766291Y-146178285D01*
X64766291Y-146178285D02*
X64671053Y-146321142D01*
X64671053Y-146321142D02*
X64575815Y-146606857D01*
X64575815Y-146606857D02*
X64575815Y-147035428D01*
X64575815Y-147035428D02*
X64671053Y-147321142D01*
X64671053Y-147321142D02*
X64766291Y-147464000D01*
X64766291Y-147464000D02*
X64956767Y-147606857D01*
X64956767Y-147606857D02*
X65718672Y-147606857D01*
X65718672Y-147606857D02*
X65718672Y-144606857D01*
X65718672Y-144606857D02*
X65052005Y-144606857D01*
X65052005Y-144606857D02*
X64861529Y-144749714D01*
X64861529Y-144749714D02*
X64766291Y-144892571D01*
X64766291Y-144892571D02*
X64671053Y-145178285D01*
X64671053Y-145178285D02*
X64671053Y-145464000D01*
X64671053Y-145464000D02*
X64766291Y-145749714D01*
X64766291Y-145749714D02*
X64861529Y-145892571D01*
X64861529Y-145892571D02*
X65052005Y-146035428D01*
X65052005Y-146035428D02*
X65718672Y-146035428D01*
X63813910Y-146749714D02*
X62861529Y-146749714D01*
X64004386Y-147606857D02*
X63337720Y-144606857D01*
X63337720Y-144606857D02*
X62671053Y-147606857D01*
X62004386Y-147606857D02*
X62004386Y-144606857D01*
X62004386Y-144606857D02*
X61528196Y-144606857D01*
X61528196Y-144606857D02*
X61242481Y-144749714D01*
X61242481Y-144749714D02*
X61052005Y-145035428D01*
X61052005Y-145035428D02*
X60956767Y-145321142D01*
X60956767Y-145321142D02*
X60861529Y-145892571D01*
X60861529Y-145892571D02*
X60861529Y-146321142D01*
X60861529Y-146321142D02*
X60956767Y-146892571D01*
X60956767Y-146892571D02*
X61052005Y-147178285D01*
X61052005Y-147178285D02*
X61242481Y-147464000D01*
X61242481Y-147464000D02*
X61528196Y-147606857D01*
X61528196Y-147606857D02*
X62004386Y-147606857D01*
X59623434Y-144606857D02*
X59242481Y-144606857D01*
X59242481Y-144606857D02*
X59052005Y-144749714D01*
X59052005Y-144749714D02*
X58861529Y-145035428D01*
X58861529Y-145035428D02*
X58766291Y-145606857D01*
X58766291Y-145606857D02*
X58766291Y-146606857D01*
X58766291Y-146606857D02*
X58861529Y-147178285D01*
X58861529Y-147178285D02*
X59052005Y-147464000D01*
X59052005Y-147464000D02*
X59242481Y-147606857D01*
X59242481Y-147606857D02*
X59623434Y-147606857D01*
X59623434Y-147606857D02*
X59813910Y-147464000D01*
X59813910Y-147464000D02*
X60004386Y-147178285D01*
X60004386Y-147178285D02*
X60099624Y-146606857D01*
X60099624Y-146606857D02*
X60099624Y-145606857D01*
X60099624Y-145606857D02*
X60004386Y-145035428D01*
X60004386Y-145035428D02*
X59813910Y-144749714D01*
X59813910Y-144749714D02*
X59623434Y-144606857D01*
X56766291Y-147606857D02*
X57432958Y-146178285D01*
X57909148Y-147606857D02*
X57909148Y-144606857D01*
X57909148Y-144606857D02*
X57147243Y-144606857D01*
X57147243Y-144606857D02*
X56956767Y-144749714D01*
X56956767Y-144749714D02*
X56861529Y-144892571D01*
X56861529Y-144892571D02*
X56766291Y-145178285D01*
X56766291Y-145178285D02*
X56766291Y-145606857D01*
X56766291Y-145606857D02*
X56861529Y-145892571D01*
X56861529Y-145892571D02*
X56956767Y-146035428D01*
X56956767Y-146035428D02*
X57147243Y-146178285D01*
X57147243Y-146178285D02*
X57909148Y-146178285D01*
X54385338Y-147606857D02*
X54385338Y-144606857D01*
X54385338Y-144606857D02*
X53909148Y-144606857D01*
X53909148Y-144606857D02*
X53623433Y-144749714D01*
X53623433Y-144749714D02*
X53432957Y-145035428D01*
X53432957Y-145035428D02*
X53337719Y-145321142D01*
X53337719Y-145321142D02*
X53242481Y-145892571D01*
X53242481Y-145892571D02*
X53242481Y-146321142D01*
X53242481Y-146321142D02*
X53337719Y-146892571D01*
X53337719Y-146892571D02*
X53432957Y-147178285D01*
X53432957Y-147178285D02*
X53623433Y-147464000D01*
X53623433Y-147464000D02*
X53909148Y-147606857D01*
X53909148Y-147606857D02*
X54385338Y-147606857D01*
X52385338Y-146035428D02*
X51718671Y-146035428D01*
X51432957Y-147606857D02*
X52385338Y-147606857D01*
X52385338Y-147606857D02*
X52385338Y-144606857D01*
X52385338Y-144606857D02*
X51432957Y-144606857D01*
X47909147Y-147606857D02*
X48575814Y-146178285D01*
X49052004Y-147606857D02*
X49052004Y-144606857D01*
X49052004Y-144606857D02*
X48290099Y-144606857D01*
X48290099Y-144606857D02*
X48099623Y-144749714D01*
X48099623Y-144749714D02*
X48004385Y-144892571D01*
X48004385Y-144892571D02*
X47909147Y-145178285D01*
X47909147Y-145178285D02*
X47909147Y-145606857D01*
X47909147Y-145606857D02*
X48004385Y-145892571D01*
X48004385Y-145892571D02*
X48099623Y-146035428D01*
X48099623Y-146035428D02*
X48290099Y-146178285D01*
X48290099Y-146178285D02*
X49052004Y-146178285D01*
X47052004Y-146035428D02*
X46385337Y-146035428D01*
X46099623Y-147606857D02*
X47052004Y-147606857D01*
X47052004Y-147606857D02*
X47052004Y-144606857D01*
X47052004Y-144606857D02*
X46099623Y-144606857D01*
X45337718Y-147464000D02*
X45052004Y-147606857D01*
X45052004Y-147606857D02*
X44575813Y-147606857D01*
X44575813Y-147606857D02*
X44385337Y-147464000D01*
X44385337Y-147464000D02*
X44290099Y-147321142D01*
X44290099Y-147321142D02*
X44194861Y-147035428D01*
X44194861Y-147035428D02*
X44194861Y-146749714D01*
X44194861Y-146749714D02*
X44290099Y-146464000D01*
X44290099Y-146464000D02*
X44385337Y-146321142D01*
X44385337Y-146321142D02*
X44575813Y-146178285D01*
X44575813Y-146178285D02*
X44956766Y-146035428D01*
X44956766Y-146035428D02*
X45147242Y-145892571D01*
X45147242Y-145892571D02*
X45242480Y-145749714D01*
X45242480Y-145749714D02*
X45337718Y-145464000D01*
X45337718Y-145464000D02*
X45337718Y-145178285D01*
X45337718Y-145178285D02*
X45242480Y-144892571D01*
X45242480Y-144892571D02*
X45147242Y-144749714D01*
X45147242Y-144749714D02*
X44956766Y-144606857D01*
X44956766Y-144606857D02*
X44480575Y-144606857D01*
X44480575Y-144606857D02*
X44194861Y-144749714D01*
X42290099Y-144749714D02*
X42480575Y-144606857D01*
X42480575Y-144606857D02*
X42766289Y-144606857D01*
X42766289Y-144606857D02*
X43052004Y-144749714D01*
X43052004Y-144749714D02*
X43242480Y-145035428D01*
X43242480Y-145035428D02*
X43337718Y-145321142D01*
X43337718Y-145321142D02*
X43432956Y-145892571D01*
X43432956Y-145892571D02*
X43432956Y-146321142D01*
X43432956Y-146321142D02*
X43337718Y-146892571D01*
X43337718Y-146892571D02*
X43242480Y-147178285D01*
X43242480Y-147178285D02*
X43052004Y-147464000D01*
X43052004Y-147464000D02*
X42766289Y-147606857D01*
X42766289Y-147606857D02*
X42575813Y-147606857D01*
X42575813Y-147606857D02*
X42290099Y-147464000D01*
X42290099Y-147464000D02*
X42194861Y-147321142D01*
X42194861Y-147321142D02*
X42194861Y-146321142D01*
X42194861Y-146321142D02*
X42575813Y-146321142D01*
X41337718Y-144606857D02*
X41337718Y-147035428D01*
X41337718Y-147035428D02*
X41242480Y-147321142D01*
X41242480Y-147321142D02*
X41147242Y-147464000D01*
X41147242Y-147464000D02*
X40956766Y-147606857D01*
X40956766Y-147606857D02*
X40575813Y-147606857D01*
X40575813Y-147606857D02*
X40385337Y-147464000D01*
X40385337Y-147464000D02*
X40290099Y-147321142D01*
X40290099Y-147321142D02*
X40194861Y-147035428D01*
X40194861Y-147035428D02*
X40194861Y-144606857D01*
X39337718Y-146749714D02*
X38385337Y-146749714D01*
X39528194Y-147606857D02*
X38861528Y-144606857D01*
X38861528Y-144606857D02*
X38194861Y-147606857D01*
X36385337Y-147606857D02*
X37052004Y-146178285D01*
X37528194Y-147606857D02*
X37528194Y-144606857D01*
X37528194Y-144606857D02*
X36766289Y-144606857D01*
X36766289Y-144606857D02*
X36575813Y-144749714D01*
X36575813Y-144749714D02*
X36480575Y-144892571D01*
X36480575Y-144892571D02*
X36385337Y-145178285D01*
X36385337Y-145178285D02*
X36385337Y-145606857D01*
X36385337Y-145606857D02*
X36480575Y-145892571D01*
X36480575Y-145892571D02*
X36575813Y-146035428D01*
X36575813Y-146035428D02*
X36766289Y-146178285D01*
X36766289Y-146178285D02*
X37528194Y-146178285D01*
X35528194Y-147606857D02*
X35528194Y-144606857D01*
X35528194Y-144606857D02*
X35052004Y-144606857D01*
X35052004Y-144606857D02*
X34766289Y-144749714D01*
X34766289Y-144749714D02*
X34575813Y-145035428D01*
X34575813Y-145035428D02*
X34480575Y-145321142D01*
X34480575Y-145321142D02*
X34385337Y-145892571D01*
X34385337Y-145892571D02*
X34385337Y-146321142D01*
X34385337Y-146321142D02*
X34480575Y-146892571D01*
X34480575Y-146892571D02*
X34575813Y-147178285D01*
X34575813Y-147178285D02*
X34766289Y-147464000D01*
X34766289Y-147464000D02*
X35052004Y-147606857D01*
X35052004Y-147606857D02*
X35528194Y-147606857D01*
X33147242Y-144606857D02*
X32766289Y-144606857D01*
X32766289Y-144606857D02*
X32575813Y-144749714D01*
X32575813Y-144749714D02*
X32385337Y-145035428D01*
X32385337Y-145035428D02*
X32290099Y-145606857D01*
X32290099Y-145606857D02*
X32290099Y-146606857D01*
X32290099Y-146606857D02*
X32385337Y-147178285D01*
X32385337Y-147178285D02*
X32575813Y-147464000D01*
X32575813Y-147464000D02*
X32766289Y-147606857D01*
X32766289Y-147606857D02*
X33147242Y-147606857D01*
X33147242Y-147606857D02*
X33337718Y-147464000D01*
X33337718Y-147464000D02*
X33528194Y-147178285D01*
X33528194Y-147178285D02*
X33623432Y-146606857D01*
X33623432Y-146606857D02*
X33623432Y-145606857D01*
X33623432Y-145606857D02*
X33528194Y-145035428D01*
X33528194Y-145035428D02*
X33337718Y-144749714D01*
X33337718Y-144749714D02*
X33147242Y-144606857D01*
X31528194Y-147464000D02*
X31242480Y-147606857D01*
X31242480Y-147606857D02*
X30766289Y-147606857D01*
X30766289Y-147606857D02*
X30575813Y-147464000D01*
X30575813Y-147464000D02*
X30480575Y-147321142D01*
X30480575Y-147321142D02*
X30385337Y-147035428D01*
X30385337Y-147035428D02*
X30385337Y-146749714D01*
X30385337Y-146749714D02*
X30480575Y-146464000D01*
X30480575Y-146464000D02*
X30575813Y-146321142D01*
X30575813Y-146321142D02*
X30766289Y-146178285D01*
X30766289Y-146178285D02*
X31147242Y-146035428D01*
X31147242Y-146035428D02*
X31337718Y-145892571D01*
X31337718Y-145892571D02*
X31432956Y-145749714D01*
X31432956Y-145749714D02*
X31528194Y-145464000D01*
X31528194Y-145464000D02*
X31528194Y-145178285D01*
X31528194Y-145178285D02*
X31432956Y-144892571D01*
X31432956Y-144892571D02*
X31337718Y-144749714D01*
X31337718Y-144749714D02*
X31147242Y-144606857D01*
X31147242Y-144606857D02*
X30671051Y-144606857D01*
X30671051Y-144606857D02*
X30385337Y-144749714D01*
D11*
X152328985Y-51285715D02*
X152257557Y-51357143D01*
X152257557Y-51357143D02*
X152186128Y-51500001D01*
X152186128Y-51500001D02*
X152186128Y-51857143D01*
X152186128Y-51857143D02*
X152257557Y-52000001D01*
X152257557Y-52000001D02*
X152328985Y-52071429D01*
X152328985Y-52071429D02*
X152471842Y-52142858D01*
X152471842Y-52142858D02*
X152614700Y-52142858D01*
X152614700Y-52142858D02*
X152828985Y-52071429D01*
X152828985Y-52071429D02*
X153686128Y-51214286D01*
X153686128Y-51214286D02*
X153686128Y-52142858D01*
X152186128Y-53071429D02*
X152186128Y-53214286D01*
X152186128Y-53214286D02*
X152257557Y-53357143D01*
X152257557Y-53357143D02*
X152328985Y-53428572D01*
X152328985Y-53428572D02*
X152471842Y-53500000D01*
X152471842Y-53500000D02*
X152757557Y-53571429D01*
X152757557Y-53571429D02*
X153114700Y-53571429D01*
X153114700Y-53571429D02*
X153400414Y-53500000D01*
X153400414Y-53500000D02*
X153543271Y-53428572D01*
X153543271Y-53428572D02*
X153614700Y-53357143D01*
X153614700Y-53357143D02*
X153686128Y-53214286D01*
X153686128Y-53214286D02*
X153686128Y-53071429D01*
X153686128Y-53071429D02*
X153614700Y-52928572D01*
X153614700Y-52928572D02*
X153543271Y-52857143D01*
X153543271Y-52857143D02*
X153400414Y-52785714D01*
X153400414Y-52785714D02*
X153114700Y-52714286D01*
X153114700Y-52714286D02*
X152757557Y-52714286D01*
X152757557Y-52714286D02*
X152471842Y-52785714D01*
X152471842Y-52785714D02*
X152328985Y-52857143D01*
X152328985Y-52857143D02*
X152257557Y-52928572D01*
X152257557Y-52928572D02*
X152186128Y-53071429D01*
X153686128Y-55357142D02*
X152686128Y-55357142D01*
X152828985Y-55357142D02*
X152757557Y-55428571D01*
X152757557Y-55428571D02*
X152686128Y-55571428D01*
X152686128Y-55571428D02*
X152686128Y-55785714D01*
X152686128Y-55785714D02*
X152757557Y-55928571D01*
X152757557Y-55928571D02*
X152900414Y-56000000D01*
X152900414Y-56000000D02*
X153686128Y-56000000D01*
X152900414Y-56000000D02*
X152757557Y-56071428D01*
X152757557Y-56071428D02*
X152686128Y-56214285D01*
X152686128Y-56214285D02*
X152686128Y-56428571D01*
X152686128Y-56428571D02*
X152757557Y-56571428D01*
X152757557Y-56571428D02*
X152900414Y-56642857D01*
X152900414Y-56642857D02*
X153686128Y-56642857D01*
X153686128Y-57357142D02*
X152686128Y-57357142D01*
X152828985Y-57357142D02*
X152757557Y-57428571D01*
X152757557Y-57428571D02*
X152686128Y-57571428D01*
X152686128Y-57571428D02*
X152686128Y-57785714D01*
X152686128Y-57785714D02*
X152757557Y-57928571D01*
X152757557Y-57928571D02*
X152900414Y-58000000D01*
X152900414Y-58000000D02*
X153686128Y-58000000D01*
X152900414Y-58000000D02*
X152757557Y-58071428D01*
X152757557Y-58071428D02*
X152686128Y-58214285D01*
X152686128Y-58214285D02*
X152686128Y-58428571D01*
X152686128Y-58428571D02*
X152757557Y-58571428D01*
X152757557Y-58571428D02*
X152900414Y-58642857D01*
X152900414Y-58642857D02*
X153686128Y-58642857D01*
X151686128Y-144000001D02*
X152686128Y-144000001D01*
X151114700Y-143642858D02*
X152186128Y-143285715D01*
X152186128Y-143285715D02*
X152186128Y-144214286D01*
X151186128Y-145071429D02*
X151186128Y-145214286D01*
X151186128Y-145214286D02*
X151257557Y-145357143D01*
X151257557Y-145357143D02*
X151328985Y-145428572D01*
X151328985Y-145428572D02*
X151471842Y-145500000D01*
X151471842Y-145500000D02*
X151757557Y-145571429D01*
X151757557Y-145571429D02*
X152114700Y-145571429D01*
X152114700Y-145571429D02*
X152400414Y-145500000D01*
X152400414Y-145500000D02*
X152543271Y-145428572D01*
X152543271Y-145428572D02*
X152614700Y-145357143D01*
X152614700Y-145357143D02*
X152686128Y-145214286D01*
X152686128Y-145214286D02*
X152686128Y-145071429D01*
X152686128Y-145071429D02*
X152614700Y-144928572D01*
X152614700Y-144928572D02*
X152543271Y-144857143D01*
X152543271Y-144857143D02*
X152400414Y-144785714D01*
X152400414Y-144785714D02*
X152114700Y-144714286D01*
X152114700Y-144714286D02*
X151757557Y-144714286D01*
X151757557Y-144714286D02*
X151471842Y-144785714D01*
X151471842Y-144785714D02*
X151328985Y-144857143D01*
X151328985Y-144857143D02*
X151257557Y-144928572D01*
X151257557Y-144928572D02*
X151186128Y-145071429D01*
X152686128Y-147357142D02*
X151686128Y-147357142D01*
X151828985Y-147357142D02*
X151757557Y-147428571D01*
X151757557Y-147428571D02*
X151686128Y-147571428D01*
X151686128Y-147571428D02*
X151686128Y-147785714D01*
X151686128Y-147785714D02*
X151757557Y-147928571D01*
X151757557Y-147928571D02*
X151900414Y-148000000D01*
X151900414Y-148000000D02*
X152686128Y-148000000D01*
X151900414Y-148000000D02*
X151757557Y-148071428D01*
X151757557Y-148071428D02*
X151686128Y-148214285D01*
X151686128Y-148214285D02*
X151686128Y-148428571D01*
X151686128Y-148428571D02*
X151757557Y-148571428D01*
X151757557Y-148571428D02*
X151900414Y-148642857D01*
X151900414Y-148642857D02*
X152686128Y-148642857D01*
X152686128Y-149357142D02*
X151686128Y-149357142D01*
X151828985Y-149357142D02*
X151757557Y-149428571D01*
X151757557Y-149428571D02*
X151686128Y-149571428D01*
X151686128Y-149571428D02*
X151686128Y-149785714D01*
X151686128Y-149785714D02*
X151757557Y-149928571D01*
X151757557Y-149928571D02*
X151900414Y-150000000D01*
X151900414Y-150000000D02*
X152686128Y-150000000D01*
X151900414Y-150000000D02*
X151757557Y-150071428D01*
X151757557Y-150071428D02*
X151686128Y-150214285D01*
X151686128Y-150214285D02*
X151686128Y-150428571D01*
X151686128Y-150428571D02*
X151757557Y-150571428D01*
X151757557Y-150571428D02*
X151900414Y-150642857D01*
X151900414Y-150642857D02*
X152686128Y-150642857D01*
X255828985Y-151285714D02*
X255757557Y-151142857D01*
X255757557Y-151142857D02*
X255686128Y-151071428D01*
X255686128Y-151071428D02*
X255543271Y-151000000D01*
X255543271Y-151000000D02*
X255471842Y-151000000D01*
X255471842Y-151000000D02*
X255328985Y-151071428D01*
X255328985Y-151071428D02*
X255257557Y-151142857D01*
X255257557Y-151142857D02*
X255186128Y-151285714D01*
X255186128Y-151285714D02*
X255186128Y-151571428D01*
X255186128Y-151571428D02*
X255257557Y-151714286D01*
X255257557Y-151714286D02*
X255328985Y-151785714D01*
X255328985Y-151785714D02*
X255471842Y-151857143D01*
X255471842Y-151857143D02*
X255543271Y-151857143D01*
X255543271Y-151857143D02*
X255686128Y-151785714D01*
X255686128Y-151785714D02*
X255757557Y-151714286D01*
X255757557Y-151714286D02*
X255828985Y-151571428D01*
X255828985Y-151571428D02*
X255828985Y-151285714D01*
X255828985Y-151285714D02*
X255900414Y-151142857D01*
X255900414Y-151142857D02*
X255971842Y-151071428D01*
X255971842Y-151071428D02*
X256114700Y-151000000D01*
X256114700Y-151000000D02*
X256400414Y-151000000D01*
X256400414Y-151000000D02*
X256543271Y-151071428D01*
X256543271Y-151071428D02*
X256614700Y-151142857D01*
X256614700Y-151142857D02*
X256686128Y-151285714D01*
X256686128Y-151285714D02*
X256686128Y-151571428D01*
X256686128Y-151571428D02*
X256614700Y-151714286D01*
X256614700Y-151714286D02*
X256543271Y-151785714D01*
X256543271Y-151785714D02*
X256400414Y-151857143D01*
X256400414Y-151857143D02*
X256114700Y-151857143D01*
X256114700Y-151857143D02*
X255971842Y-151785714D01*
X255971842Y-151785714D02*
X255900414Y-151714286D01*
X255900414Y-151714286D02*
X255828985Y-151571428D01*
X256686128Y-153642856D02*
X255686128Y-153642856D01*
X255828985Y-153642856D02*
X255757557Y-153714285D01*
X255757557Y-153714285D02*
X255686128Y-153857142D01*
X255686128Y-153857142D02*
X255686128Y-154071428D01*
X255686128Y-154071428D02*
X255757557Y-154214285D01*
X255757557Y-154214285D02*
X255900414Y-154285714D01*
X255900414Y-154285714D02*
X256686128Y-154285714D01*
X255900414Y-154285714D02*
X255757557Y-154357142D01*
X255757557Y-154357142D02*
X255686128Y-154499999D01*
X255686128Y-154499999D02*
X255686128Y-154714285D01*
X255686128Y-154714285D02*
X255757557Y-154857142D01*
X255757557Y-154857142D02*
X255900414Y-154928571D01*
X255900414Y-154928571D02*
X256686128Y-154928571D01*
X256686128Y-155642856D02*
X255686128Y-155642856D01*
X255828985Y-155642856D02*
X255757557Y-155714285D01*
X255757557Y-155714285D02*
X255686128Y-155857142D01*
X255686128Y-155857142D02*
X255686128Y-156071428D01*
X255686128Y-156071428D02*
X255757557Y-156214285D01*
X255757557Y-156214285D02*
X255900414Y-156285714D01*
X255900414Y-156285714D02*
X256686128Y-156285714D01*
X255900414Y-156285714D02*
X255757557Y-156357142D01*
X255757557Y-156357142D02*
X255686128Y-156499999D01*
X255686128Y-156499999D02*
X255686128Y-156714285D01*
X255686128Y-156714285D02*
X255757557Y-156857142D01*
X255757557Y-156857142D02*
X255900414Y-156928571D01*
X255900414Y-156928571D02*
X256686128Y-156928571D01*
X193686128Y-56142858D02*
X193686128Y-55285715D01*
X193686128Y-55714286D02*
X192186128Y-55714286D01*
X192186128Y-55714286D02*
X192400414Y-55571429D01*
X192400414Y-55571429D02*
X192543271Y-55428572D01*
X192543271Y-55428572D02*
X192614700Y-55285715D01*
X192186128Y-57071429D02*
X192186128Y-57214286D01*
X192186128Y-57214286D02*
X192257557Y-57357143D01*
X192257557Y-57357143D02*
X192328985Y-57428572D01*
X192328985Y-57428572D02*
X192471842Y-57500000D01*
X192471842Y-57500000D02*
X192757557Y-57571429D01*
X192757557Y-57571429D02*
X193114700Y-57571429D01*
X193114700Y-57571429D02*
X193400414Y-57500000D01*
X193400414Y-57500000D02*
X193543271Y-57428572D01*
X193543271Y-57428572D02*
X193614700Y-57357143D01*
X193614700Y-57357143D02*
X193686128Y-57214286D01*
X193686128Y-57214286D02*
X193686128Y-57071429D01*
X193686128Y-57071429D02*
X193614700Y-56928572D01*
X193614700Y-56928572D02*
X193543271Y-56857143D01*
X193543271Y-56857143D02*
X193400414Y-56785714D01*
X193400414Y-56785714D02*
X193114700Y-56714286D01*
X193114700Y-56714286D02*
X192757557Y-56714286D01*
X192757557Y-56714286D02*
X192471842Y-56785714D01*
X192471842Y-56785714D02*
X192328985Y-56857143D01*
X192328985Y-56857143D02*
X192257557Y-56928572D01*
X192257557Y-56928572D02*
X192186128Y-57071429D01*
X193686128Y-59357142D02*
X192686128Y-59357142D01*
X192828985Y-59357142D02*
X192757557Y-59428571D01*
X192757557Y-59428571D02*
X192686128Y-59571428D01*
X192686128Y-59571428D02*
X192686128Y-59785714D01*
X192686128Y-59785714D02*
X192757557Y-59928571D01*
X192757557Y-59928571D02*
X192900414Y-60000000D01*
X192900414Y-60000000D02*
X193686128Y-60000000D01*
X192900414Y-60000000D02*
X192757557Y-60071428D01*
X192757557Y-60071428D02*
X192686128Y-60214285D01*
X192686128Y-60214285D02*
X192686128Y-60428571D01*
X192686128Y-60428571D02*
X192757557Y-60571428D01*
X192757557Y-60571428D02*
X192900414Y-60642857D01*
X192900414Y-60642857D02*
X193686128Y-60642857D01*
X193686128Y-61357142D02*
X192686128Y-61357142D01*
X192828985Y-61357142D02*
X192757557Y-61428571D01*
X192757557Y-61428571D02*
X192686128Y-61571428D01*
X192686128Y-61571428D02*
X192686128Y-61785714D01*
X192686128Y-61785714D02*
X192757557Y-61928571D01*
X192757557Y-61928571D02*
X192900414Y-62000000D01*
X192900414Y-62000000D02*
X193686128Y-62000000D01*
X192900414Y-62000000D02*
X192757557Y-62071428D01*
X192757557Y-62071428D02*
X192686128Y-62214285D01*
X192686128Y-62214285D02*
X192686128Y-62428571D01*
X192686128Y-62428571D02*
X192757557Y-62571428D01*
X192757557Y-62571428D02*
X192900414Y-62642857D01*
X192900414Y-62642857D02*
X193686128Y-62642857D01*
X258828985Y-101285714D02*
X258757557Y-101142857D01*
X258757557Y-101142857D02*
X258686128Y-101071428D01*
X258686128Y-101071428D02*
X258543271Y-101000000D01*
X258543271Y-101000000D02*
X258471842Y-101000000D01*
X258471842Y-101000000D02*
X258328985Y-101071428D01*
X258328985Y-101071428D02*
X258257557Y-101142857D01*
X258257557Y-101142857D02*
X258186128Y-101285714D01*
X258186128Y-101285714D02*
X258186128Y-101571428D01*
X258186128Y-101571428D02*
X258257557Y-101714286D01*
X258257557Y-101714286D02*
X258328985Y-101785714D01*
X258328985Y-101785714D02*
X258471842Y-101857143D01*
X258471842Y-101857143D02*
X258543271Y-101857143D01*
X258543271Y-101857143D02*
X258686128Y-101785714D01*
X258686128Y-101785714D02*
X258757557Y-101714286D01*
X258757557Y-101714286D02*
X258828985Y-101571428D01*
X258828985Y-101571428D02*
X258828985Y-101285714D01*
X258828985Y-101285714D02*
X258900414Y-101142857D01*
X258900414Y-101142857D02*
X258971842Y-101071428D01*
X258971842Y-101071428D02*
X259114700Y-101000000D01*
X259114700Y-101000000D02*
X259400414Y-101000000D01*
X259400414Y-101000000D02*
X259543271Y-101071428D01*
X259543271Y-101071428D02*
X259614700Y-101142857D01*
X259614700Y-101142857D02*
X259686128Y-101285714D01*
X259686128Y-101285714D02*
X259686128Y-101571428D01*
X259686128Y-101571428D02*
X259614700Y-101714286D01*
X259614700Y-101714286D02*
X259543271Y-101785714D01*
X259543271Y-101785714D02*
X259400414Y-101857143D01*
X259400414Y-101857143D02*
X259114700Y-101857143D01*
X259114700Y-101857143D02*
X258971842Y-101785714D01*
X258971842Y-101785714D02*
X258900414Y-101714286D01*
X258900414Y-101714286D02*
X258828985Y-101571428D01*
X259686128Y-103642856D02*
X258686128Y-103642856D01*
X258828985Y-103642856D02*
X258757557Y-103714285D01*
X258757557Y-103714285D02*
X258686128Y-103857142D01*
X258686128Y-103857142D02*
X258686128Y-104071428D01*
X258686128Y-104071428D02*
X258757557Y-104214285D01*
X258757557Y-104214285D02*
X258900414Y-104285714D01*
X258900414Y-104285714D02*
X259686128Y-104285714D01*
X258900414Y-104285714D02*
X258757557Y-104357142D01*
X258757557Y-104357142D02*
X258686128Y-104499999D01*
X258686128Y-104499999D02*
X258686128Y-104714285D01*
X258686128Y-104714285D02*
X258757557Y-104857142D01*
X258757557Y-104857142D02*
X258900414Y-104928571D01*
X258900414Y-104928571D02*
X259686128Y-104928571D01*
X259686128Y-105642856D02*
X258686128Y-105642856D01*
X258828985Y-105642856D02*
X258757557Y-105714285D01*
X258757557Y-105714285D02*
X258686128Y-105857142D01*
X258686128Y-105857142D02*
X258686128Y-106071428D01*
X258686128Y-106071428D02*
X258757557Y-106214285D01*
X258757557Y-106214285D02*
X258900414Y-106285714D01*
X258900414Y-106285714D02*
X259686128Y-106285714D01*
X258900414Y-106285714D02*
X258757557Y-106357142D01*
X258757557Y-106357142D02*
X258686128Y-106499999D01*
X258686128Y-106499999D02*
X258686128Y-106714285D01*
X258686128Y-106714285D02*
X258757557Y-106857142D01*
X258757557Y-106857142D02*
X258900414Y-106928571D01*
X258900414Y-106928571D02*
X259686128Y-106928571D01*
X173686128Y-54142858D02*
X173686128Y-53285715D01*
X173686128Y-53714286D02*
X172186128Y-53714286D01*
X172186128Y-53714286D02*
X172400414Y-53571429D01*
X172400414Y-53571429D02*
X172543271Y-53428572D01*
X172543271Y-53428572D02*
X172614700Y-53285715D01*
X172328985Y-54714286D02*
X172257557Y-54785714D01*
X172257557Y-54785714D02*
X172186128Y-54928572D01*
X172186128Y-54928572D02*
X172186128Y-55285714D01*
X172186128Y-55285714D02*
X172257557Y-55428572D01*
X172257557Y-55428572D02*
X172328985Y-55500000D01*
X172328985Y-55500000D02*
X172471842Y-55571429D01*
X172471842Y-55571429D02*
X172614700Y-55571429D01*
X172614700Y-55571429D02*
X172828985Y-55500000D01*
X172828985Y-55500000D02*
X173686128Y-54642857D01*
X173686128Y-54642857D02*
X173686128Y-55571429D01*
X173686128Y-57357142D02*
X172686128Y-57357142D01*
X172828985Y-57357142D02*
X172757557Y-57428571D01*
X172757557Y-57428571D02*
X172686128Y-57571428D01*
X172686128Y-57571428D02*
X172686128Y-57785714D01*
X172686128Y-57785714D02*
X172757557Y-57928571D01*
X172757557Y-57928571D02*
X172900414Y-58000000D01*
X172900414Y-58000000D02*
X173686128Y-58000000D01*
X172900414Y-58000000D02*
X172757557Y-58071428D01*
X172757557Y-58071428D02*
X172686128Y-58214285D01*
X172686128Y-58214285D02*
X172686128Y-58428571D01*
X172686128Y-58428571D02*
X172757557Y-58571428D01*
X172757557Y-58571428D02*
X172900414Y-58642857D01*
X172900414Y-58642857D02*
X173686128Y-58642857D01*
X173686128Y-59357142D02*
X172686128Y-59357142D01*
X172828985Y-59357142D02*
X172757557Y-59428571D01*
X172757557Y-59428571D02*
X172686128Y-59571428D01*
X172686128Y-59571428D02*
X172686128Y-59785714D01*
X172686128Y-59785714D02*
X172757557Y-59928571D01*
X172757557Y-59928571D02*
X172900414Y-60000000D01*
X172900414Y-60000000D02*
X173686128Y-60000000D01*
X172900414Y-60000000D02*
X172757557Y-60071428D01*
X172757557Y-60071428D02*
X172686128Y-60214285D01*
X172686128Y-60214285D02*
X172686128Y-60428571D01*
X172686128Y-60428571D02*
X172757557Y-60571428D01*
X172757557Y-60571428D02*
X172900414Y-60642857D01*
X172900414Y-60642857D02*
X173686128Y-60642857D01*
X152186128Y-94214286D02*
X152186128Y-95142858D01*
X152186128Y-95142858D02*
X152757557Y-94642858D01*
X152757557Y-94642858D02*
X152757557Y-94857143D01*
X152757557Y-94857143D02*
X152828985Y-95000001D01*
X152828985Y-95000001D02*
X152900414Y-95071429D01*
X152900414Y-95071429D02*
X153043271Y-95142858D01*
X153043271Y-95142858D02*
X153400414Y-95142858D01*
X153400414Y-95142858D02*
X153543271Y-95071429D01*
X153543271Y-95071429D02*
X153614700Y-95000001D01*
X153614700Y-95000001D02*
X153686128Y-94857143D01*
X153686128Y-94857143D02*
X153686128Y-94428572D01*
X153686128Y-94428572D02*
X153614700Y-94285715D01*
X153614700Y-94285715D02*
X153543271Y-94214286D01*
X152186128Y-96071429D02*
X152186128Y-96214286D01*
X152186128Y-96214286D02*
X152257557Y-96357143D01*
X152257557Y-96357143D02*
X152328985Y-96428572D01*
X152328985Y-96428572D02*
X152471842Y-96500000D01*
X152471842Y-96500000D02*
X152757557Y-96571429D01*
X152757557Y-96571429D02*
X153114700Y-96571429D01*
X153114700Y-96571429D02*
X153400414Y-96500000D01*
X153400414Y-96500000D02*
X153543271Y-96428572D01*
X153543271Y-96428572D02*
X153614700Y-96357143D01*
X153614700Y-96357143D02*
X153686128Y-96214286D01*
X153686128Y-96214286D02*
X153686128Y-96071429D01*
X153686128Y-96071429D02*
X153614700Y-95928572D01*
X153614700Y-95928572D02*
X153543271Y-95857143D01*
X153543271Y-95857143D02*
X153400414Y-95785714D01*
X153400414Y-95785714D02*
X153114700Y-95714286D01*
X153114700Y-95714286D02*
X152757557Y-95714286D01*
X152757557Y-95714286D02*
X152471842Y-95785714D01*
X152471842Y-95785714D02*
X152328985Y-95857143D01*
X152328985Y-95857143D02*
X152257557Y-95928572D01*
X152257557Y-95928572D02*
X152186128Y-96071429D01*
X153686128Y-98357142D02*
X152686128Y-98357142D01*
X152828985Y-98357142D02*
X152757557Y-98428571D01*
X152757557Y-98428571D02*
X152686128Y-98571428D01*
X152686128Y-98571428D02*
X152686128Y-98785714D01*
X152686128Y-98785714D02*
X152757557Y-98928571D01*
X152757557Y-98928571D02*
X152900414Y-99000000D01*
X152900414Y-99000000D02*
X153686128Y-99000000D01*
X152900414Y-99000000D02*
X152757557Y-99071428D01*
X152757557Y-99071428D02*
X152686128Y-99214285D01*
X152686128Y-99214285D02*
X152686128Y-99428571D01*
X152686128Y-99428571D02*
X152757557Y-99571428D01*
X152757557Y-99571428D02*
X152900414Y-99642857D01*
X152900414Y-99642857D02*
X153686128Y-99642857D01*
X153686128Y-100357142D02*
X152686128Y-100357142D01*
X152828985Y-100357142D02*
X152757557Y-100428571D01*
X152757557Y-100428571D02*
X152686128Y-100571428D01*
X152686128Y-100571428D02*
X152686128Y-100785714D01*
X152686128Y-100785714D02*
X152757557Y-100928571D01*
X152757557Y-100928571D02*
X152900414Y-101000000D01*
X152900414Y-101000000D02*
X153686128Y-101000000D01*
X152900414Y-101000000D02*
X152757557Y-101071428D01*
X152757557Y-101071428D02*
X152686128Y-101214285D01*
X152686128Y-101214285D02*
X152686128Y-101428571D01*
X152686128Y-101428571D02*
X152757557Y-101571428D01*
X152757557Y-101571428D02*
X152900414Y-101642857D01*
X152900414Y-101642857D02*
X153686128Y-101642857D01*
X193686128Y-148142858D02*
X193686128Y-147285715D01*
X193686128Y-147714286D02*
X192186128Y-147714286D01*
X192186128Y-147714286D02*
X192400414Y-147571429D01*
X192400414Y-147571429D02*
X192543271Y-147428572D01*
X192543271Y-147428572D02*
X192614700Y-147285715D01*
X192328985Y-148714286D02*
X192257557Y-148785714D01*
X192257557Y-148785714D02*
X192186128Y-148928572D01*
X192186128Y-148928572D02*
X192186128Y-149285714D01*
X192186128Y-149285714D02*
X192257557Y-149428572D01*
X192257557Y-149428572D02*
X192328985Y-149500000D01*
X192328985Y-149500000D02*
X192471842Y-149571429D01*
X192471842Y-149571429D02*
X192614700Y-149571429D01*
X192614700Y-149571429D02*
X192828985Y-149500000D01*
X192828985Y-149500000D02*
X193686128Y-148642857D01*
X193686128Y-148642857D02*
X193686128Y-149571429D01*
X193686128Y-151357142D02*
X192686128Y-151357142D01*
X192828985Y-151357142D02*
X192757557Y-151428571D01*
X192757557Y-151428571D02*
X192686128Y-151571428D01*
X192686128Y-151571428D02*
X192686128Y-151785714D01*
X192686128Y-151785714D02*
X192757557Y-151928571D01*
X192757557Y-151928571D02*
X192900414Y-152000000D01*
X192900414Y-152000000D02*
X193686128Y-152000000D01*
X192900414Y-152000000D02*
X192757557Y-152071428D01*
X192757557Y-152071428D02*
X192686128Y-152214285D01*
X192686128Y-152214285D02*
X192686128Y-152428571D01*
X192686128Y-152428571D02*
X192757557Y-152571428D01*
X192757557Y-152571428D02*
X192900414Y-152642857D01*
X192900414Y-152642857D02*
X193686128Y-152642857D01*
X193686128Y-153357142D02*
X192686128Y-153357142D01*
X192828985Y-153357142D02*
X192757557Y-153428571D01*
X192757557Y-153428571D02*
X192686128Y-153571428D01*
X192686128Y-153571428D02*
X192686128Y-153785714D01*
X192686128Y-153785714D02*
X192757557Y-153928571D01*
X192757557Y-153928571D02*
X192900414Y-154000000D01*
X192900414Y-154000000D02*
X193686128Y-154000000D01*
X192900414Y-154000000D02*
X192757557Y-154071428D01*
X192757557Y-154071428D02*
X192686128Y-154214285D01*
X192686128Y-154214285D02*
X192686128Y-154428571D01*
X192686128Y-154428571D02*
X192757557Y-154571428D01*
X192757557Y-154571428D02*
X192900414Y-154642857D01*
X192900414Y-154642857D02*
X193686128Y-154642857D01*
X72686128Y-76000001D02*
X73686128Y-76000001D01*
X72114700Y-75642858D02*
X73186128Y-75285715D01*
X73186128Y-75285715D02*
X73186128Y-76214286D01*
X72186128Y-77071429D02*
X72186128Y-77214286D01*
X72186128Y-77214286D02*
X72257557Y-77357143D01*
X72257557Y-77357143D02*
X72328985Y-77428572D01*
X72328985Y-77428572D02*
X72471842Y-77500000D01*
X72471842Y-77500000D02*
X72757557Y-77571429D01*
X72757557Y-77571429D02*
X73114700Y-77571429D01*
X73114700Y-77571429D02*
X73400414Y-77500000D01*
X73400414Y-77500000D02*
X73543271Y-77428572D01*
X73543271Y-77428572D02*
X73614700Y-77357143D01*
X73614700Y-77357143D02*
X73686128Y-77214286D01*
X73686128Y-77214286D02*
X73686128Y-77071429D01*
X73686128Y-77071429D02*
X73614700Y-76928572D01*
X73614700Y-76928572D02*
X73543271Y-76857143D01*
X73543271Y-76857143D02*
X73400414Y-76785714D01*
X73400414Y-76785714D02*
X73114700Y-76714286D01*
X73114700Y-76714286D02*
X72757557Y-76714286D01*
X72757557Y-76714286D02*
X72471842Y-76785714D01*
X72471842Y-76785714D02*
X72328985Y-76857143D01*
X72328985Y-76857143D02*
X72257557Y-76928572D01*
X72257557Y-76928572D02*
X72186128Y-77071429D01*
X73686128Y-79357142D02*
X72686128Y-79357142D01*
X72828985Y-79357142D02*
X72757557Y-79428571D01*
X72757557Y-79428571D02*
X72686128Y-79571428D01*
X72686128Y-79571428D02*
X72686128Y-79785714D01*
X72686128Y-79785714D02*
X72757557Y-79928571D01*
X72757557Y-79928571D02*
X72900414Y-80000000D01*
X72900414Y-80000000D02*
X73686128Y-80000000D01*
X72900414Y-80000000D02*
X72757557Y-80071428D01*
X72757557Y-80071428D02*
X72686128Y-80214285D01*
X72686128Y-80214285D02*
X72686128Y-80428571D01*
X72686128Y-80428571D02*
X72757557Y-80571428D01*
X72757557Y-80571428D02*
X72900414Y-80642857D01*
X72900414Y-80642857D02*
X73686128Y-80642857D01*
X73686128Y-81357142D02*
X72686128Y-81357142D01*
X72828985Y-81357142D02*
X72757557Y-81428571D01*
X72757557Y-81428571D02*
X72686128Y-81571428D01*
X72686128Y-81571428D02*
X72686128Y-81785714D01*
X72686128Y-81785714D02*
X72757557Y-81928571D01*
X72757557Y-81928571D02*
X72900414Y-82000000D01*
X72900414Y-82000000D02*
X73686128Y-82000000D01*
X72900414Y-82000000D02*
X72757557Y-82071428D01*
X72757557Y-82071428D02*
X72686128Y-82214285D01*
X72686128Y-82214285D02*
X72686128Y-82428571D01*
X72686128Y-82428571D02*
X72757557Y-82571428D01*
X72757557Y-82571428D02*
X72900414Y-82642857D01*
X72900414Y-82642857D02*
X73686128Y-82642857D01*
X72686128Y-42000001D02*
X73686128Y-42000001D01*
X72114700Y-41642858D02*
X73186128Y-41285715D01*
X73186128Y-41285715D02*
X73186128Y-42214286D01*
X72186128Y-43071429D02*
X72186128Y-43214286D01*
X72186128Y-43214286D02*
X72257557Y-43357143D01*
X72257557Y-43357143D02*
X72328985Y-43428572D01*
X72328985Y-43428572D02*
X72471842Y-43500000D01*
X72471842Y-43500000D02*
X72757557Y-43571429D01*
X72757557Y-43571429D02*
X73114700Y-43571429D01*
X73114700Y-43571429D02*
X73400414Y-43500000D01*
X73400414Y-43500000D02*
X73543271Y-43428572D01*
X73543271Y-43428572D02*
X73614700Y-43357143D01*
X73614700Y-43357143D02*
X73686128Y-43214286D01*
X73686128Y-43214286D02*
X73686128Y-43071429D01*
X73686128Y-43071429D02*
X73614700Y-42928572D01*
X73614700Y-42928572D02*
X73543271Y-42857143D01*
X73543271Y-42857143D02*
X73400414Y-42785714D01*
X73400414Y-42785714D02*
X73114700Y-42714286D01*
X73114700Y-42714286D02*
X72757557Y-42714286D01*
X72757557Y-42714286D02*
X72471842Y-42785714D01*
X72471842Y-42785714D02*
X72328985Y-42857143D01*
X72328985Y-42857143D02*
X72257557Y-42928572D01*
X72257557Y-42928572D02*
X72186128Y-43071429D01*
X73686128Y-45357142D02*
X72686128Y-45357142D01*
X72828985Y-45357142D02*
X72757557Y-45428571D01*
X72757557Y-45428571D02*
X72686128Y-45571428D01*
X72686128Y-45571428D02*
X72686128Y-45785714D01*
X72686128Y-45785714D02*
X72757557Y-45928571D01*
X72757557Y-45928571D02*
X72900414Y-46000000D01*
X72900414Y-46000000D02*
X73686128Y-46000000D01*
X72900414Y-46000000D02*
X72757557Y-46071428D01*
X72757557Y-46071428D02*
X72686128Y-46214285D01*
X72686128Y-46214285D02*
X72686128Y-46428571D01*
X72686128Y-46428571D02*
X72757557Y-46571428D01*
X72757557Y-46571428D02*
X72900414Y-46642857D01*
X72900414Y-46642857D02*
X73686128Y-46642857D01*
X73686128Y-47357142D02*
X72686128Y-47357142D01*
X72828985Y-47357142D02*
X72757557Y-47428571D01*
X72757557Y-47428571D02*
X72686128Y-47571428D01*
X72686128Y-47571428D02*
X72686128Y-47785714D01*
X72686128Y-47785714D02*
X72757557Y-47928571D01*
X72757557Y-47928571D02*
X72900414Y-48000000D01*
X72900414Y-48000000D02*
X73686128Y-48000000D01*
X72900414Y-48000000D02*
X72757557Y-48071428D01*
X72757557Y-48071428D02*
X72686128Y-48214285D01*
X72686128Y-48214285D02*
X72686128Y-48428571D01*
X72686128Y-48428571D02*
X72757557Y-48571428D01*
X72757557Y-48571428D02*
X72900414Y-48642857D01*
X72900414Y-48642857D02*
X73686128Y-48642857D01*
D10*
X78194862Y-152606857D02*
X78194862Y-149606857D01*
X78194862Y-149606857D02*
X77718672Y-149606857D01*
X77718672Y-149606857D02*
X77432957Y-149749714D01*
X77432957Y-149749714D02*
X77242481Y-150035428D01*
X77242481Y-150035428D02*
X77147243Y-150321142D01*
X77147243Y-150321142D02*
X77052005Y-150892571D01*
X77052005Y-150892571D02*
X77052005Y-151321142D01*
X77052005Y-151321142D02*
X77147243Y-151892571D01*
X77147243Y-151892571D02*
X77242481Y-152178285D01*
X77242481Y-152178285D02*
X77432957Y-152464000D01*
X77432957Y-152464000D02*
X77718672Y-152606857D01*
X77718672Y-152606857D02*
X78194862Y-152606857D01*
X76194862Y-152606857D02*
X76194862Y-149606857D01*
X75337719Y-152464000D02*
X75052005Y-152606857D01*
X75052005Y-152606857D02*
X74575814Y-152606857D01*
X74575814Y-152606857D02*
X74385338Y-152464000D01*
X74385338Y-152464000D02*
X74290100Y-152321142D01*
X74290100Y-152321142D02*
X74194862Y-152035428D01*
X74194862Y-152035428D02*
X74194862Y-151749714D01*
X74194862Y-151749714D02*
X74290100Y-151464000D01*
X74290100Y-151464000D02*
X74385338Y-151321142D01*
X74385338Y-151321142D02*
X74575814Y-151178285D01*
X74575814Y-151178285D02*
X74956767Y-151035428D01*
X74956767Y-151035428D02*
X75147243Y-150892571D01*
X75147243Y-150892571D02*
X75242481Y-150749714D01*
X75242481Y-150749714D02*
X75337719Y-150464000D01*
X75337719Y-150464000D02*
X75337719Y-150178285D01*
X75337719Y-150178285D02*
X75242481Y-149892571D01*
X75242481Y-149892571D02*
X75147243Y-149749714D01*
X75147243Y-149749714D02*
X74956767Y-149606857D01*
X74956767Y-149606857D02*
X74480576Y-149606857D01*
X74480576Y-149606857D02*
X74194862Y-149749714D01*
X73623433Y-149606857D02*
X72480576Y-149606857D01*
X73052005Y-152606857D02*
X73052005Y-149606857D01*
X71909147Y-151749714D02*
X70956766Y-151749714D01*
X72099623Y-152606857D02*
X71432957Y-149606857D01*
X71432957Y-149606857D02*
X70766290Y-152606857D01*
X70099623Y-152606857D02*
X70099623Y-149606857D01*
X70099623Y-149606857D02*
X68956766Y-152606857D01*
X68956766Y-152606857D02*
X68956766Y-149606857D01*
X66861528Y-152321142D02*
X66956766Y-152464000D01*
X66956766Y-152464000D02*
X67242480Y-152606857D01*
X67242480Y-152606857D02*
X67432956Y-152606857D01*
X67432956Y-152606857D02*
X67718671Y-152464000D01*
X67718671Y-152464000D02*
X67909147Y-152178285D01*
X67909147Y-152178285D02*
X68004385Y-151892571D01*
X68004385Y-151892571D02*
X68099623Y-151321142D01*
X68099623Y-151321142D02*
X68099623Y-150892571D01*
X68099623Y-150892571D02*
X68004385Y-150321142D01*
X68004385Y-150321142D02*
X67909147Y-150035428D01*
X67909147Y-150035428D02*
X67718671Y-149749714D01*
X67718671Y-149749714D02*
X67432956Y-149606857D01*
X67432956Y-149606857D02*
X67242480Y-149606857D01*
X67242480Y-149606857D02*
X66956766Y-149749714D01*
X66956766Y-149749714D02*
X66861528Y-149892571D01*
X66004385Y-152606857D02*
X66004385Y-149606857D01*
X65147242Y-151749714D02*
X64194861Y-151749714D01*
X65337718Y-152606857D02*
X64671052Y-149606857D01*
X64671052Y-149606857D02*
X64004385Y-152606857D01*
X63432956Y-152464000D02*
X63147242Y-152606857D01*
X63147242Y-152606857D02*
X62671051Y-152606857D01*
X62671051Y-152606857D02*
X62480575Y-152464000D01*
X62480575Y-152464000D02*
X62385337Y-152321142D01*
X62385337Y-152321142D02*
X62290099Y-152035428D01*
X62290099Y-152035428D02*
X62290099Y-151749714D01*
X62290099Y-151749714D02*
X62385337Y-151464000D01*
X62385337Y-151464000D02*
X62480575Y-151321142D01*
X62480575Y-151321142D02*
X62671051Y-151178285D01*
X62671051Y-151178285D02*
X63052004Y-151035428D01*
X63052004Y-151035428D02*
X63242480Y-150892571D01*
X63242480Y-150892571D02*
X63337718Y-150749714D01*
X63337718Y-150749714D02*
X63432956Y-150464000D01*
X63432956Y-150464000D02*
X63432956Y-150178285D01*
X63432956Y-150178285D02*
X63337718Y-149892571D01*
X63337718Y-149892571D02*
X63242480Y-149749714D01*
X63242480Y-149749714D02*
X63052004Y-149606857D01*
X63052004Y-149606857D02*
X62575813Y-149606857D01*
X62575813Y-149606857D02*
X62290099Y-149749714D01*
X59909146Y-152606857D02*
X59909146Y-149606857D01*
X59909146Y-149606857D02*
X59242479Y-151749714D01*
X59242479Y-151749714D02*
X58575813Y-149606857D01*
X58575813Y-149606857D02*
X58575813Y-152606857D01*
X57623432Y-152606857D02*
X57623432Y-149606857D01*
X57432956Y-148464000D02*
X57718670Y-148892571D01*
X56671051Y-152606857D02*
X56671051Y-149606857D01*
X56671051Y-149606857D02*
X55528194Y-152606857D01*
X55528194Y-152606857D02*
X55528194Y-149606857D01*
X54575813Y-152606857D02*
X54575813Y-149606857D01*
X53623432Y-152606857D02*
X53623432Y-149606857D01*
X53623432Y-149606857D02*
X52956765Y-151749714D01*
X52956765Y-151749714D02*
X52290099Y-149606857D01*
X52290099Y-149606857D02*
X52290099Y-152606857D01*
X51432956Y-151749714D02*
X50480575Y-151749714D01*
X51623432Y-152606857D02*
X50956766Y-149606857D01*
X50956766Y-149606857D02*
X50290099Y-152606857D01*
X49718670Y-152464000D02*
X49432956Y-152606857D01*
X49432956Y-152606857D02*
X48956765Y-152606857D01*
X48956765Y-152606857D02*
X48766289Y-152464000D01*
X48766289Y-152464000D02*
X48671051Y-152321142D01*
X48671051Y-152321142D02*
X48575813Y-152035428D01*
X48575813Y-152035428D02*
X48575813Y-151749714D01*
X48575813Y-151749714D02*
X48671051Y-151464000D01*
X48671051Y-151464000D02*
X48766289Y-151321142D01*
X48766289Y-151321142D02*
X48956765Y-151178285D01*
X48956765Y-151178285D02*
X49337718Y-151035428D01*
X49337718Y-151035428D02*
X49528194Y-150892571D01*
X49528194Y-150892571D02*
X49623432Y-150749714D01*
X49623432Y-150749714D02*
X49718670Y-150464000D01*
X49718670Y-150464000D02*
X49718670Y-150178285D01*
X49718670Y-150178285D02*
X49623432Y-149892571D01*
X49623432Y-149892571D02*
X49528194Y-149749714D01*
X49528194Y-149749714D02*
X49337718Y-149606857D01*
X49337718Y-149606857D02*
X48861527Y-149606857D01*
X48861527Y-149606857D02*
X48575813Y-149749714D01*
D11*
X252828985Y-57285714D02*
X252757557Y-57142857D01*
X252757557Y-57142857D02*
X252686128Y-57071428D01*
X252686128Y-57071428D02*
X252543271Y-57000000D01*
X252543271Y-57000000D02*
X252471842Y-57000000D01*
X252471842Y-57000000D02*
X252328985Y-57071428D01*
X252328985Y-57071428D02*
X252257557Y-57142857D01*
X252257557Y-57142857D02*
X252186128Y-57285714D01*
X252186128Y-57285714D02*
X252186128Y-57571428D01*
X252186128Y-57571428D02*
X252257557Y-57714286D01*
X252257557Y-57714286D02*
X252328985Y-57785714D01*
X252328985Y-57785714D02*
X252471842Y-57857143D01*
X252471842Y-57857143D02*
X252543271Y-57857143D01*
X252543271Y-57857143D02*
X252686128Y-57785714D01*
X252686128Y-57785714D02*
X252757557Y-57714286D01*
X252757557Y-57714286D02*
X252828985Y-57571428D01*
X252828985Y-57571428D02*
X252828985Y-57285714D01*
X252828985Y-57285714D02*
X252900414Y-57142857D01*
X252900414Y-57142857D02*
X252971842Y-57071428D01*
X252971842Y-57071428D02*
X253114700Y-57000000D01*
X253114700Y-57000000D02*
X253400414Y-57000000D01*
X253400414Y-57000000D02*
X253543271Y-57071428D01*
X253543271Y-57071428D02*
X253614700Y-57142857D01*
X253614700Y-57142857D02*
X253686128Y-57285714D01*
X253686128Y-57285714D02*
X253686128Y-57571428D01*
X253686128Y-57571428D02*
X253614700Y-57714286D01*
X253614700Y-57714286D02*
X253543271Y-57785714D01*
X253543271Y-57785714D02*
X253400414Y-57857143D01*
X253400414Y-57857143D02*
X253114700Y-57857143D01*
X253114700Y-57857143D02*
X252971842Y-57785714D01*
X252971842Y-57785714D02*
X252900414Y-57714286D01*
X252900414Y-57714286D02*
X252828985Y-57571428D01*
X253686128Y-59642856D02*
X252686128Y-59642856D01*
X252828985Y-59642856D02*
X252757557Y-59714285D01*
X252757557Y-59714285D02*
X252686128Y-59857142D01*
X252686128Y-59857142D02*
X252686128Y-60071428D01*
X252686128Y-60071428D02*
X252757557Y-60214285D01*
X252757557Y-60214285D02*
X252900414Y-60285714D01*
X252900414Y-60285714D02*
X253686128Y-60285714D01*
X252900414Y-60285714D02*
X252757557Y-60357142D01*
X252757557Y-60357142D02*
X252686128Y-60499999D01*
X252686128Y-60499999D02*
X252686128Y-60714285D01*
X252686128Y-60714285D02*
X252757557Y-60857142D01*
X252757557Y-60857142D02*
X252900414Y-60928571D01*
X252900414Y-60928571D02*
X253686128Y-60928571D01*
X253686128Y-61642856D02*
X252686128Y-61642856D01*
X252828985Y-61642856D02*
X252757557Y-61714285D01*
X252757557Y-61714285D02*
X252686128Y-61857142D01*
X252686128Y-61857142D02*
X252686128Y-62071428D01*
X252686128Y-62071428D02*
X252757557Y-62214285D01*
X252757557Y-62214285D02*
X252900414Y-62285714D01*
X252900414Y-62285714D02*
X253686128Y-62285714D01*
X252900414Y-62285714D02*
X252757557Y-62357142D01*
X252757557Y-62357142D02*
X252686128Y-62499999D01*
X252686128Y-62499999D02*
X252686128Y-62714285D01*
X252686128Y-62714285D02*
X252757557Y-62857142D01*
X252757557Y-62857142D02*
X252900414Y-62928571D01*
X252900414Y-62928571D02*
X253686128Y-62928571D01*
X266857141Y-152686128D02*
X267714284Y-152686128D01*
X267285713Y-152686128D02*
X267285713Y-151186128D01*
X267285713Y-151186128D02*
X267428570Y-151400414D01*
X267428570Y-151400414D02*
X267571427Y-151543271D01*
X267571427Y-151543271D02*
X267714284Y-151614700D01*
X265499999Y-151186128D02*
X266214285Y-151186128D01*
X266214285Y-151186128D02*
X266285713Y-151900414D01*
X266285713Y-151900414D02*
X266214285Y-151828985D01*
X266214285Y-151828985D02*
X266071428Y-151757557D01*
X266071428Y-151757557D02*
X265714285Y-151757557D01*
X265714285Y-151757557D02*
X265571428Y-151828985D01*
X265571428Y-151828985D02*
X265499999Y-151900414D01*
X265499999Y-151900414D02*
X265428570Y-152043271D01*
X265428570Y-152043271D02*
X265428570Y-152400414D01*
X265428570Y-152400414D02*
X265499999Y-152543271D01*
X265499999Y-152543271D02*
X265571428Y-152614700D01*
X265571428Y-152614700D02*
X265714285Y-152686128D01*
X265714285Y-152686128D02*
X266071428Y-152686128D01*
X266071428Y-152686128D02*
X266214285Y-152614700D01*
X266214285Y-152614700D02*
X266285713Y-152543271D01*
X263642857Y-152686128D02*
X263642857Y-151686128D01*
X263642857Y-151828985D02*
X263571428Y-151757557D01*
X263571428Y-151757557D02*
X263428571Y-151686128D01*
X263428571Y-151686128D02*
X263214285Y-151686128D01*
X263214285Y-151686128D02*
X263071428Y-151757557D01*
X263071428Y-151757557D02*
X263000000Y-151900414D01*
X263000000Y-151900414D02*
X263000000Y-152686128D01*
X263000000Y-151900414D02*
X262928571Y-151757557D01*
X262928571Y-151757557D02*
X262785714Y-151686128D01*
X262785714Y-151686128D02*
X262571428Y-151686128D01*
X262571428Y-151686128D02*
X262428571Y-151757557D01*
X262428571Y-151757557D02*
X262357142Y-151900414D01*
X262357142Y-151900414D02*
X262357142Y-152686128D01*
X261642857Y-152686128D02*
X261642857Y-151686128D01*
X261642857Y-151828985D02*
X261571428Y-151757557D01*
X261571428Y-151757557D02*
X261428571Y-151686128D01*
X261428571Y-151686128D02*
X261214285Y-151686128D01*
X261214285Y-151686128D02*
X261071428Y-151757557D01*
X261071428Y-151757557D02*
X261000000Y-151900414D01*
X261000000Y-151900414D02*
X261000000Y-152686128D01*
X261000000Y-151900414D02*
X260928571Y-151757557D01*
X260928571Y-151757557D02*
X260785714Y-151686128D01*
X260785714Y-151686128D02*
X260571428Y-151686128D01*
X260571428Y-151686128D02*
X260428571Y-151757557D01*
X260428571Y-151757557D02*
X260357142Y-151900414D01*
X260357142Y-151900414D02*
X260357142Y-152686128D01*
X256857141Y-102686128D02*
X257714284Y-102686128D01*
X257285713Y-102686128D02*
X257285713Y-101186128D01*
X257285713Y-101186128D02*
X257428570Y-101400414D01*
X257428570Y-101400414D02*
X257571427Y-101543271D01*
X257571427Y-101543271D02*
X257714284Y-101614700D01*
X255928570Y-101186128D02*
X255785713Y-101186128D01*
X255785713Y-101186128D02*
X255642856Y-101257557D01*
X255642856Y-101257557D02*
X255571428Y-101328985D01*
X255571428Y-101328985D02*
X255499999Y-101471842D01*
X255499999Y-101471842D02*
X255428570Y-101757557D01*
X255428570Y-101757557D02*
X255428570Y-102114700D01*
X255428570Y-102114700D02*
X255499999Y-102400414D01*
X255499999Y-102400414D02*
X255571428Y-102543271D01*
X255571428Y-102543271D02*
X255642856Y-102614700D01*
X255642856Y-102614700D02*
X255785713Y-102686128D01*
X255785713Y-102686128D02*
X255928570Y-102686128D01*
X255928570Y-102686128D02*
X256071428Y-102614700D01*
X256071428Y-102614700D02*
X256142856Y-102543271D01*
X256142856Y-102543271D02*
X256214285Y-102400414D01*
X256214285Y-102400414D02*
X256285713Y-102114700D01*
X256285713Y-102114700D02*
X256285713Y-101757557D01*
X256285713Y-101757557D02*
X256214285Y-101471842D01*
X256214285Y-101471842D02*
X256142856Y-101328985D01*
X256142856Y-101328985D02*
X256071428Y-101257557D01*
X256071428Y-101257557D02*
X255928570Y-101186128D01*
X253642857Y-102686128D02*
X253642857Y-101686128D01*
X253642857Y-101828985D02*
X253571428Y-101757557D01*
X253571428Y-101757557D02*
X253428571Y-101686128D01*
X253428571Y-101686128D02*
X253214285Y-101686128D01*
X253214285Y-101686128D02*
X253071428Y-101757557D01*
X253071428Y-101757557D02*
X253000000Y-101900414D01*
X253000000Y-101900414D02*
X253000000Y-102686128D01*
X253000000Y-101900414D02*
X252928571Y-101757557D01*
X252928571Y-101757557D02*
X252785714Y-101686128D01*
X252785714Y-101686128D02*
X252571428Y-101686128D01*
X252571428Y-101686128D02*
X252428571Y-101757557D01*
X252428571Y-101757557D02*
X252357142Y-101900414D01*
X252357142Y-101900414D02*
X252357142Y-102686128D01*
X251642857Y-102686128D02*
X251642857Y-101686128D01*
X251642857Y-101828985D02*
X251571428Y-101757557D01*
X251571428Y-101757557D02*
X251428571Y-101686128D01*
X251428571Y-101686128D02*
X251214285Y-101686128D01*
X251214285Y-101686128D02*
X251071428Y-101757557D01*
X251071428Y-101757557D02*
X251000000Y-101900414D01*
X251000000Y-101900414D02*
X251000000Y-102686128D01*
X251000000Y-101900414D02*
X250928571Y-101757557D01*
X250928571Y-101757557D02*
X250785714Y-101686128D01*
X250785714Y-101686128D02*
X250571428Y-101686128D01*
X250571428Y-101686128D02*
X250428571Y-101757557D01*
X250428571Y-101757557D02*
X250357142Y-101900414D01*
X250357142Y-101900414D02*
X250357142Y-102686128D01*
X253686128Y-150142858D02*
X253686128Y-149285715D01*
X253686128Y-149714286D02*
X252186128Y-149714286D01*
X252186128Y-149714286D02*
X252400414Y-149571429D01*
X252400414Y-149571429D02*
X252543271Y-149428572D01*
X252543271Y-149428572D02*
X252614700Y-149285715D01*
X252186128Y-151071429D02*
X252186128Y-151214286D01*
X252186128Y-151214286D02*
X252257557Y-151357143D01*
X252257557Y-151357143D02*
X252328985Y-151428572D01*
X252328985Y-151428572D02*
X252471842Y-151500000D01*
X252471842Y-151500000D02*
X252757557Y-151571429D01*
X252757557Y-151571429D02*
X253114700Y-151571429D01*
X253114700Y-151571429D02*
X253400414Y-151500000D01*
X253400414Y-151500000D02*
X253543271Y-151428572D01*
X253543271Y-151428572D02*
X253614700Y-151357143D01*
X253614700Y-151357143D02*
X253686128Y-151214286D01*
X253686128Y-151214286D02*
X253686128Y-151071429D01*
X253686128Y-151071429D02*
X253614700Y-150928572D01*
X253614700Y-150928572D02*
X253543271Y-150857143D01*
X253543271Y-150857143D02*
X253400414Y-150785714D01*
X253400414Y-150785714D02*
X253114700Y-150714286D01*
X253114700Y-150714286D02*
X252757557Y-150714286D01*
X252757557Y-150714286D02*
X252471842Y-150785714D01*
X252471842Y-150785714D02*
X252328985Y-150857143D01*
X252328985Y-150857143D02*
X252257557Y-150928572D01*
X252257557Y-150928572D02*
X252186128Y-151071429D01*
X253686128Y-153357142D02*
X252686128Y-153357142D01*
X252828985Y-153357142D02*
X252757557Y-153428571D01*
X252757557Y-153428571D02*
X252686128Y-153571428D01*
X252686128Y-153571428D02*
X252686128Y-153785714D01*
X252686128Y-153785714D02*
X252757557Y-153928571D01*
X252757557Y-153928571D02*
X252900414Y-154000000D01*
X252900414Y-154000000D02*
X253686128Y-154000000D01*
X252900414Y-154000000D02*
X252757557Y-154071428D01*
X252757557Y-154071428D02*
X252686128Y-154214285D01*
X252686128Y-154214285D02*
X252686128Y-154428571D01*
X252686128Y-154428571D02*
X252757557Y-154571428D01*
X252757557Y-154571428D02*
X252900414Y-154642857D01*
X252900414Y-154642857D02*
X253686128Y-154642857D01*
X253686128Y-155357142D02*
X252686128Y-155357142D01*
X252828985Y-155357142D02*
X252757557Y-155428571D01*
X252757557Y-155428571D02*
X252686128Y-155571428D01*
X252686128Y-155571428D02*
X252686128Y-155785714D01*
X252686128Y-155785714D02*
X252757557Y-155928571D01*
X252757557Y-155928571D02*
X252900414Y-156000000D01*
X252900414Y-156000000D02*
X253686128Y-156000000D01*
X252900414Y-156000000D02*
X252757557Y-156071428D01*
X252757557Y-156071428D02*
X252686128Y-156214285D01*
X252686128Y-156214285D02*
X252686128Y-156428571D01*
X252686128Y-156428571D02*
X252757557Y-156571428D01*
X252757557Y-156571428D02*
X252900414Y-156642857D01*
X252900414Y-156642857D02*
X253686128Y-156642857D01*
X189714284Y-55328985D02*
X189642856Y-55257557D01*
X189642856Y-55257557D02*
X189499999Y-55186128D01*
X189499999Y-55186128D02*
X189142856Y-55186128D01*
X189142856Y-55186128D02*
X188999999Y-55257557D01*
X188999999Y-55257557D02*
X188928570Y-55328985D01*
X188928570Y-55328985D02*
X188857141Y-55471842D01*
X188857141Y-55471842D02*
X188857141Y-55614700D01*
X188857141Y-55614700D02*
X188928570Y-55828985D01*
X188928570Y-55828985D02*
X189785713Y-56686128D01*
X189785713Y-56686128D02*
X188857141Y-56686128D01*
X187928570Y-55186128D02*
X187785713Y-55186128D01*
X187785713Y-55186128D02*
X187642856Y-55257557D01*
X187642856Y-55257557D02*
X187571428Y-55328985D01*
X187571428Y-55328985D02*
X187499999Y-55471842D01*
X187499999Y-55471842D02*
X187428570Y-55757557D01*
X187428570Y-55757557D02*
X187428570Y-56114700D01*
X187428570Y-56114700D02*
X187499999Y-56400414D01*
X187499999Y-56400414D02*
X187571428Y-56543271D01*
X187571428Y-56543271D02*
X187642856Y-56614700D01*
X187642856Y-56614700D02*
X187785713Y-56686128D01*
X187785713Y-56686128D02*
X187928570Y-56686128D01*
X187928570Y-56686128D02*
X188071428Y-56614700D01*
X188071428Y-56614700D02*
X188142856Y-56543271D01*
X188142856Y-56543271D02*
X188214285Y-56400414D01*
X188214285Y-56400414D02*
X188285713Y-56114700D01*
X188285713Y-56114700D02*
X188285713Y-55757557D01*
X188285713Y-55757557D02*
X188214285Y-55471842D01*
X188214285Y-55471842D02*
X188142856Y-55328985D01*
X188142856Y-55328985D02*
X188071428Y-55257557D01*
X188071428Y-55257557D02*
X187928570Y-55186128D01*
X185642857Y-56686128D02*
X185642857Y-55686128D01*
X185642857Y-55828985D02*
X185571428Y-55757557D01*
X185571428Y-55757557D02*
X185428571Y-55686128D01*
X185428571Y-55686128D02*
X185214285Y-55686128D01*
X185214285Y-55686128D02*
X185071428Y-55757557D01*
X185071428Y-55757557D02*
X185000000Y-55900414D01*
X185000000Y-55900414D02*
X185000000Y-56686128D01*
X185000000Y-55900414D02*
X184928571Y-55757557D01*
X184928571Y-55757557D02*
X184785714Y-55686128D01*
X184785714Y-55686128D02*
X184571428Y-55686128D01*
X184571428Y-55686128D02*
X184428571Y-55757557D01*
X184428571Y-55757557D02*
X184357142Y-55900414D01*
X184357142Y-55900414D02*
X184357142Y-56686128D01*
X183642857Y-56686128D02*
X183642857Y-55686128D01*
X183642857Y-55828985D02*
X183571428Y-55757557D01*
X183571428Y-55757557D02*
X183428571Y-55686128D01*
X183428571Y-55686128D02*
X183214285Y-55686128D01*
X183214285Y-55686128D02*
X183071428Y-55757557D01*
X183071428Y-55757557D02*
X183000000Y-55900414D01*
X183000000Y-55900414D02*
X183000000Y-56686128D01*
X183000000Y-55900414D02*
X182928571Y-55757557D01*
X182928571Y-55757557D02*
X182785714Y-55686128D01*
X182785714Y-55686128D02*
X182571428Y-55686128D01*
X182571428Y-55686128D02*
X182428571Y-55757557D01*
X182428571Y-55757557D02*
X182357142Y-55900414D01*
X182357142Y-55900414D02*
X182357142Y-56686128D01*
X271642856Y-61328985D02*
X271571428Y-61257557D01*
X271571428Y-61257557D02*
X271428571Y-61186128D01*
X271428571Y-61186128D02*
X271071428Y-61186128D01*
X271071428Y-61186128D02*
X270928571Y-61257557D01*
X270928571Y-61257557D02*
X270857142Y-61328985D01*
X270857142Y-61328985D02*
X270785713Y-61471842D01*
X270785713Y-61471842D02*
X270785713Y-61614700D01*
X270785713Y-61614700D02*
X270857142Y-61828985D01*
X270857142Y-61828985D02*
X271714285Y-62686128D01*
X271714285Y-62686128D02*
X270785713Y-62686128D01*
X270142857Y-62114700D02*
X269000000Y-62114700D01*
X269571428Y-62686128D02*
X269571428Y-61543271D01*
X268071428Y-61828985D02*
X268214285Y-61757557D01*
X268214285Y-61757557D02*
X268285714Y-61686128D01*
X268285714Y-61686128D02*
X268357142Y-61543271D01*
X268357142Y-61543271D02*
X268357142Y-61471842D01*
X268357142Y-61471842D02*
X268285714Y-61328985D01*
X268285714Y-61328985D02*
X268214285Y-61257557D01*
X268214285Y-61257557D02*
X268071428Y-61186128D01*
X268071428Y-61186128D02*
X267785714Y-61186128D01*
X267785714Y-61186128D02*
X267642857Y-61257557D01*
X267642857Y-61257557D02*
X267571428Y-61328985D01*
X267571428Y-61328985D02*
X267499999Y-61471842D01*
X267499999Y-61471842D02*
X267499999Y-61543271D01*
X267499999Y-61543271D02*
X267571428Y-61686128D01*
X267571428Y-61686128D02*
X267642857Y-61757557D01*
X267642857Y-61757557D02*
X267785714Y-61828985D01*
X267785714Y-61828985D02*
X268071428Y-61828985D01*
X268071428Y-61828985D02*
X268214285Y-61900414D01*
X268214285Y-61900414D02*
X268285714Y-61971842D01*
X268285714Y-61971842D02*
X268357142Y-62114700D01*
X268357142Y-62114700D02*
X268357142Y-62400414D01*
X268357142Y-62400414D02*
X268285714Y-62543271D01*
X268285714Y-62543271D02*
X268214285Y-62614700D01*
X268214285Y-62614700D02*
X268071428Y-62686128D01*
X268071428Y-62686128D02*
X267785714Y-62686128D01*
X267785714Y-62686128D02*
X267642857Y-62614700D01*
X267642857Y-62614700D02*
X267571428Y-62543271D01*
X267571428Y-62543271D02*
X267499999Y-62400414D01*
X267499999Y-62400414D02*
X267499999Y-62114700D01*
X267499999Y-62114700D02*
X267571428Y-61971842D01*
X267571428Y-61971842D02*
X267642857Y-61900414D01*
X267642857Y-61900414D02*
X267785714Y-61828985D01*
X265714286Y-62686128D02*
X265714286Y-61686128D01*
X265714286Y-61828985D02*
X265642857Y-61757557D01*
X265642857Y-61757557D02*
X265500000Y-61686128D01*
X265500000Y-61686128D02*
X265285714Y-61686128D01*
X265285714Y-61686128D02*
X265142857Y-61757557D01*
X265142857Y-61757557D02*
X265071429Y-61900414D01*
X265071429Y-61900414D02*
X265071429Y-62686128D01*
X265071429Y-61900414D02*
X265000000Y-61757557D01*
X265000000Y-61757557D02*
X264857143Y-61686128D01*
X264857143Y-61686128D02*
X264642857Y-61686128D01*
X264642857Y-61686128D02*
X264500000Y-61757557D01*
X264500000Y-61757557D02*
X264428571Y-61900414D01*
X264428571Y-61900414D02*
X264428571Y-62686128D01*
X263714286Y-62686128D02*
X263714286Y-61686128D01*
X263714286Y-61828985D02*
X263642857Y-61757557D01*
X263642857Y-61757557D02*
X263500000Y-61686128D01*
X263500000Y-61686128D02*
X263285714Y-61686128D01*
X263285714Y-61686128D02*
X263142857Y-61757557D01*
X263142857Y-61757557D02*
X263071429Y-61900414D01*
X263071429Y-61900414D02*
X263071429Y-62686128D01*
X263071429Y-61900414D02*
X263000000Y-61757557D01*
X263000000Y-61757557D02*
X262857143Y-61686128D01*
X262857143Y-61686128D02*
X262642857Y-61686128D01*
X262642857Y-61686128D02*
X262500000Y-61757557D01*
X262500000Y-61757557D02*
X262428571Y-61900414D01*
X262428571Y-61900414D02*
X262428571Y-62686128D01*
X233999999Y-57186128D02*
X234285713Y-57186128D01*
X234285713Y-57186128D02*
X234428570Y-57257557D01*
X234428570Y-57257557D02*
X234499999Y-57328985D01*
X234499999Y-57328985D02*
X234642856Y-57543271D01*
X234642856Y-57543271D02*
X234714284Y-57828985D01*
X234714284Y-57828985D02*
X234714284Y-58400414D01*
X234714284Y-58400414D02*
X234642856Y-58543271D01*
X234642856Y-58543271D02*
X234571427Y-58614700D01*
X234571427Y-58614700D02*
X234428570Y-58686128D01*
X234428570Y-58686128D02*
X234142856Y-58686128D01*
X234142856Y-58686128D02*
X233999999Y-58614700D01*
X233999999Y-58614700D02*
X233928570Y-58543271D01*
X233928570Y-58543271D02*
X233857141Y-58400414D01*
X233857141Y-58400414D02*
X233857141Y-58043271D01*
X233857141Y-58043271D02*
X233928570Y-57900414D01*
X233928570Y-57900414D02*
X233999999Y-57828985D01*
X233999999Y-57828985D02*
X234142856Y-57757557D01*
X234142856Y-57757557D02*
X234428570Y-57757557D01*
X234428570Y-57757557D02*
X234571427Y-57828985D01*
X234571427Y-57828985D02*
X234642856Y-57900414D01*
X234642856Y-57900414D02*
X234714284Y-58043271D01*
X232928570Y-57186128D02*
X232785713Y-57186128D01*
X232785713Y-57186128D02*
X232642856Y-57257557D01*
X232642856Y-57257557D02*
X232571428Y-57328985D01*
X232571428Y-57328985D02*
X232499999Y-57471842D01*
X232499999Y-57471842D02*
X232428570Y-57757557D01*
X232428570Y-57757557D02*
X232428570Y-58114700D01*
X232428570Y-58114700D02*
X232499999Y-58400414D01*
X232499999Y-58400414D02*
X232571428Y-58543271D01*
X232571428Y-58543271D02*
X232642856Y-58614700D01*
X232642856Y-58614700D02*
X232785713Y-58686128D01*
X232785713Y-58686128D02*
X232928570Y-58686128D01*
X232928570Y-58686128D02*
X233071428Y-58614700D01*
X233071428Y-58614700D02*
X233142856Y-58543271D01*
X233142856Y-58543271D02*
X233214285Y-58400414D01*
X233214285Y-58400414D02*
X233285713Y-58114700D01*
X233285713Y-58114700D02*
X233285713Y-57757557D01*
X233285713Y-57757557D02*
X233214285Y-57471842D01*
X233214285Y-57471842D02*
X233142856Y-57328985D01*
X233142856Y-57328985D02*
X233071428Y-57257557D01*
X233071428Y-57257557D02*
X232928570Y-57186128D01*
X230642857Y-58686128D02*
X230642857Y-57686128D01*
X230642857Y-57828985D02*
X230571428Y-57757557D01*
X230571428Y-57757557D02*
X230428571Y-57686128D01*
X230428571Y-57686128D02*
X230214285Y-57686128D01*
X230214285Y-57686128D02*
X230071428Y-57757557D01*
X230071428Y-57757557D02*
X230000000Y-57900414D01*
X230000000Y-57900414D02*
X230000000Y-58686128D01*
X230000000Y-57900414D02*
X229928571Y-57757557D01*
X229928571Y-57757557D02*
X229785714Y-57686128D01*
X229785714Y-57686128D02*
X229571428Y-57686128D01*
X229571428Y-57686128D02*
X229428571Y-57757557D01*
X229428571Y-57757557D02*
X229357142Y-57900414D01*
X229357142Y-57900414D02*
X229357142Y-58686128D01*
X228642857Y-58686128D02*
X228642857Y-57686128D01*
X228642857Y-57828985D02*
X228571428Y-57757557D01*
X228571428Y-57757557D02*
X228428571Y-57686128D01*
X228428571Y-57686128D02*
X228214285Y-57686128D01*
X228214285Y-57686128D02*
X228071428Y-57757557D01*
X228071428Y-57757557D02*
X228000000Y-57900414D01*
X228000000Y-57900414D02*
X228000000Y-58686128D01*
X228000000Y-57900414D02*
X227928571Y-57757557D01*
X227928571Y-57757557D02*
X227785714Y-57686128D01*
X227785714Y-57686128D02*
X227571428Y-57686128D01*
X227571428Y-57686128D02*
X227428571Y-57757557D01*
X227428571Y-57757557D02*
X227357142Y-57900414D01*
X227357142Y-57900414D02*
X227357142Y-58686128D01*
X114428570Y-45828985D02*
X114571427Y-45757557D01*
X114571427Y-45757557D02*
X114642856Y-45686128D01*
X114642856Y-45686128D02*
X114714284Y-45543271D01*
X114714284Y-45543271D02*
X114714284Y-45471842D01*
X114714284Y-45471842D02*
X114642856Y-45328985D01*
X114642856Y-45328985D02*
X114571427Y-45257557D01*
X114571427Y-45257557D02*
X114428570Y-45186128D01*
X114428570Y-45186128D02*
X114142856Y-45186128D01*
X114142856Y-45186128D02*
X113999999Y-45257557D01*
X113999999Y-45257557D02*
X113928570Y-45328985D01*
X113928570Y-45328985D02*
X113857141Y-45471842D01*
X113857141Y-45471842D02*
X113857141Y-45543271D01*
X113857141Y-45543271D02*
X113928570Y-45686128D01*
X113928570Y-45686128D02*
X113999999Y-45757557D01*
X113999999Y-45757557D02*
X114142856Y-45828985D01*
X114142856Y-45828985D02*
X114428570Y-45828985D01*
X114428570Y-45828985D02*
X114571427Y-45900414D01*
X114571427Y-45900414D02*
X114642856Y-45971842D01*
X114642856Y-45971842D02*
X114714284Y-46114700D01*
X114714284Y-46114700D02*
X114714284Y-46400414D01*
X114714284Y-46400414D02*
X114642856Y-46543271D01*
X114642856Y-46543271D02*
X114571427Y-46614700D01*
X114571427Y-46614700D02*
X114428570Y-46686128D01*
X114428570Y-46686128D02*
X114142856Y-46686128D01*
X114142856Y-46686128D02*
X113999999Y-46614700D01*
X113999999Y-46614700D02*
X113928570Y-46543271D01*
X113928570Y-46543271D02*
X113857141Y-46400414D01*
X113857141Y-46400414D02*
X113857141Y-46114700D01*
X113857141Y-46114700D02*
X113928570Y-45971842D01*
X113928570Y-45971842D02*
X113999999Y-45900414D01*
X113999999Y-45900414D02*
X114142856Y-45828985D01*
X112928570Y-45186128D02*
X112785713Y-45186128D01*
X112785713Y-45186128D02*
X112642856Y-45257557D01*
X112642856Y-45257557D02*
X112571428Y-45328985D01*
X112571428Y-45328985D02*
X112499999Y-45471842D01*
X112499999Y-45471842D02*
X112428570Y-45757557D01*
X112428570Y-45757557D02*
X112428570Y-46114700D01*
X112428570Y-46114700D02*
X112499999Y-46400414D01*
X112499999Y-46400414D02*
X112571428Y-46543271D01*
X112571428Y-46543271D02*
X112642856Y-46614700D01*
X112642856Y-46614700D02*
X112785713Y-46686128D01*
X112785713Y-46686128D02*
X112928570Y-46686128D01*
X112928570Y-46686128D02*
X113071428Y-46614700D01*
X113071428Y-46614700D02*
X113142856Y-46543271D01*
X113142856Y-46543271D02*
X113214285Y-46400414D01*
X113214285Y-46400414D02*
X113285713Y-46114700D01*
X113285713Y-46114700D02*
X113285713Y-45757557D01*
X113285713Y-45757557D02*
X113214285Y-45471842D01*
X113214285Y-45471842D02*
X113142856Y-45328985D01*
X113142856Y-45328985D02*
X113071428Y-45257557D01*
X113071428Y-45257557D02*
X112928570Y-45186128D01*
X110642857Y-46686128D02*
X110642857Y-45686128D01*
X110642857Y-45828985D02*
X110571428Y-45757557D01*
X110571428Y-45757557D02*
X110428571Y-45686128D01*
X110428571Y-45686128D02*
X110214285Y-45686128D01*
X110214285Y-45686128D02*
X110071428Y-45757557D01*
X110071428Y-45757557D02*
X110000000Y-45900414D01*
X110000000Y-45900414D02*
X110000000Y-46686128D01*
X110000000Y-45900414D02*
X109928571Y-45757557D01*
X109928571Y-45757557D02*
X109785714Y-45686128D01*
X109785714Y-45686128D02*
X109571428Y-45686128D01*
X109571428Y-45686128D02*
X109428571Y-45757557D01*
X109428571Y-45757557D02*
X109357142Y-45900414D01*
X109357142Y-45900414D02*
X109357142Y-46686128D01*
X108642857Y-46686128D02*
X108642857Y-45686128D01*
X108642857Y-45828985D02*
X108571428Y-45757557D01*
X108571428Y-45757557D02*
X108428571Y-45686128D01*
X108428571Y-45686128D02*
X108214285Y-45686128D01*
X108214285Y-45686128D02*
X108071428Y-45757557D01*
X108071428Y-45757557D02*
X108000000Y-45900414D01*
X108000000Y-45900414D02*
X108000000Y-46686128D01*
X108000000Y-45900414D02*
X107928571Y-45757557D01*
X107928571Y-45757557D02*
X107785714Y-45686128D01*
X107785714Y-45686128D02*
X107571428Y-45686128D01*
X107571428Y-45686128D02*
X107428571Y-45757557D01*
X107428571Y-45757557D02*
X107357142Y-45900414D01*
X107357142Y-45900414D02*
X107357142Y-46686128D01*
X168714284Y-53328985D02*
X168642856Y-53257557D01*
X168642856Y-53257557D02*
X168499999Y-53186128D01*
X168499999Y-53186128D02*
X168142856Y-53186128D01*
X168142856Y-53186128D02*
X167999999Y-53257557D01*
X167999999Y-53257557D02*
X167928570Y-53328985D01*
X167928570Y-53328985D02*
X167857141Y-53471842D01*
X167857141Y-53471842D02*
X167857141Y-53614700D01*
X167857141Y-53614700D02*
X167928570Y-53828985D01*
X167928570Y-53828985D02*
X168785713Y-54686128D01*
X168785713Y-54686128D02*
X167857141Y-54686128D01*
X166928570Y-53186128D02*
X166785713Y-53186128D01*
X166785713Y-53186128D02*
X166642856Y-53257557D01*
X166642856Y-53257557D02*
X166571428Y-53328985D01*
X166571428Y-53328985D02*
X166499999Y-53471842D01*
X166499999Y-53471842D02*
X166428570Y-53757557D01*
X166428570Y-53757557D02*
X166428570Y-54114700D01*
X166428570Y-54114700D02*
X166499999Y-54400414D01*
X166499999Y-54400414D02*
X166571428Y-54543271D01*
X166571428Y-54543271D02*
X166642856Y-54614700D01*
X166642856Y-54614700D02*
X166785713Y-54686128D01*
X166785713Y-54686128D02*
X166928570Y-54686128D01*
X166928570Y-54686128D02*
X167071428Y-54614700D01*
X167071428Y-54614700D02*
X167142856Y-54543271D01*
X167142856Y-54543271D02*
X167214285Y-54400414D01*
X167214285Y-54400414D02*
X167285713Y-54114700D01*
X167285713Y-54114700D02*
X167285713Y-53757557D01*
X167285713Y-53757557D02*
X167214285Y-53471842D01*
X167214285Y-53471842D02*
X167142856Y-53328985D01*
X167142856Y-53328985D02*
X167071428Y-53257557D01*
X167071428Y-53257557D02*
X166928570Y-53186128D01*
X164642857Y-54686128D02*
X164642857Y-53686128D01*
X164642857Y-53828985D02*
X164571428Y-53757557D01*
X164571428Y-53757557D02*
X164428571Y-53686128D01*
X164428571Y-53686128D02*
X164214285Y-53686128D01*
X164214285Y-53686128D02*
X164071428Y-53757557D01*
X164071428Y-53757557D02*
X164000000Y-53900414D01*
X164000000Y-53900414D02*
X164000000Y-54686128D01*
X164000000Y-53900414D02*
X163928571Y-53757557D01*
X163928571Y-53757557D02*
X163785714Y-53686128D01*
X163785714Y-53686128D02*
X163571428Y-53686128D01*
X163571428Y-53686128D02*
X163428571Y-53757557D01*
X163428571Y-53757557D02*
X163357142Y-53900414D01*
X163357142Y-53900414D02*
X163357142Y-54686128D01*
X162642857Y-54686128D02*
X162642857Y-53686128D01*
X162642857Y-53828985D02*
X162571428Y-53757557D01*
X162571428Y-53757557D02*
X162428571Y-53686128D01*
X162428571Y-53686128D02*
X162214285Y-53686128D01*
X162214285Y-53686128D02*
X162071428Y-53757557D01*
X162071428Y-53757557D02*
X162000000Y-53900414D01*
X162000000Y-53900414D02*
X162000000Y-54686128D01*
X162000000Y-53900414D02*
X161928571Y-53757557D01*
X161928571Y-53757557D02*
X161785714Y-53686128D01*
X161785714Y-53686128D02*
X161571428Y-53686128D01*
X161571428Y-53686128D02*
X161428571Y-53757557D01*
X161428571Y-53757557D02*
X161357142Y-53900414D01*
X161357142Y-53900414D02*
X161357142Y-54686128D01*
X262857141Y-60686128D02*
X263714284Y-60686128D01*
X263285713Y-60686128D02*
X263285713Y-59186128D01*
X263285713Y-59186128D02*
X263428570Y-59400414D01*
X263428570Y-59400414D02*
X263571427Y-59543271D01*
X263571427Y-59543271D02*
X263714284Y-59614700D01*
X261928570Y-59186128D02*
X261785713Y-59186128D01*
X261785713Y-59186128D02*
X261642856Y-59257557D01*
X261642856Y-59257557D02*
X261571428Y-59328985D01*
X261571428Y-59328985D02*
X261499999Y-59471842D01*
X261499999Y-59471842D02*
X261428570Y-59757557D01*
X261428570Y-59757557D02*
X261428570Y-60114700D01*
X261428570Y-60114700D02*
X261499999Y-60400414D01*
X261499999Y-60400414D02*
X261571428Y-60543271D01*
X261571428Y-60543271D02*
X261642856Y-60614700D01*
X261642856Y-60614700D02*
X261785713Y-60686128D01*
X261785713Y-60686128D02*
X261928570Y-60686128D01*
X261928570Y-60686128D02*
X262071428Y-60614700D01*
X262071428Y-60614700D02*
X262142856Y-60543271D01*
X262142856Y-60543271D02*
X262214285Y-60400414D01*
X262214285Y-60400414D02*
X262285713Y-60114700D01*
X262285713Y-60114700D02*
X262285713Y-59757557D01*
X262285713Y-59757557D02*
X262214285Y-59471842D01*
X262214285Y-59471842D02*
X262142856Y-59328985D01*
X262142856Y-59328985D02*
X262071428Y-59257557D01*
X262071428Y-59257557D02*
X261928570Y-59186128D01*
X259642857Y-60686128D02*
X259642857Y-59686128D01*
X259642857Y-59828985D02*
X259571428Y-59757557D01*
X259571428Y-59757557D02*
X259428571Y-59686128D01*
X259428571Y-59686128D02*
X259214285Y-59686128D01*
X259214285Y-59686128D02*
X259071428Y-59757557D01*
X259071428Y-59757557D02*
X259000000Y-59900414D01*
X259000000Y-59900414D02*
X259000000Y-60686128D01*
X259000000Y-59900414D02*
X258928571Y-59757557D01*
X258928571Y-59757557D02*
X258785714Y-59686128D01*
X258785714Y-59686128D02*
X258571428Y-59686128D01*
X258571428Y-59686128D02*
X258428571Y-59757557D01*
X258428571Y-59757557D02*
X258357142Y-59900414D01*
X258357142Y-59900414D02*
X258357142Y-60686128D01*
X257642857Y-60686128D02*
X257642857Y-59686128D01*
X257642857Y-59828985D02*
X257571428Y-59757557D01*
X257571428Y-59757557D02*
X257428571Y-59686128D01*
X257428571Y-59686128D02*
X257214285Y-59686128D01*
X257214285Y-59686128D02*
X257071428Y-59757557D01*
X257071428Y-59757557D02*
X257000000Y-59900414D01*
X257000000Y-59900414D02*
X257000000Y-60686128D01*
X257000000Y-59900414D02*
X256928571Y-59757557D01*
X256928571Y-59757557D02*
X256785714Y-59686128D01*
X256785714Y-59686128D02*
X256571428Y-59686128D01*
X256571428Y-59686128D02*
X256428571Y-59757557D01*
X256428571Y-59757557D02*
X256357142Y-59900414D01*
X256357142Y-59900414D02*
X256357142Y-60686128D01*
X271642856Y-155328985D02*
X271571428Y-155257557D01*
X271571428Y-155257557D02*
X271428571Y-155186128D01*
X271428571Y-155186128D02*
X271071428Y-155186128D01*
X271071428Y-155186128D02*
X270928571Y-155257557D01*
X270928571Y-155257557D02*
X270857142Y-155328985D01*
X270857142Y-155328985D02*
X270785713Y-155471842D01*
X270785713Y-155471842D02*
X270785713Y-155614700D01*
X270785713Y-155614700D02*
X270857142Y-155828985D01*
X270857142Y-155828985D02*
X271714285Y-156686128D01*
X271714285Y-156686128D02*
X270785713Y-156686128D01*
X270142857Y-156114700D02*
X269000000Y-156114700D01*
X269571428Y-156686128D02*
X269571428Y-155543271D01*
X268428571Y-155186128D02*
X267499999Y-155186128D01*
X267499999Y-155186128D02*
X267999999Y-155757557D01*
X267999999Y-155757557D02*
X267785714Y-155757557D01*
X267785714Y-155757557D02*
X267642857Y-155828985D01*
X267642857Y-155828985D02*
X267571428Y-155900414D01*
X267571428Y-155900414D02*
X267499999Y-156043271D01*
X267499999Y-156043271D02*
X267499999Y-156400414D01*
X267499999Y-156400414D02*
X267571428Y-156543271D01*
X267571428Y-156543271D02*
X267642857Y-156614700D01*
X267642857Y-156614700D02*
X267785714Y-156686128D01*
X267785714Y-156686128D02*
X268214285Y-156686128D01*
X268214285Y-156686128D02*
X268357142Y-156614700D01*
X268357142Y-156614700D02*
X268428571Y-156543271D01*
X265714286Y-156686128D02*
X265714286Y-155686128D01*
X265714286Y-155828985D02*
X265642857Y-155757557D01*
X265642857Y-155757557D02*
X265500000Y-155686128D01*
X265500000Y-155686128D02*
X265285714Y-155686128D01*
X265285714Y-155686128D02*
X265142857Y-155757557D01*
X265142857Y-155757557D02*
X265071429Y-155900414D01*
X265071429Y-155900414D02*
X265071429Y-156686128D01*
X265071429Y-155900414D02*
X265000000Y-155757557D01*
X265000000Y-155757557D02*
X264857143Y-155686128D01*
X264857143Y-155686128D02*
X264642857Y-155686128D01*
X264642857Y-155686128D02*
X264500000Y-155757557D01*
X264500000Y-155757557D02*
X264428571Y-155900414D01*
X264428571Y-155900414D02*
X264428571Y-156686128D01*
X263714286Y-156686128D02*
X263714286Y-155686128D01*
X263714286Y-155828985D02*
X263642857Y-155757557D01*
X263642857Y-155757557D02*
X263500000Y-155686128D01*
X263500000Y-155686128D02*
X263285714Y-155686128D01*
X263285714Y-155686128D02*
X263142857Y-155757557D01*
X263142857Y-155757557D02*
X263071429Y-155900414D01*
X263071429Y-155900414D02*
X263071429Y-156686128D01*
X263071429Y-155900414D02*
X263000000Y-155757557D01*
X263000000Y-155757557D02*
X262857143Y-155686128D01*
X262857143Y-155686128D02*
X262642857Y-155686128D01*
X262642857Y-155686128D02*
X262500000Y-155757557D01*
X262500000Y-155757557D02*
X262428571Y-155900414D01*
X262428571Y-155900414D02*
X262428571Y-156686128D01*
X231999999Y-150186128D02*
X232285713Y-150186128D01*
X232285713Y-150186128D02*
X232428570Y-150257557D01*
X232428570Y-150257557D02*
X232499999Y-150328985D01*
X232499999Y-150328985D02*
X232642856Y-150543271D01*
X232642856Y-150543271D02*
X232714284Y-150828985D01*
X232714284Y-150828985D02*
X232714284Y-151400414D01*
X232714284Y-151400414D02*
X232642856Y-151543271D01*
X232642856Y-151543271D02*
X232571427Y-151614700D01*
X232571427Y-151614700D02*
X232428570Y-151686128D01*
X232428570Y-151686128D02*
X232142856Y-151686128D01*
X232142856Y-151686128D02*
X231999999Y-151614700D01*
X231999999Y-151614700D02*
X231928570Y-151543271D01*
X231928570Y-151543271D02*
X231857141Y-151400414D01*
X231857141Y-151400414D02*
X231857141Y-151043271D01*
X231857141Y-151043271D02*
X231928570Y-150900414D01*
X231928570Y-150900414D02*
X231999999Y-150828985D01*
X231999999Y-150828985D02*
X232142856Y-150757557D01*
X232142856Y-150757557D02*
X232428570Y-150757557D01*
X232428570Y-150757557D02*
X232571427Y-150828985D01*
X232571427Y-150828985D02*
X232642856Y-150900414D01*
X232642856Y-150900414D02*
X232714284Y-151043271D01*
X230928570Y-150186128D02*
X230785713Y-150186128D01*
X230785713Y-150186128D02*
X230642856Y-150257557D01*
X230642856Y-150257557D02*
X230571428Y-150328985D01*
X230571428Y-150328985D02*
X230499999Y-150471842D01*
X230499999Y-150471842D02*
X230428570Y-150757557D01*
X230428570Y-150757557D02*
X230428570Y-151114700D01*
X230428570Y-151114700D02*
X230499999Y-151400414D01*
X230499999Y-151400414D02*
X230571428Y-151543271D01*
X230571428Y-151543271D02*
X230642856Y-151614700D01*
X230642856Y-151614700D02*
X230785713Y-151686128D01*
X230785713Y-151686128D02*
X230928570Y-151686128D01*
X230928570Y-151686128D02*
X231071428Y-151614700D01*
X231071428Y-151614700D02*
X231142856Y-151543271D01*
X231142856Y-151543271D02*
X231214285Y-151400414D01*
X231214285Y-151400414D02*
X231285713Y-151114700D01*
X231285713Y-151114700D02*
X231285713Y-150757557D01*
X231285713Y-150757557D02*
X231214285Y-150471842D01*
X231214285Y-150471842D02*
X231142856Y-150328985D01*
X231142856Y-150328985D02*
X231071428Y-150257557D01*
X231071428Y-150257557D02*
X230928570Y-150186128D01*
X228642857Y-151686128D02*
X228642857Y-150686128D01*
X228642857Y-150828985D02*
X228571428Y-150757557D01*
X228571428Y-150757557D02*
X228428571Y-150686128D01*
X228428571Y-150686128D02*
X228214285Y-150686128D01*
X228214285Y-150686128D02*
X228071428Y-150757557D01*
X228071428Y-150757557D02*
X228000000Y-150900414D01*
X228000000Y-150900414D02*
X228000000Y-151686128D01*
X228000000Y-150900414D02*
X227928571Y-150757557D01*
X227928571Y-150757557D02*
X227785714Y-150686128D01*
X227785714Y-150686128D02*
X227571428Y-150686128D01*
X227571428Y-150686128D02*
X227428571Y-150757557D01*
X227428571Y-150757557D02*
X227357142Y-150900414D01*
X227357142Y-150900414D02*
X227357142Y-151686128D01*
X226642857Y-151686128D02*
X226642857Y-150686128D01*
X226642857Y-150828985D02*
X226571428Y-150757557D01*
X226571428Y-150757557D02*
X226428571Y-150686128D01*
X226428571Y-150686128D02*
X226214285Y-150686128D01*
X226214285Y-150686128D02*
X226071428Y-150757557D01*
X226071428Y-150757557D02*
X226000000Y-150900414D01*
X226000000Y-150900414D02*
X226000000Y-151686128D01*
X226000000Y-150900414D02*
X225928571Y-150757557D01*
X225928571Y-150757557D02*
X225785714Y-150686128D01*
X225785714Y-150686128D02*
X225571428Y-150686128D01*
X225571428Y-150686128D02*
X225428571Y-150757557D01*
X225428571Y-150757557D02*
X225357142Y-150900414D01*
X225357142Y-150900414D02*
X225357142Y-151686128D01*
X178999999Y-148686128D02*
X178999999Y-149686128D01*
X179357141Y-148114700D02*
X179714284Y-149186128D01*
X179714284Y-149186128D02*
X178785713Y-149186128D01*
X177928570Y-148186128D02*
X177785713Y-148186128D01*
X177785713Y-148186128D02*
X177642856Y-148257557D01*
X177642856Y-148257557D02*
X177571428Y-148328985D01*
X177571428Y-148328985D02*
X177499999Y-148471842D01*
X177499999Y-148471842D02*
X177428570Y-148757557D01*
X177428570Y-148757557D02*
X177428570Y-149114700D01*
X177428570Y-149114700D02*
X177499999Y-149400414D01*
X177499999Y-149400414D02*
X177571428Y-149543271D01*
X177571428Y-149543271D02*
X177642856Y-149614700D01*
X177642856Y-149614700D02*
X177785713Y-149686128D01*
X177785713Y-149686128D02*
X177928570Y-149686128D01*
X177928570Y-149686128D02*
X178071428Y-149614700D01*
X178071428Y-149614700D02*
X178142856Y-149543271D01*
X178142856Y-149543271D02*
X178214285Y-149400414D01*
X178214285Y-149400414D02*
X178285713Y-149114700D01*
X178285713Y-149114700D02*
X178285713Y-148757557D01*
X178285713Y-148757557D02*
X178214285Y-148471842D01*
X178214285Y-148471842D02*
X178142856Y-148328985D01*
X178142856Y-148328985D02*
X178071428Y-148257557D01*
X178071428Y-148257557D02*
X177928570Y-148186128D01*
X175642857Y-149686128D02*
X175642857Y-148686128D01*
X175642857Y-148828985D02*
X175571428Y-148757557D01*
X175571428Y-148757557D02*
X175428571Y-148686128D01*
X175428571Y-148686128D02*
X175214285Y-148686128D01*
X175214285Y-148686128D02*
X175071428Y-148757557D01*
X175071428Y-148757557D02*
X175000000Y-148900414D01*
X175000000Y-148900414D02*
X175000000Y-149686128D01*
X175000000Y-148900414D02*
X174928571Y-148757557D01*
X174928571Y-148757557D02*
X174785714Y-148686128D01*
X174785714Y-148686128D02*
X174571428Y-148686128D01*
X174571428Y-148686128D02*
X174428571Y-148757557D01*
X174428571Y-148757557D02*
X174357142Y-148900414D01*
X174357142Y-148900414D02*
X174357142Y-149686128D01*
X173642857Y-149686128D02*
X173642857Y-148686128D01*
X173642857Y-148828985D02*
X173571428Y-148757557D01*
X173571428Y-148757557D02*
X173428571Y-148686128D01*
X173428571Y-148686128D02*
X173214285Y-148686128D01*
X173214285Y-148686128D02*
X173071428Y-148757557D01*
X173071428Y-148757557D02*
X173000000Y-148900414D01*
X173000000Y-148900414D02*
X173000000Y-149686128D01*
X173000000Y-148900414D02*
X172928571Y-148757557D01*
X172928571Y-148757557D02*
X172785714Y-148686128D01*
X172785714Y-148686128D02*
X172571428Y-148686128D01*
X172571428Y-148686128D02*
X172428571Y-148757557D01*
X172428571Y-148757557D02*
X172357142Y-148900414D01*
X172357142Y-148900414D02*
X172357142Y-149686128D01*
X271642856Y-105328985D02*
X271571428Y-105257557D01*
X271571428Y-105257557D02*
X271428571Y-105186128D01*
X271428571Y-105186128D02*
X271071428Y-105186128D01*
X271071428Y-105186128D02*
X270928571Y-105257557D01*
X270928571Y-105257557D02*
X270857142Y-105328985D01*
X270857142Y-105328985D02*
X270785713Y-105471842D01*
X270785713Y-105471842D02*
X270785713Y-105614700D01*
X270785713Y-105614700D02*
X270857142Y-105828985D01*
X270857142Y-105828985D02*
X271714285Y-106686128D01*
X271714285Y-106686128D02*
X270785713Y-106686128D01*
X270142857Y-106114700D02*
X269000000Y-106114700D01*
X269571428Y-106686128D02*
X269571428Y-105543271D01*
X268428571Y-105186128D02*
X267499999Y-105186128D01*
X267499999Y-105186128D02*
X267999999Y-105757557D01*
X267999999Y-105757557D02*
X267785714Y-105757557D01*
X267785714Y-105757557D02*
X267642857Y-105828985D01*
X267642857Y-105828985D02*
X267571428Y-105900414D01*
X267571428Y-105900414D02*
X267499999Y-106043271D01*
X267499999Y-106043271D02*
X267499999Y-106400414D01*
X267499999Y-106400414D02*
X267571428Y-106543271D01*
X267571428Y-106543271D02*
X267642857Y-106614700D01*
X267642857Y-106614700D02*
X267785714Y-106686128D01*
X267785714Y-106686128D02*
X268214285Y-106686128D01*
X268214285Y-106686128D02*
X268357142Y-106614700D01*
X268357142Y-106614700D02*
X268428571Y-106543271D01*
X265714286Y-106686128D02*
X265714286Y-105686128D01*
X265714286Y-105828985D02*
X265642857Y-105757557D01*
X265642857Y-105757557D02*
X265500000Y-105686128D01*
X265500000Y-105686128D02*
X265285714Y-105686128D01*
X265285714Y-105686128D02*
X265142857Y-105757557D01*
X265142857Y-105757557D02*
X265071429Y-105900414D01*
X265071429Y-105900414D02*
X265071429Y-106686128D01*
X265071429Y-105900414D02*
X265000000Y-105757557D01*
X265000000Y-105757557D02*
X264857143Y-105686128D01*
X264857143Y-105686128D02*
X264642857Y-105686128D01*
X264642857Y-105686128D02*
X264500000Y-105757557D01*
X264500000Y-105757557D02*
X264428571Y-105900414D01*
X264428571Y-105900414D02*
X264428571Y-106686128D01*
X263714286Y-106686128D02*
X263714286Y-105686128D01*
X263714286Y-105828985D02*
X263642857Y-105757557D01*
X263642857Y-105757557D02*
X263500000Y-105686128D01*
X263500000Y-105686128D02*
X263285714Y-105686128D01*
X263285714Y-105686128D02*
X263142857Y-105757557D01*
X263142857Y-105757557D02*
X263071429Y-105900414D01*
X263071429Y-105900414D02*
X263071429Y-106686128D01*
X263071429Y-105900414D02*
X263000000Y-105757557D01*
X263000000Y-105757557D02*
X262857143Y-105686128D01*
X262857143Y-105686128D02*
X262642857Y-105686128D01*
X262642857Y-105686128D02*
X262500000Y-105757557D01*
X262500000Y-105757557D02*
X262428571Y-105900414D01*
X262428571Y-105900414D02*
X262428571Y-106686128D01*
X267857141Y-104686128D02*
X268714284Y-104686128D01*
X268285713Y-104686128D02*
X268285713Y-103186128D01*
X268285713Y-103186128D02*
X268428570Y-103400414D01*
X268428570Y-103400414D02*
X268571427Y-103543271D01*
X268571427Y-103543271D02*
X268714284Y-103614700D01*
X266928570Y-103186128D02*
X266785713Y-103186128D01*
X266785713Y-103186128D02*
X266642856Y-103257557D01*
X266642856Y-103257557D02*
X266571428Y-103328985D01*
X266571428Y-103328985D02*
X266499999Y-103471842D01*
X266499999Y-103471842D02*
X266428570Y-103757557D01*
X266428570Y-103757557D02*
X266428570Y-104114700D01*
X266428570Y-104114700D02*
X266499999Y-104400414D01*
X266499999Y-104400414D02*
X266571428Y-104543271D01*
X266571428Y-104543271D02*
X266642856Y-104614700D01*
X266642856Y-104614700D02*
X266785713Y-104686128D01*
X266785713Y-104686128D02*
X266928570Y-104686128D01*
X266928570Y-104686128D02*
X267071428Y-104614700D01*
X267071428Y-104614700D02*
X267142856Y-104543271D01*
X267142856Y-104543271D02*
X267214285Y-104400414D01*
X267214285Y-104400414D02*
X267285713Y-104114700D01*
X267285713Y-104114700D02*
X267285713Y-103757557D01*
X267285713Y-103757557D02*
X267214285Y-103471842D01*
X267214285Y-103471842D02*
X267142856Y-103328985D01*
X267142856Y-103328985D02*
X267071428Y-103257557D01*
X267071428Y-103257557D02*
X266928570Y-103186128D01*
X264642857Y-104686128D02*
X264642857Y-103686128D01*
X264642857Y-103828985D02*
X264571428Y-103757557D01*
X264571428Y-103757557D02*
X264428571Y-103686128D01*
X264428571Y-103686128D02*
X264214285Y-103686128D01*
X264214285Y-103686128D02*
X264071428Y-103757557D01*
X264071428Y-103757557D02*
X264000000Y-103900414D01*
X264000000Y-103900414D02*
X264000000Y-104686128D01*
X264000000Y-103900414D02*
X263928571Y-103757557D01*
X263928571Y-103757557D02*
X263785714Y-103686128D01*
X263785714Y-103686128D02*
X263571428Y-103686128D01*
X263571428Y-103686128D02*
X263428571Y-103757557D01*
X263428571Y-103757557D02*
X263357142Y-103900414D01*
X263357142Y-103900414D02*
X263357142Y-104686128D01*
X262642857Y-104686128D02*
X262642857Y-103686128D01*
X262642857Y-103828985D02*
X262571428Y-103757557D01*
X262571428Y-103757557D02*
X262428571Y-103686128D01*
X262428571Y-103686128D02*
X262214285Y-103686128D01*
X262214285Y-103686128D02*
X262071428Y-103757557D01*
X262071428Y-103757557D02*
X262000000Y-103900414D01*
X262000000Y-103900414D02*
X262000000Y-104686128D01*
X262000000Y-103900414D02*
X261928571Y-103757557D01*
X261928571Y-103757557D02*
X261785714Y-103686128D01*
X261785714Y-103686128D02*
X261571428Y-103686128D01*
X261571428Y-103686128D02*
X261428571Y-103757557D01*
X261428571Y-103757557D02*
X261357142Y-103900414D01*
X261357142Y-103900414D02*
X261357142Y-104686128D01*
X231928570Y-100186128D02*
X232642856Y-100186128D01*
X232642856Y-100186128D02*
X232714284Y-100900414D01*
X232714284Y-100900414D02*
X232642856Y-100828985D01*
X232642856Y-100828985D02*
X232499999Y-100757557D01*
X232499999Y-100757557D02*
X232142856Y-100757557D01*
X232142856Y-100757557D02*
X231999999Y-100828985D01*
X231999999Y-100828985D02*
X231928570Y-100900414D01*
X231928570Y-100900414D02*
X231857141Y-101043271D01*
X231857141Y-101043271D02*
X231857141Y-101400414D01*
X231857141Y-101400414D02*
X231928570Y-101543271D01*
X231928570Y-101543271D02*
X231999999Y-101614700D01*
X231999999Y-101614700D02*
X232142856Y-101686128D01*
X232142856Y-101686128D02*
X232499999Y-101686128D01*
X232499999Y-101686128D02*
X232642856Y-101614700D01*
X232642856Y-101614700D02*
X232714284Y-101543271D01*
X230499999Y-100186128D02*
X231214285Y-100186128D01*
X231214285Y-100186128D02*
X231285713Y-100900414D01*
X231285713Y-100900414D02*
X231214285Y-100828985D01*
X231214285Y-100828985D02*
X231071428Y-100757557D01*
X231071428Y-100757557D02*
X230714285Y-100757557D01*
X230714285Y-100757557D02*
X230571428Y-100828985D01*
X230571428Y-100828985D02*
X230499999Y-100900414D01*
X230499999Y-100900414D02*
X230428570Y-101043271D01*
X230428570Y-101043271D02*
X230428570Y-101400414D01*
X230428570Y-101400414D02*
X230499999Y-101543271D01*
X230499999Y-101543271D02*
X230571428Y-101614700D01*
X230571428Y-101614700D02*
X230714285Y-101686128D01*
X230714285Y-101686128D02*
X231071428Y-101686128D01*
X231071428Y-101686128D02*
X231214285Y-101614700D01*
X231214285Y-101614700D02*
X231285713Y-101543271D01*
X228642857Y-101686128D02*
X228642857Y-100686128D01*
X228642857Y-100828985D02*
X228571428Y-100757557D01*
X228571428Y-100757557D02*
X228428571Y-100686128D01*
X228428571Y-100686128D02*
X228214285Y-100686128D01*
X228214285Y-100686128D02*
X228071428Y-100757557D01*
X228071428Y-100757557D02*
X228000000Y-100900414D01*
X228000000Y-100900414D02*
X228000000Y-101686128D01*
X228000000Y-100900414D02*
X227928571Y-100757557D01*
X227928571Y-100757557D02*
X227785714Y-100686128D01*
X227785714Y-100686128D02*
X227571428Y-100686128D01*
X227571428Y-100686128D02*
X227428571Y-100757557D01*
X227428571Y-100757557D02*
X227357142Y-100900414D01*
X227357142Y-100900414D02*
X227357142Y-101686128D01*
X226642857Y-101686128D02*
X226642857Y-100686128D01*
X226642857Y-100828985D02*
X226571428Y-100757557D01*
X226571428Y-100757557D02*
X226428571Y-100686128D01*
X226428571Y-100686128D02*
X226214285Y-100686128D01*
X226214285Y-100686128D02*
X226071428Y-100757557D01*
X226071428Y-100757557D02*
X226000000Y-100900414D01*
X226000000Y-100900414D02*
X226000000Y-101686128D01*
X226000000Y-100900414D02*
X225928571Y-100757557D01*
X225928571Y-100757557D02*
X225785714Y-100686128D01*
X225785714Y-100686128D02*
X225571428Y-100686128D01*
X225571428Y-100686128D02*
X225428571Y-100757557D01*
X225428571Y-100757557D02*
X225357142Y-100900414D01*
X225357142Y-100900414D02*
X225357142Y-101686128D01*
X116428570Y-78828985D02*
X116571427Y-78757557D01*
X116571427Y-78757557D02*
X116642856Y-78686128D01*
X116642856Y-78686128D02*
X116714284Y-78543271D01*
X116714284Y-78543271D02*
X116714284Y-78471842D01*
X116714284Y-78471842D02*
X116642856Y-78328985D01*
X116642856Y-78328985D02*
X116571427Y-78257557D01*
X116571427Y-78257557D02*
X116428570Y-78186128D01*
X116428570Y-78186128D02*
X116142856Y-78186128D01*
X116142856Y-78186128D02*
X115999999Y-78257557D01*
X115999999Y-78257557D02*
X115928570Y-78328985D01*
X115928570Y-78328985D02*
X115857141Y-78471842D01*
X115857141Y-78471842D02*
X115857141Y-78543271D01*
X115857141Y-78543271D02*
X115928570Y-78686128D01*
X115928570Y-78686128D02*
X115999999Y-78757557D01*
X115999999Y-78757557D02*
X116142856Y-78828985D01*
X116142856Y-78828985D02*
X116428570Y-78828985D01*
X116428570Y-78828985D02*
X116571427Y-78900414D01*
X116571427Y-78900414D02*
X116642856Y-78971842D01*
X116642856Y-78971842D02*
X116714284Y-79114700D01*
X116714284Y-79114700D02*
X116714284Y-79400414D01*
X116714284Y-79400414D02*
X116642856Y-79543271D01*
X116642856Y-79543271D02*
X116571427Y-79614700D01*
X116571427Y-79614700D02*
X116428570Y-79686128D01*
X116428570Y-79686128D02*
X116142856Y-79686128D01*
X116142856Y-79686128D02*
X115999999Y-79614700D01*
X115999999Y-79614700D02*
X115928570Y-79543271D01*
X115928570Y-79543271D02*
X115857141Y-79400414D01*
X115857141Y-79400414D02*
X115857141Y-79114700D01*
X115857141Y-79114700D02*
X115928570Y-78971842D01*
X115928570Y-78971842D02*
X115999999Y-78900414D01*
X115999999Y-78900414D02*
X116142856Y-78828985D01*
X114928570Y-78186128D02*
X114785713Y-78186128D01*
X114785713Y-78186128D02*
X114642856Y-78257557D01*
X114642856Y-78257557D02*
X114571428Y-78328985D01*
X114571428Y-78328985D02*
X114499999Y-78471842D01*
X114499999Y-78471842D02*
X114428570Y-78757557D01*
X114428570Y-78757557D02*
X114428570Y-79114700D01*
X114428570Y-79114700D02*
X114499999Y-79400414D01*
X114499999Y-79400414D02*
X114571428Y-79543271D01*
X114571428Y-79543271D02*
X114642856Y-79614700D01*
X114642856Y-79614700D02*
X114785713Y-79686128D01*
X114785713Y-79686128D02*
X114928570Y-79686128D01*
X114928570Y-79686128D02*
X115071428Y-79614700D01*
X115071428Y-79614700D02*
X115142856Y-79543271D01*
X115142856Y-79543271D02*
X115214285Y-79400414D01*
X115214285Y-79400414D02*
X115285713Y-79114700D01*
X115285713Y-79114700D02*
X115285713Y-78757557D01*
X115285713Y-78757557D02*
X115214285Y-78471842D01*
X115214285Y-78471842D02*
X115142856Y-78328985D01*
X115142856Y-78328985D02*
X115071428Y-78257557D01*
X115071428Y-78257557D02*
X114928570Y-78186128D01*
X112642857Y-79686128D02*
X112642857Y-78686128D01*
X112642857Y-78828985D02*
X112571428Y-78757557D01*
X112571428Y-78757557D02*
X112428571Y-78686128D01*
X112428571Y-78686128D02*
X112214285Y-78686128D01*
X112214285Y-78686128D02*
X112071428Y-78757557D01*
X112071428Y-78757557D02*
X112000000Y-78900414D01*
X112000000Y-78900414D02*
X112000000Y-79686128D01*
X112000000Y-78900414D02*
X111928571Y-78757557D01*
X111928571Y-78757557D02*
X111785714Y-78686128D01*
X111785714Y-78686128D02*
X111571428Y-78686128D01*
X111571428Y-78686128D02*
X111428571Y-78757557D01*
X111428571Y-78757557D02*
X111357142Y-78900414D01*
X111357142Y-78900414D02*
X111357142Y-79686128D01*
X110642857Y-79686128D02*
X110642857Y-78686128D01*
X110642857Y-78828985D02*
X110571428Y-78757557D01*
X110571428Y-78757557D02*
X110428571Y-78686128D01*
X110428571Y-78686128D02*
X110214285Y-78686128D01*
X110214285Y-78686128D02*
X110071428Y-78757557D01*
X110071428Y-78757557D02*
X110000000Y-78900414D01*
X110000000Y-78900414D02*
X110000000Y-79686128D01*
X110000000Y-78900414D02*
X109928571Y-78757557D01*
X109928571Y-78757557D02*
X109785714Y-78686128D01*
X109785714Y-78686128D02*
X109571428Y-78686128D01*
X109571428Y-78686128D02*
X109428571Y-78757557D01*
X109428571Y-78757557D02*
X109357142Y-78900414D01*
X109357142Y-78900414D02*
X109357142Y-79686128D01*
X182999999Y-98686128D02*
X182999999Y-99686128D01*
X183357141Y-98114700D02*
X183714284Y-99186128D01*
X183714284Y-99186128D02*
X182785713Y-99186128D01*
X181928570Y-98186128D02*
X181785713Y-98186128D01*
X181785713Y-98186128D02*
X181642856Y-98257557D01*
X181642856Y-98257557D02*
X181571428Y-98328985D01*
X181571428Y-98328985D02*
X181499999Y-98471842D01*
X181499999Y-98471842D02*
X181428570Y-98757557D01*
X181428570Y-98757557D02*
X181428570Y-99114700D01*
X181428570Y-99114700D02*
X181499999Y-99400414D01*
X181499999Y-99400414D02*
X181571428Y-99543271D01*
X181571428Y-99543271D02*
X181642856Y-99614700D01*
X181642856Y-99614700D02*
X181785713Y-99686128D01*
X181785713Y-99686128D02*
X181928570Y-99686128D01*
X181928570Y-99686128D02*
X182071428Y-99614700D01*
X182071428Y-99614700D02*
X182142856Y-99543271D01*
X182142856Y-99543271D02*
X182214285Y-99400414D01*
X182214285Y-99400414D02*
X182285713Y-99114700D01*
X182285713Y-99114700D02*
X182285713Y-98757557D01*
X182285713Y-98757557D02*
X182214285Y-98471842D01*
X182214285Y-98471842D02*
X182142856Y-98328985D01*
X182142856Y-98328985D02*
X182071428Y-98257557D01*
X182071428Y-98257557D02*
X181928570Y-98186128D01*
X179642857Y-99686128D02*
X179642857Y-98686128D01*
X179642857Y-98828985D02*
X179571428Y-98757557D01*
X179571428Y-98757557D02*
X179428571Y-98686128D01*
X179428571Y-98686128D02*
X179214285Y-98686128D01*
X179214285Y-98686128D02*
X179071428Y-98757557D01*
X179071428Y-98757557D02*
X179000000Y-98900414D01*
X179000000Y-98900414D02*
X179000000Y-99686128D01*
X179000000Y-98900414D02*
X178928571Y-98757557D01*
X178928571Y-98757557D02*
X178785714Y-98686128D01*
X178785714Y-98686128D02*
X178571428Y-98686128D01*
X178571428Y-98686128D02*
X178428571Y-98757557D01*
X178428571Y-98757557D02*
X178357142Y-98900414D01*
X178357142Y-98900414D02*
X178357142Y-99686128D01*
X177642857Y-99686128D02*
X177642857Y-98686128D01*
X177642857Y-98828985D02*
X177571428Y-98757557D01*
X177571428Y-98757557D02*
X177428571Y-98686128D01*
X177428571Y-98686128D02*
X177214285Y-98686128D01*
X177214285Y-98686128D02*
X177071428Y-98757557D01*
X177071428Y-98757557D02*
X177000000Y-98900414D01*
X177000000Y-98900414D02*
X177000000Y-99686128D01*
X177000000Y-98900414D02*
X176928571Y-98757557D01*
X176928571Y-98757557D02*
X176785714Y-98686128D01*
X176785714Y-98686128D02*
X176571428Y-98686128D01*
X176571428Y-98686128D02*
X176428571Y-98757557D01*
X176428571Y-98757557D02*
X176357142Y-98900414D01*
X176357142Y-98900414D02*
X176357142Y-99686128D01*
M02*
