G04 #@! TF.GenerationSoftware,KiCad,Pcbnew,7.0.9-dirty*
G04 #@! TF.CreationDate,2024-01-14T20:59:28+01:00*
G04 #@! TF.ProjectId,ranura 13857,72616e75-7261-4203-9133-3835372e6b69,1*
G04 #@! TF.SameCoordinates,Original*
G04 #@! TF.FileFunction,Soldermask,Top*
G04 #@! TF.FilePolarity,Negative*
%FSLAX46Y46*%
G04 Gerber Fmt 4.6, Leading zero omitted, Abs format (unit mm)*
G04 Created by KiCad (PCBNEW 7.0.9-dirty) date 2024-01-14 20:59:28*
%MOMM*%
%LPD*%
G01*
G04 APERTURE LIST*
%ADD10C,0.150000*%
%ADD11C,5.000000*%
G04 APERTURE END LIST*
D10*
X25000000Y-105000000D02*
X25000000Y-105000000D01*
X26000000Y-108000000D02*
X26000000Y-107000000D01*
X27000000Y-108000000D02*
X27000000Y-107000000D01*
X28000000Y-108000000D02*
X28000000Y-107000000D01*
X29000000Y-108000000D02*
X29000000Y-107000000D01*
X30000000Y-108000000D02*
X30000000Y-106000000D01*
X31000000Y-108000000D02*
X31000000Y-107000000D01*
X32000000Y-108000000D02*
X32000000Y-107000000D01*
X33000000Y-108000000D02*
X33000000Y-107000000D01*
X34000000Y-108000000D02*
X34000000Y-107000000D01*
X35000000Y-108000000D02*
X35000000Y-105000000D01*
X36000000Y-108000000D02*
X36000000Y-107000000D01*
X37000000Y-108000000D02*
X37000000Y-107000000D01*
X38000000Y-108000000D02*
X38000000Y-107000000D01*
X39000000Y-108000000D02*
X39000000Y-107000000D01*
X40000000Y-108000000D02*
X40000000Y-106000000D01*
X41000000Y-108000000D02*
X41000000Y-107000000D01*
X42000000Y-108000000D02*
X42000000Y-107000000D01*
X43000000Y-108000000D02*
X43000000Y-107000000D01*
X44000000Y-108000000D02*
X44000000Y-107000000D01*
X45000000Y-108000000D02*
X45000000Y-105000000D01*
X46000000Y-108000000D02*
X46000000Y-107000000D01*
X47000000Y-108000000D02*
X47000000Y-107000000D01*
X48000000Y-108000000D02*
X48000000Y-107000000D01*
X49000000Y-108000000D02*
X49000000Y-107000000D01*
X50000000Y-108000000D02*
X50000000Y-106000000D01*
X51000000Y-108000000D02*
X51000000Y-107000000D01*
X52000000Y-108000000D02*
X52000000Y-107000000D01*
X53000000Y-108000000D02*
X53000000Y-107000000D01*
X54000000Y-108000000D02*
X54000000Y-107000000D01*
X55000000Y-108000000D02*
X55000000Y-105000000D01*
X56000000Y-108000000D02*
X56000000Y-107000000D01*
X57000000Y-108000000D02*
X57000000Y-107000000D01*
X58000000Y-108000000D02*
X58000000Y-107000000D01*
X59000000Y-108000000D02*
X59000000Y-107000000D01*
X60000000Y-108000000D02*
X60000000Y-106000000D01*
X61000000Y-108000000D02*
X61000000Y-107000000D01*
X62000000Y-108000000D02*
X62000000Y-107000000D01*
X63000000Y-108000000D02*
X63000000Y-107000000D01*
X64000000Y-108000000D02*
X64000000Y-107000000D01*
X65000000Y-108000000D02*
X65000000Y-105000000D01*
X66000000Y-108000000D02*
X66000000Y-107000000D01*
X67000000Y-108000000D02*
X67000000Y-107000000D01*
X68000000Y-108000000D02*
X68000000Y-107000000D01*
X69000000Y-108000000D02*
X69000000Y-107000000D01*
X70000000Y-108000000D02*
X70000000Y-106000000D01*
X71000000Y-108000000D02*
X71000000Y-107000000D01*
X72000000Y-108000000D02*
X72000000Y-107000000D01*
X73000000Y-108000000D02*
X73000000Y-107000000D01*
X74000000Y-108000000D02*
X74000000Y-107000000D01*
X75000000Y-108000000D02*
X75000000Y-105000000D01*
X76000000Y-108000000D02*
X76000000Y-107000000D01*
X77000000Y-108000000D02*
X77000000Y-107000000D01*
X78000000Y-108000000D02*
X78000000Y-107000000D01*
X79000000Y-108000000D02*
X79000000Y-107000000D01*
X80000000Y-108000000D02*
X80000000Y-106000000D01*
X81000000Y-108000000D02*
X81000000Y-107000000D01*
X82000000Y-108000000D02*
X82000000Y-107000000D01*
X83000000Y-108000000D02*
X83000000Y-107000000D01*
X84000000Y-108000000D02*
X84000000Y-107000000D01*
X85000000Y-108000000D02*
X85000000Y-105000000D01*
X86000000Y-108000000D02*
X86000000Y-107000000D01*
X87000000Y-108000000D02*
X87000000Y-107000000D01*
X88000000Y-108000000D02*
X88000000Y-107000000D01*
X89000000Y-108000000D02*
X89000000Y-107000000D01*
X90000000Y-108000000D02*
X90000000Y-106000000D01*
X91000000Y-108000000D02*
X91000000Y-107000000D01*
X92000000Y-108000000D02*
X92000000Y-107000000D01*
X93000000Y-108000000D02*
X93000000Y-107000000D01*
X94000000Y-108000000D02*
X94000000Y-107000000D01*
X95000000Y-108000000D02*
X95000000Y-105000000D01*
X96000000Y-108000000D02*
X96000000Y-107000000D01*
X97000000Y-108000000D02*
X97000000Y-107000000D01*
X98000000Y-108000000D02*
X98000000Y-107000000D01*
X99000000Y-108000000D02*
X99000000Y-107000000D01*
X100000000Y-108000000D02*
X100000000Y-106000000D01*
X101000000Y-108000000D02*
X101000000Y-107000000D01*
X102000000Y-108000000D02*
X102000000Y-107000000D01*
X103000000Y-108000000D02*
X103000000Y-107000000D01*
X104000000Y-108000000D02*
X104000000Y-107000000D01*
X105000000Y-108000000D02*
X105000000Y-105000000D01*
X106000000Y-108000000D02*
X106000000Y-107000000D01*
X107000000Y-108000000D02*
X107000000Y-107000000D01*
X108000000Y-108000000D02*
X108000000Y-107000000D01*
X109000000Y-108000000D02*
X109000000Y-107000000D01*
X110000000Y-108000000D02*
X110000000Y-106000000D01*
X111000000Y-108000000D02*
X111000000Y-107000000D01*
X112000000Y-108000000D02*
X112000000Y-107000000D01*
X113000000Y-108000000D02*
X113000000Y-107000000D01*
X114000000Y-108000000D02*
X114000000Y-107000000D01*
X115000000Y-108000000D02*
X115000000Y-105000000D01*
X116000000Y-108000000D02*
X116000000Y-107000000D01*
X117000000Y-108000000D02*
X117000000Y-107000000D01*
X118000000Y-108000000D02*
X118000000Y-107000000D01*
X119000000Y-108000000D02*
X119000000Y-107000000D01*
X120000000Y-108000000D02*
X120000000Y-106000000D01*
X121000000Y-108000000D02*
X121000000Y-107000000D01*
X122000000Y-108000000D02*
X122000000Y-107000000D01*
X123000000Y-108000000D02*
X123000000Y-107000000D01*
X124000000Y-108000000D02*
X124000000Y-107000000D01*
X125000000Y-108000000D02*
X125000000Y-105000000D01*
X126000000Y-108000000D02*
X126000000Y-107000000D01*
X127000000Y-108000000D02*
X127000000Y-107000000D01*
X128000000Y-108000000D02*
X128000000Y-107000000D01*
X129000000Y-108000000D02*
X129000000Y-107000000D01*
X130000000Y-108000000D02*
X130000000Y-106000000D01*
X131000000Y-108000000D02*
X131000000Y-107000000D01*
X132000000Y-108000000D02*
X132000000Y-107000000D01*
X133000000Y-108000000D02*
X133000000Y-107000000D01*
X134000000Y-108000000D02*
X134000000Y-107000000D01*
X135000000Y-108000000D02*
X135000000Y-105000000D01*
X136000000Y-108000000D02*
X136000000Y-107000000D01*
X137000000Y-108000000D02*
X137000000Y-107000000D01*
X138000000Y-108000000D02*
X138000000Y-107000000D01*
X139000000Y-108000000D02*
X139000000Y-107000000D01*
X140000000Y-108000000D02*
X140000000Y-106000000D01*
X141000000Y-108000000D02*
X141000000Y-107000000D01*
X142000000Y-108000000D02*
X142000000Y-107000000D01*
X143000000Y-108000000D02*
X143000000Y-107000000D01*
X144000000Y-108000000D02*
X144000000Y-107000000D01*
X145000000Y-108000000D02*
X145000000Y-105000000D01*
X146000000Y-108000000D02*
X146000000Y-107000000D01*
X147000000Y-108000000D02*
X147000000Y-107000000D01*
X148000000Y-108000000D02*
X148000000Y-107000000D01*
X149000000Y-108000000D02*
X149000000Y-107000000D01*
X150000000Y-108000000D02*
X150000000Y-106000000D01*
X151000000Y-108000000D02*
X151000000Y-107000000D01*
X152000000Y-108000000D02*
X152000000Y-107000000D01*
X153000000Y-108000000D02*
X153000000Y-107000000D01*
X154000000Y-108000000D02*
X154000000Y-107000000D01*
X155000000Y-108000000D02*
X155000000Y-105000000D01*
X156000000Y-108000000D02*
X156000000Y-107000000D01*
X157000000Y-108000000D02*
X157000000Y-107000000D01*
X158000000Y-108000000D02*
X158000000Y-107000000D01*
X159000000Y-108000000D02*
X159000000Y-107000000D01*
X160000000Y-108000000D02*
X160000000Y-106000000D01*
X161000000Y-108000000D02*
X161000000Y-107000000D01*
X162000000Y-108000000D02*
X162000000Y-107000000D01*
X163000000Y-108000000D02*
X163000000Y-107000000D01*
X164000000Y-108000000D02*
X164000000Y-107000000D01*
X165000000Y-108000000D02*
X165000000Y-105000000D01*
X166000000Y-108000000D02*
X166000000Y-107000000D01*
X167000000Y-108000000D02*
X167000000Y-107000000D01*
X168000000Y-108000000D02*
X168000000Y-107000000D01*
X169000000Y-108000000D02*
X169000000Y-107000000D01*
X170000000Y-108000000D02*
X170000000Y-106000000D01*
X171000000Y-108000000D02*
X171000000Y-107000000D01*
X172000000Y-108000000D02*
X172000000Y-107000000D01*
X173000000Y-108000000D02*
X173000000Y-107000000D01*
X174000000Y-108000000D02*
X174000000Y-107000000D01*
X175000000Y-108000000D02*
X175000000Y-105000000D01*
X176000000Y-108000000D02*
X176000000Y-107000000D01*
X177000000Y-108000000D02*
X177000000Y-107000000D01*
X178000000Y-108000000D02*
X178000000Y-107000000D01*
X179000000Y-108000000D02*
X179000000Y-107000000D01*
X180000000Y-108000000D02*
X180000000Y-106000000D01*
X181000000Y-108000000D02*
X181000000Y-107000000D01*
X182000000Y-108000000D02*
X182000000Y-107000000D01*
X183000000Y-108000000D02*
X183000000Y-107000000D01*
X184000000Y-108000000D02*
X184000000Y-107000000D01*
X185000000Y-108000000D02*
X185000000Y-105000000D01*
X186000000Y-108000000D02*
X186000000Y-107000000D01*
X187000000Y-108000000D02*
X187000000Y-107000000D01*
X188000000Y-108000000D02*
X188000000Y-107000000D01*
X189000000Y-108000000D02*
X189000000Y-107000000D01*
X190000000Y-108000000D02*
X190000000Y-106000000D01*
X191000000Y-108000000D02*
X191000000Y-107000000D01*
X192000000Y-108000000D02*
X192000000Y-107000000D01*
X193000000Y-108000000D02*
X193000000Y-107000000D01*
X194000000Y-108000000D02*
X194000000Y-107000000D01*
X195000000Y-108000000D02*
X195000000Y-105000000D01*
X196000000Y-108000000D02*
X196000000Y-107000000D01*
X197000000Y-108000000D02*
X197000000Y-107000000D01*
X198000000Y-108000000D02*
X198000000Y-107000000D01*
X199000000Y-108000000D02*
X199000000Y-107000000D01*
X200000000Y-108000000D02*
X200000000Y-106000000D01*
X201000000Y-108000000D02*
X201000000Y-107000000D01*
X202000000Y-108000000D02*
X202000000Y-107000000D01*
X203000000Y-108000000D02*
X203000000Y-107000000D01*
X204000000Y-108000000D02*
X204000000Y-107000000D01*
X205000000Y-108000000D02*
X205000000Y-105000000D01*
X206000000Y-108000000D02*
X206000000Y-107000000D01*
X207000000Y-108000000D02*
X207000000Y-107000000D01*
X208000000Y-108000000D02*
X208000000Y-107000000D01*
X209000000Y-108000000D02*
X209000000Y-107000000D01*
X210000000Y-108000000D02*
X210000000Y-106000000D01*
X211000000Y-108000000D02*
X211000000Y-107000000D01*
X212000000Y-108000000D02*
X212000000Y-107000000D01*
X213000000Y-108000000D02*
X213000000Y-107000000D01*
X214000000Y-108000000D02*
X214000000Y-107000000D01*
X215000000Y-108000000D02*
X215000000Y-105000000D01*
X216000000Y-108000000D02*
X216000000Y-107000000D01*
X217000000Y-108000000D02*
X217000000Y-107000000D01*
X218000000Y-108000000D02*
X218000000Y-107000000D01*
X219000000Y-108000000D02*
X219000000Y-107000000D01*
X220000000Y-108000000D02*
X220000000Y-106000000D01*
X221000000Y-108000000D02*
X221000000Y-107000000D01*
X222000000Y-108000000D02*
X222000000Y-107000000D01*
X223000000Y-108000000D02*
X223000000Y-107000000D01*
X224000000Y-108000000D02*
X224000000Y-107000000D01*
X225000000Y-108000000D02*
X225000000Y-105000000D01*
X226000000Y-108000000D02*
X226000000Y-107000000D01*
X227000000Y-108000000D02*
X227000000Y-107000000D01*
X228000000Y-108000000D02*
X228000000Y-107000000D01*
X229000000Y-108000000D02*
X229000000Y-107000000D01*
X230000000Y-108000000D02*
X230000000Y-106000000D01*
X231000000Y-108000000D02*
X231000000Y-107000000D01*
X232000000Y-108000000D02*
X232000000Y-107000000D01*
X233000000Y-108000000D02*
X233000000Y-107000000D01*
X234000000Y-108000000D02*
X234000000Y-107000000D01*
X235000000Y-108000000D02*
X235000000Y-105000000D01*
X236000000Y-108000000D02*
X236000000Y-107000000D01*
X237000000Y-108000000D02*
X237000000Y-107000000D01*
X238000000Y-108000000D02*
X238000000Y-107000000D01*
X239000000Y-108000000D02*
X239000000Y-107000000D01*
X240000000Y-108000000D02*
X240000000Y-106000000D01*
X241000000Y-108000000D02*
X241000000Y-107000000D01*
X242000000Y-108000000D02*
X242000000Y-107000000D01*
X243000000Y-108000000D02*
X243000000Y-107000000D01*
X244000000Y-108000000D02*
X244000000Y-107000000D01*
X245000000Y-108000000D02*
X245000000Y-105000000D01*
X246000000Y-108000000D02*
X246000000Y-107000000D01*
X247000000Y-108000000D02*
X247000000Y-107000000D01*
X248000000Y-108000000D02*
X248000000Y-107000000D01*
X249000000Y-108000000D02*
X249000000Y-107000000D01*
X250000000Y-108000000D02*
X250000000Y-106000000D01*
X251000000Y-108000000D02*
X251000000Y-107000000D01*
X252000000Y-108000000D02*
X252000000Y-107000000D01*
X253000000Y-108000000D02*
X253000000Y-107000000D01*
X254000000Y-108000000D02*
X254000000Y-107000000D01*
X255000000Y-108000000D02*
X255000000Y-105000000D01*
X256000000Y-108000000D02*
X256000000Y-107000000D01*
X257000000Y-108000000D02*
X257000000Y-107000000D01*
X258000000Y-108000000D02*
X258000000Y-107000000D01*
X259000000Y-108000000D02*
X259000000Y-107000000D01*
X260000000Y-108000000D02*
X260000000Y-106000000D01*
X261000000Y-108000000D02*
X261000000Y-107000000D01*
X262000000Y-108000000D02*
X262000000Y-107000000D01*
X263000000Y-108000000D02*
X263000000Y-107000000D01*
X264000000Y-108000000D02*
X264000000Y-107000000D01*
X265000000Y-108000000D02*
X265000000Y-105000000D01*
X266000000Y-108000000D02*
X266000000Y-107000000D01*
X267000000Y-108000000D02*
X267000000Y-107000000D01*
X268000000Y-108000000D02*
X268000000Y-107000000D01*
X269000000Y-108000000D02*
X269000000Y-107000000D01*
X270000000Y-108000000D02*
X270000000Y-106000000D01*
X271000000Y-108000000D02*
X271000000Y-107000000D01*
X272000000Y-108000000D02*
X272000000Y-107000000D01*
X273000000Y-108000000D02*
X273000000Y-107000000D01*
X274000000Y-108000000D02*
X274000000Y-107000000D01*
X24000000Y-155000000D02*
X24000000Y-155000000D01*
X25000000Y-158000000D02*
X25000000Y-157000000D01*
X26000000Y-158000000D02*
X26000000Y-157000000D01*
X27000000Y-158000000D02*
X27000000Y-157000000D01*
X28000000Y-158000000D02*
X28000000Y-157000000D01*
X29000000Y-158000000D02*
X29000000Y-156000000D01*
X30000000Y-158000000D02*
X30000000Y-157000000D01*
X31000000Y-158000000D02*
X31000000Y-157000000D01*
X32000000Y-158000000D02*
X32000000Y-157000000D01*
X33000000Y-158000000D02*
X33000000Y-157000000D01*
X34000000Y-158000000D02*
X34000000Y-155000000D01*
X35000000Y-158000000D02*
X35000000Y-157000000D01*
X36000000Y-158000000D02*
X36000000Y-157000000D01*
X37000000Y-158000000D02*
X37000000Y-157000000D01*
X38000000Y-158000000D02*
X38000000Y-157000000D01*
X39000000Y-158000000D02*
X39000000Y-156000000D01*
X40000000Y-158000000D02*
X40000000Y-157000000D01*
X41000000Y-158000000D02*
X41000000Y-157000000D01*
X42000000Y-158000000D02*
X42000000Y-157000000D01*
X43000000Y-158000000D02*
X43000000Y-157000000D01*
X44000000Y-158000000D02*
X44000000Y-155000000D01*
X45000000Y-158000000D02*
X45000000Y-157000000D01*
X46000000Y-158000000D02*
X46000000Y-157000000D01*
X47000000Y-158000000D02*
X47000000Y-157000000D01*
X48000000Y-158000000D02*
X48000000Y-157000000D01*
X49000000Y-158000000D02*
X49000000Y-156000000D01*
X50000000Y-158000000D02*
X50000000Y-157000000D01*
X51000000Y-158000000D02*
X51000000Y-157000000D01*
X52000000Y-158000000D02*
X52000000Y-157000000D01*
X53000000Y-158000000D02*
X53000000Y-157000000D01*
X54000000Y-158000000D02*
X54000000Y-155000000D01*
X55000000Y-158000000D02*
X55000000Y-157000000D01*
X56000000Y-158000000D02*
X56000000Y-157000000D01*
X57000000Y-158000000D02*
X57000000Y-157000000D01*
X58000000Y-158000000D02*
X58000000Y-157000000D01*
X59000000Y-158000000D02*
X59000000Y-156000000D01*
X60000000Y-158000000D02*
X60000000Y-157000000D01*
X61000000Y-158000000D02*
X61000000Y-157000000D01*
X62000000Y-158000000D02*
X62000000Y-157000000D01*
X63000000Y-158000000D02*
X63000000Y-157000000D01*
X64000000Y-158000000D02*
X64000000Y-155000000D01*
X65000000Y-158000000D02*
X65000000Y-157000000D01*
X66000000Y-158000000D02*
X66000000Y-157000000D01*
X67000000Y-158000000D02*
X67000000Y-157000000D01*
X68000000Y-158000000D02*
X68000000Y-157000000D01*
X69000000Y-158000000D02*
X69000000Y-156000000D01*
X70000000Y-158000000D02*
X70000000Y-157000000D01*
X71000000Y-158000000D02*
X71000000Y-157000000D01*
X72000000Y-158000000D02*
X72000000Y-157000000D01*
X73000000Y-158000000D02*
X73000000Y-157000000D01*
X74000000Y-158000000D02*
X74000000Y-155000000D01*
X75000000Y-158000000D02*
X75000000Y-157000000D01*
X76000000Y-158000000D02*
X76000000Y-157000000D01*
X77000000Y-158000000D02*
X77000000Y-157000000D01*
X78000000Y-158000000D02*
X78000000Y-157000000D01*
X79000000Y-158000000D02*
X79000000Y-156000000D01*
X80000000Y-158000000D02*
X80000000Y-157000000D01*
X81000000Y-158000000D02*
X81000000Y-157000000D01*
X82000000Y-158000000D02*
X82000000Y-157000000D01*
X83000000Y-158000000D02*
X83000000Y-157000000D01*
X84000000Y-158000000D02*
X84000000Y-155000000D01*
X85000000Y-158000000D02*
X85000000Y-157000000D01*
X86000000Y-158000000D02*
X86000000Y-157000000D01*
X87000000Y-158000000D02*
X87000000Y-157000000D01*
X88000000Y-158000000D02*
X88000000Y-157000000D01*
X89000000Y-158000000D02*
X89000000Y-156000000D01*
X90000000Y-158000000D02*
X90000000Y-157000000D01*
X91000000Y-158000000D02*
X91000000Y-157000000D01*
X92000000Y-158000000D02*
X92000000Y-157000000D01*
X93000000Y-158000000D02*
X93000000Y-157000000D01*
X94000000Y-158000000D02*
X94000000Y-155000000D01*
X95000000Y-158000000D02*
X95000000Y-157000000D01*
X96000000Y-158000000D02*
X96000000Y-157000000D01*
X97000000Y-158000000D02*
X97000000Y-157000000D01*
X98000000Y-158000000D02*
X98000000Y-157000000D01*
X99000000Y-158000000D02*
X99000000Y-156000000D01*
X100000000Y-158000000D02*
X100000000Y-157000000D01*
X101000000Y-158000000D02*
X101000000Y-157000000D01*
X102000000Y-158000000D02*
X102000000Y-157000000D01*
X103000000Y-158000000D02*
X103000000Y-157000000D01*
X104000000Y-158000000D02*
X104000000Y-155000000D01*
X105000000Y-158000000D02*
X105000000Y-157000000D01*
X106000000Y-158000000D02*
X106000000Y-157000000D01*
X107000000Y-158000000D02*
X107000000Y-157000000D01*
X108000000Y-158000000D02*
X108000000Y-157000000D01*
X109000000Y-158000000D02*
X109000000Y-156000000D01*
X110000000Y-158000000D02*
X110000000Y-157000000D01*
X111000000Y-158000000D02*
X111000000Y-157000000D01*
X112000000Y-158000000D02*
X112000000Y-157000000D01*
X113000000Y-158000000D02*
X113000000Y-157000000D01*
X114000000Y-158000000D02*
X114000000Y-155000000D01*
X115000000Y-158000000D02*
X115000000Y-157000000D01*
X116000000Y-158000000D02*
X116000000Y-157000000D01*
X117000000Y-158000000D02*
X117000000Y-157000000D01*
X118000000Y-158000000D02*
X118000000Y-157000000D01*
X119000000Y-158000000D02*
X119000000Y-156000000D01*
X120000000Y-158000000D02*
X120000000Y-157000000D01*
X121000000Y-158000000D02*
X121000000Y-157000000D01*
X122000000Y-158000000D02*
X122000000Y-157000000D01*
X123000000Y-158000000D02*
X123000000Y-157000000D01*
X124000000Y-158000000D02*
X124000000Y-155000000D01*
X125000000Y-158000000D02*
X125000000Y-157000000D01*
X126000000Y-158000000D02*
X126000000Y-157000000D01*
X127000000Y-158000000D02*
X127000000Y-157000000D01*
X128000000Y-158000000D02*
X128000000Y-157000000D01*
X129000000Y-158000000D02*
X129000000Y-156000000D01*
X130000000Y-158000000D02*
X130000000Y-157000000D01*
X131000000Y-158000000D02*
X131000000Y-157000000D01*
X132000000Y-158000000D02*
X132000000Y-157000000D01*
X133000000Y-158000000D02*
X133000000Y-157000000D01*
X134000000Y-158000000D02*
X134000000Y-155000000D01*
X135000000Y-158000000D02*
X135000000Y-157000000D01*
X136000000Y-158000000D02*
X136000000Y-157000000D01*
X137000000Y-158000000D02*
X137000000Y-157000000D01*
X138000000Y-158000000D02*
X138000000Y-157000000D01*
X139000000Y-158000000D02*
X139000000Y-156000000D01*
X140000000Y-158000000D02*
X140000000Y-157000000D01*
X141000000Y-158000000D02*
X141000000Y-157000000D01*
X142000000Y-158000000D02*
X142000000Y-157000000D01*
X143000000Y-158000000D02*
X143000000Y-157000000D01*
X144000000Y-158000000D02*
X144000000Y-155000000D01*
X145000000Y-158000000D02*
X145000000Y-157000000D01*
X146000000Y-158000000D02*
X146000000Y-157000000D01*
X147000000Y-158000000D02*
X147000000Y-157000000D01*
X148000000Y-158000000D02*
X148000000Y-157000000D01*
X149000000Y-158000000D02*
X149000000Y-156000000D01*
X150000000Y-158000000D02*
X150000000Y-157000000D01*
X151000000Y-158000000D02*
X151000000Y-157000000D01*
X152000000Y-158000000D02*
X152000000Y-157000000D01*
X153000000Y-158000000D02*
X153000000Y-157000000D01*
X154000000Y-158000000D02*
X154000000Y-155000000D01*
X155000000Y-158000000D02*
X155000000Y-157000000D01*
X156000000Y-158000000D02*
X156000000Y-157000000D01*
X157000000Y-158000000D02*
X157000000Y-157000000D01*
X158000000Y-158000000D02*
X158000000Y-157000000D01*
X159000000Y-158000000D02*
X159000000Y-156000000D01*
X160000000Y-158000000D02*
X160000000Y-157000000D01*
X161000000Y-158000000D02*
X161000000Y-157000000D01*
X162000000Y-158000000D02*
X162000000Y-157000000D01*
X163000000Y-158000000D02*
X163000000Y-157000000D01*
X164000000Y-158000000D02*
X164000000Y-155000000D01*
X165000000Y-158000000D02*
X165000000Y-157000000D01*
X166000000Y-158000000D02*
X166000000Y-157000000D01*
X167000000Y-158000000D02*
X167000000Y-157000000D01*
X168000000Y-158000000D02*
X168000000Y-157000000D01*
X169000000Y-158000000D02*
X169000000Y-156000000D01*
X170000000Y-158000000D02*
X170000000Y-157000000D01*
X171000000Y-158000000D02*
X171000000Y-157000000D01*
X172000000Y-158000000D02*
X172000000Y-157000000D01*
X173000000Y-158000000D02*
X173000000Y-157000000D01*
X174000000Y-158000000D02*
X174000000Y-155000000D01*
X175000000Y-158000000D02*
X175000000Y-157000000D01*
X176000000Y-158000000D02*
X176000000Y-157000000D01*
X177000000Y-158000000D02*
X177000000Y-157000000D01*
X178000000Y-158000000D02*
X178000000Y-157000000D01*
X179000000Y-158000000D02*
X179000000Y-156000000D01*
X180000000Y-158000000D02*
X180000000Y-157000000D01*
X181000000Y-158000000D02*
X181000000Y-157000000D01*
X182000000Y-158000000D02*
X182000000Y-157000000D01*
X183000000Y-158000000D02*
X183000000Y-157000000D01*
X184000000Y-158000000D02*
X184000000Y-155000000D01*
X185000000Y-158000000D02*
X185000000Y-157000000D01*
X186000000Y-158000000D02*
X186000000Y-157000000D01*
X187000000Y-158000000D02*
X187000000Y-157000000D01*
X188000000Y-158000000D02*
X188000000Y-157000000D01*
X189000000Y-158000000D02*
X189000000Y-156000000D01*
X190000000Y-158000000D02*
X190000000Y-157000000D01*
X191000000Y-158000000D02*
X191000000Y-157000000D01*
X192000000Y-158000000D02*
X192000000Y-157000000D01*
X193000000Y-158000000D02*
X193000000Y-157000000D01*
X194000000Y-158000000D02*
X194000000Y-155000000D01*
X195000000Y-158000000D02*
X195000000Y-157000000D01*
X196000000Y-158000000D02*
X196000000Y-157000000D01*
X197000000Y-158000000D02*
X197000000Y-157000000D01*
X198000000Y-158000000D02*
X198000000Y-157000000D01*
X199000000Y-158000000D02*
X199000000Y-156000000D01*
X200000000Y-158000000D02*
X200000000Y-157000000D01*
X201000000Y-158000000D02*
X201000000Y-157000000D01*
X202000000Y-158000000D02*
X202000000Y-157000000D01*
X203000000Y-158000000D02*
X203000000Y-157000000D01*
X204000000Y-158000000D02*
X204000000Y-155000000D01*
X205000000Y-158000000D02*
X205000000Y-157000000D01*
X206000000Y-158000000D02*
X206000000Y-157000000D01*
X207000000Y-158000000D02*
X207000000Y-157000000D01*
X208000000Y-158000000D02*
X208000000Y-157000000D01*
X209000000Y-158000000D02*
X209000000Y-156000000D01*
X210000000Y-158000000D02*
X210000000Y-157000000D01*
X211000000Y-158000000D02*
X211000000Y-157000000D01*
X212000000Y-158000000D02*
X212000000Y-157000000D01*
X213000000Y-158000000D02*
X213000000Y-157000000D01*
X214000000Y-158000000D02*
X214000000Y-155000000D01*
X215000000Y-158000000D02*
X215000000Y-157000000D01*
X216000000Y-158000000D02*
X216000000Y-157000000D01*
X217000000Y-158000000D02*
X217000000Y-157000000D01*
X218000000Y-158000000D02*
X218000000Y-157000000D01*
X219000000Y-158000000D02*
X219000000Y-156000000D01*
X220000000Y-158000000D02*
X220000000Y-157000000D01*
X221000000Y-158000000D02*
X221000000Y-157000000D01*
X222000000Y-158000000D02*
X222000000Y-157000000D01*
X223000000Y-158000000D02*
X223000000Y-157000000D01*
X224000000Y-158000000D02*
X224000000Y-155000000D01*
X225000000Y-158000000D02*
X225000000Y-157000000D01*
X226000000Y-158000000D02*
X226000000Y-157000000D01*
X227000000Y-158000000D02*
X227000000Y-157000000D01*
X228000000Y-158000000D02*
X228000000Y-157000000D01*
X229000000Y-158000000D02*
X229000000Y-156000000D01*
X230000000Y-158000000D02*
X230000000Y-157000000D01*
X231000000Y-158000000D02*
X231000000Y-157000000D01*
X232000000Y-158000000D02*
X232000000Y-157000000D01*
X233000000Y-158000000D02*
X233000000Y-157000000D01*
X234000000Y-158000000D02*
X234000000Y-155000000D01*
X235000000Y-158000000D02*
X235000000Y-157000000D01*
X236000000Y-158000000D02*
X236000000Y-157000000D01*
X237000000Y-158000000D02*
X237000000Y-157000000D01*
X238000000Y-158000000D02*
X238000000Y-157000000D01*
X239000000Y-158000000D02*
X239000000Y-156000000D01*
X240000000Y-158000000D02*
X240000000Y-157000000D01*
X241000000Y-158000000D02*
X241000000Y-157000000D01*
X242000000Y-158000000D02*
X242000000Y-157000000D01*
X243000000Y-158000000D02*
X243000000Y-157000000D01*
X244000000Y-158000000D02*
X244000000Y-155000000D01*
X245000000Y-158000000D02*
X245000000Y-157000000D01*
X246000000Y-158000000D02*
X246000000Y-157000000D01*
X247000000Y-158000000D02*
X247000000Y-157000000D01*
X248000000Y-158000000D02*
X248000000Y-157000000D01*
X249000000Y-158000000D02*
X249000000Y-156000000D01*
X250000000Y-158000000D02*
X250000000Y-157000000D01*
X251000000Y-158000000D02*
X251000000Y-157000000D01*
X252000000Y-158000000D02*
X252000000Y-157000000D01*
X253000000Y-158000000D02*
X253000000Y-157000000D01*
X254000000Y-158000000D02*
X254000000Y-155000000D01*
X255000000Y-158000000D02*
X255000000Y-157000000D01*
X256000000Y-158000000D02*
X256000000Y-157000000D01*
X257000000Y-158000000D02*
X257000000Y-157000000D01*
X258000000Y-158000000D02*
X258000000Y-157000000D01*
X259000000Y-158000000D02*
X259000000Y-156000000D01*
X260000000Y-158000000D02*
X260000000Y-157000000D01*
X261000000Y-158000000D02*
X261000000Y-157000000D01*
X262000000Y-158000000D02*
X262000000Y-157000000D01*
X263000000Y-158000000D02*
X263000000Y-157000000D01*
X264000000Y-158000000D02*
X264000000Y-155000000D01*
X265000000Y-158000000D02*
X265000000Y-157000000D01*
X266000000Y-158000000D02*
X266000000Y-157000000D01*
X267000000Y-158000000D02*
X267000000Y-157000000D01*
X268000000Y-158000000D02*
X268000000Y-157000000D01*
X269000000Y-158000000D02*
X269000000Y-156000000D01*
X270000000Y-158000000D02*
X270000000Y-157000000D01*
X271000000Y-158000000D02*
X271000000Y-157000000D01*
X272000000Y-158000000D02*
X272000000Y-157000000D01*
X273000000Y-158000000D02*
X273000000Y-157000000D01*
X25000000Y-61000000D02*
X25000000Y-61000000D01*
X26000000Y-64000000D02*
X26000000Y-63000000D01*
X27000000Y-64000000D02*
X27000000Y-63000000D01*
X28000000Y-64000000D02*
X28000000Y-63000000D01*
X29000000Y-64000000D02*
X29000000Y-63000000D01*
X30000000Y-64000000D02*
X30000000Y-62000000D01*
X31000000Y-64000000D02*
X31000000Y-63000000D01*
X32000000Y-64000000D02*
X32000000Y-63000000D01*
X33000000Y-64000000D02*
X33000000Y-63000000D01*
X34000000Y-64000000D02*
X34000000Y-63000000D01*
X35000000Y-64000000D02*
X35000000Y-61000000D01*
X36000000Y-64000000D02*
X36000000Y-63000000D01*
X37000000Y-64000000D02*
X37000000Y-63000000D01*
X38000000Y-64000000D02*
X38000000Y-63000000D01*
X39000000Y-64000000D02*
X39000000Y-63000000D01*
X40000000Y-64000000D02*
X40000000Y-62000000D01*
X41000000Y-64000000D02*
X41000000Y-63000000D01*
X42000000Y-64000000D02*
X42000000Y-63000000D01*
X43000000Y-64000000D02*
X43000000Y-63000000D01*
X44000000Y-64000000D02*
X44000000Y-63000000D01*
X45000000Y-64000000D02*
X45000000Y-61000000D01*
X46000000Y-64000000D02*
X46000000Y-63000000D01*
X47000000Y-64000000D02*
X47000000Y-63000000D01*
X48000000Y-64000000D02*
X48000000Y-63000000D01*
X49000000Y-64000000D02*
X49000000Y-63000000D01*
X50000000Y-64000000D02*
X50000000Y-62000000D01*
X51000000Y-64000000D02*
X51000000Y-63000000D01*
X52000000Y-64000000D02*
X52000000Y-63000000D01*
X53000000Y-64000000D02*
X53000000Y-63000000D01*
X54000000Y-64000000D02*
X54000000Y-63000000D01*
X55000000Y-64000000D02*
X55000000Y-61000000D01*
X56000000Y-64000000D02*
X56000000Y-63000000D01*
X57000000Y-64000000D02*
X57000000Y-63000000D01*
X58000000Y-64000000D02*
X58000000Y-63000000D01*
X59000000Y-64000000D02*
X59000000Y-63000000D01*
X60000000Y-64000000D02*
X60000000Y-62000000D01*
X61000000Y-64000000D02*
X61000000Y-63000000D01*
X62000000Y-64000000D02*
X62000000Y-63000000D01*
X63000000Y-64000000D02*
X63000000Y-63000000D01*
X64000000Y-64000000D02*
X64000000Y-63000000D01*
X65000000Y-64000000D02*
X65000000Y-61000000D01*
X66000000Y-64000000D02*
X66000000Y-63000000D01*
X67000000Y-64000000D02*
X67000000Y-63000000D01*
X68000000Y-64000000D02*
X68000000Y-63000000D01*
X69000000Y-64000000D02*
X69000000Y-63000000D01*
X70000000Y-64000000D02*
X70000000Y-62000000D01*
X71000000Y-64000000D02*
X71000000Y-63000000D01*
X72000000Y-64000000D02*
X72000000Y-63000000D01*
X73000000Y-64000000D02*
X73000000Y-63000000D01*
X74000000Y-64000000D02*
X74000000Y-63000000D01*
X75000000Y-64000000D02*
X75000000Y-61000000D01*
X76000000Y-64000000D02*
X76000000Y-63000000D01*
X77000000Y-64000000D02*
X77000000Y-63000000D01*
X78000000Y-64000000D02*
X78000000Y-63000000D01*
X79000000Y-64000000D02*
X79000000Y-63000000D01*
X80000000Y-64000000D02*
X80000000Y-62000000D01*
X81000000Y-64000000D02*
X81000000Y-63000000D01*
X82000000Y-64000000D02*
X82000000Y-63000000D01*
X83000000Y-64000000D02*
X83000000Y-63000000D01*
X84000000Y-64000000D02*
X84000000Y-63000000D01*
X85000000Y-64000000D02*
X85000000Y-61000000D01*
X86000000Y-64000000D02*
X86000000Y-63000000D01*
X87000000Y-64000000D02*
X87000000Y-63000000D01*
X88000000Y-64000000D02*
X88000000Y-63000000D01*
X89000000Y-64000000D02*
X89000000Y-63000000D01*
X90000000Y-64000000D02*
X90000000Y-62000000D01*
X91000000Y-64000000D02*
X91000000Y-63000000D01*
X92000000Y-64000000D02*
X92000000Y-63000000D01*
X93000000Y-64000000D02*
X93000000Y-63000000D01*
X94000000Y-64000000D02*
X94000000Y-63000000D01*
X95000000Y-64000000D02*
X95000000Y-61000000D01*
X96000000Y-64000000D02*
X96000000Y-63000000D01*
X97000000Y-64000000D02*
X97000000Y-63000000D01*
X98000000Y-64000000D02*
X98000000Y-63000000D01*
X99000000Y-64000000D02*
X99000000Y-63000000D01*
X100000000Y-64000000D02*
X100000000Y-62000000D01*
X101000000Y-64000000D02*
X101000000Y-63000000D01*
X102000000Y-64000000D02*
X102000000Y-63000000D01*
X103000000Y-64000000D02*
X103000000Y-63000000D01*
X104000000Y-64000000D02*
X104000000Y-63000000D01*
X105000000Y-64000000D02*
X105000000Y-61000000D01*
X106000000Y-64000000D02*
X106000000Y-63000000D01*
X107000000Y-64000000D02*
X107000000Y-63000000D01*
X108000000Y-64000000D02*
X108000000Y-63000000D01*
X109000000Y-64000000D02*
X109000000Y-63000000D01*
X110000000Y-64000000D02*
X110000000Y-62000000D01*
X111000000Y-64000000D02*
X111000000Y-63000000D01*
X112000000Y-64000000D02*
X112000000Y-63000000D01*
X113000000Y-64000000D02*
X113000000Y-63000000D01*
X114000000Y-64000000D02*
X114000000Y-63000000D01*
X115000000Y-64000000D02*
X115000000Y-61000000D01*
X116000000Y-64000000D02*
X116000000Y-63000000D01*
X117000000Y-64000000D02*
X117000000Y-63000000D01*
X118000000Y-64000000D02*
X118000000Y-63000000D01*
X119000000Y-64000000D02*
X119000000Y-63000000D01*
X120000000Y-64000000D02*
X120000000Y-62000000D01*
X121000000Y-64000000D02*
X121000000Y-63000000D01*
X122000000Y-64000000D02*
X122000000Y-63000000D01*
X123000000Y-64000000D02*
X123000000Y-63000000D01*
X124000000Y-64000000D02*
X124000000Y-63000000D01*
X125000000Y-64000000D02*
X125000000Y-61000000D01*
X126000000Y-64000000D02*
X126000000Y-63000000D01*
X127000000Y-64000000D02*
X127000000Y-63000000D01*
X128000000Y-64000000D02*
X128000000Y-63000000D01*
X129000000Y-64000000D02*
X129000000Y-63000000D01*
X130000000Y-64000000D02*
X130000000Y-62000000D01*
X131000000Y-64000000D02*
X131000000Y-63000000D01*
X132000000Y-64000000D02*
X132000000Y-63000000D01*
X133000000Y-64000000D02*
X133000000Y-63000000D01*
X134000000Y-64000000D02*
X134000000Y-63000000D01*
X135000000Y-64000000D02*
X135000000Y-61000000D01*
X136000000Y-64000000D02*
X136000000Y-63000000D01*
X137000000Y-64000000D02*
X137000000Y-63000000D01*
X138000000Y-64000000D02*
X138000000Y-63000000D01*
X139000000Y-64000000D02*
X139000000Y-63000000D01*
X140000000Y-64000000D02*
X140000000Y-62000000D01*
X141000000Y-64000000D02*
X141000000Y-63000000D01*
X142000000Y-64000000D02*
X142000000Y-63000000D01*
X143000000Y-64000000D02*
X143000000Y-63000000D01*
X144000000Y-64000000D02*
X144000000Y-63000000D01*
X145000000Y-64000000D02*
X145000000Y-61000000D01*
X146000000Y-64000000D02*
X146000000Y-63000000D01*
X147000000Y-64000000D02*
X147000000Y-63000000D01*
X148000000Y-64000000D02*
X148000000Y-63000000D01*
X149000000Y-64000000D02*
X149000000Y-63000000D01*
X150000000Y-64000000D02*
X150000000Y-62000000D01*
X151000000Y-64000000D02*
X151000000Y-63000000D01*
X152000000Y-64000000D02*
X152000000Y-63000000D01*
X153000000Y-64000000D02*
X153000000Y-63000000D01*
X154000000Y-64000000D02*
X154000000Y-63000000D01*
X155000000Y-64000000D02*
X155000000Y-61000000D01*
X156000000Y-64000000D02*
X156000000Y-63000000D01*
X157000000Y-64000000D02*
X157000000Y-63000000D01*
X158000000Y-64000000D02*
X158000000Y-63000000D01*
X159000000Y-64000000D02*
X159000000Y-63000000D01*
X160000000Y-64000000D02*
X160000000Y-62000000D01*
X161000000Y-64000000D02*
X161000000Y-63000000D01*
X162000000Y-64000000D02*
X162000000Y-63000000D01*
X163000000Y-64000000D02*
X163000000Y-63000000D01*
X164000000Y-64000000D02*
X164000000Y-63000000D01*
X165000000Y-64000000D02*
X165000000Y-61000000D01*
X166000000Y-64000000D02*
X166000000Y-63000000D01*
X167000000Y-64000000D02*
X167000000Y-63000000D01*
X168000000Y-64000000D02*
X168000000Y-63000000D01*
X169000000Y-64000000D02*
X169000000Y-63000000D01*
X170000000Y-64000000D02*
X170000000Y-62000000D01*
X171000000Y-64000000D02*
X171000000Y-63000000D01*
X172000000Y-64000000D02*
X172000000Y-63000000D01*
X173000000Y-64000000D02*
X173000000Y-63000000D01*
X174000000Y-64000000D02*
X174000000Y-63000000D01*
X175000000Y-64000000D02*
X175000000Y-61000000D01*
X176000000Y-64000000D02*
X176000000Y-63000000D01*
X177000000Y-64000000D02*
X177000000Y-63000000D01*
X178000000Y-64000000D02*
X178000000Y-63000000D01*
X179000000Y-64000000D02*
X179000000Y-63000000D01*
X180000000Y-64000000D02*
X180000000Y-62000000D01*
X181000000Y-64000000D02*
X181000000Y-63000000D01*
X182000000Y-64000000D02*
X182000000Y-63000000D01*
X183000000Y-64000000D02*
X183000000Y-63000000D01*
X184000000Y-64000000D02*
X184000000Y-63000000D01*
X185000000Y-64000000D02*
X185000000Y-61000000D01*
X186000000Y-64000000D02*
X186000000Y-63000000D01*
X187000000Y-64000000D02*
X187000000Y-63000000D01*
X188000000Y-64000000D02*
X188000000Y-63000000D01*
X189000000Y-64000000D02*
X189000000Y-63000000D01*
X190000000Y-64000000D02*
X190000000Y-62000000D01*
X191000000Y-64000000D02*
X191000000Y-63000000D01*
X192000000Y-64000000D02*
X192000000Y-63000000D01*
X193000000Y-64000000D02*
X193000000Y-63000000D01*
X194000000Y-64000000D02*
X194000000Y-63000000D01*
X195000000Y-64000000D02*
X195000000Y-61000000D01*
X196000000Y-64000000D02*
X196000000Y-63000000D01*
X197000000Y-64000000D02*
X197000000Y-63000000D01*
X198000000Y-64000000D02*
X198000000Y-63000000D01*
X199000000Y-64000000D02*
X199000000Y-63000000D01*
X200000000Y-64000000D02*
X200000000Y-62000000D01*
X201000000Y-64000000D02*
X201000000Y-63000000D01*
X202000000Y-64000000D02*
X202000000Y-63000000D01*
X203000000Y-64000000D02*
X203000000Y-63000000D01*
X204000000Y-64000000D02*
X204000000Y-63000000D01*
X205000000Y-64000000D02*
X205000000Y-61000000D01*
X206000000Y-64000000D02*
X206000000Y-63000000D01*
X207000000Y-64000000D02*
X207000000Y-63000000D01*
X208000000Y-64000000D02*
X208000000Y-63000000D01*
X209000000Y-64000000D02*
X209000000Y-63000000D01*
X210000000Y-64000000D02*
X210000000Y-62000000D01*
X211000000Y-64000000D02*
X211000000Y-63000000D01*
X212000000Y-64000000D02*
X212000000Y-63000000D01*
X213000000Y-64000000D02*
X213000000Y-63000000D01*
X214000000Y-64000000D02*
X214000000Y-63000000D01*
X215000000Y-64000000D02*
X215000000Y-61000000D01*
X216000000Y-64000000D02*
X216000000Y-63000000D01*
X217000000Y-64000000D02*
X217000000Y-63000000D01*
X218000000Y-64000000D02*
X218000000Y-63000000D01*
X219000000Y-64000000D02*
X219000000Y-63000000D01*
X220000000Y-64000000D02*
X220000000Y-62000000D01*
X221000000Y-64000000D02*
X221000000Y-63000000D01*
X222000000Y-64000000D02*
X222000000Y-63000000D01*
X223000000Y-64000000D02*
X223000000Y-63000000D01*
X224000000Y-64000000D02*
X224000000Y-63000000D01*
X225000000Y-64000000D02*
X225000000Y-61000000D01*
X226000000Y-64000000D02*
X226000000Y-63000000D01*
X227000000Y-64000000D02*
X227000000Y-63000000D01*
X228000000Y-64000000D02*
X228000000Y-63000000D01*
X229000000Y-64000000D02*
X229000000Y-63000000D01*
X230000000Y-64000000D02*
X230000000Y-62000000D01*
X231000000Y-64000000D02*
X231000000Y-63000000D01*
X232000000Y-64000000D02*
X232000000Y-63000000D01*
X233000000Y-64000000D02*
X233000000Y-63000000D01*
X234000000Y-64000000D02*
X234000000Y-63000000D01*
X235000000Y-64000000D02*
X235000000Y-61000000D01*
X236000000Y-64000000D02*
X236000000Y-63000000D01*
X237000000Y-64000000D02*
X237000000Y-63000000D01*
X238000000Y-64000000D02*
X238000000Y-63000000D01*
X239000000Y-64000000D02*
X239000000Y-63000000D01*
X240000000Y-64000000D02*
X240000000Y-62000000D01*
X241000000Y-64000000D02*
X241000000Y-63000000D01*
X242000000Y-64000000D02*
X242000000Y-63000000D01*
X243000000Y-64000000D02*
X243000000Y-63000000D01*
X244000000Y-64000000D02*
X244000000Y-63000000D01*
X245000000Y-64000000D02*
X245000000Y-61000000D01*
X246000000Y-64000000D02*
X246000000Y-63000000D01*
X247000000Y-64000000D02*
X247000000Y-63000000D01*
X248000000Y-64000000D02*
X248000000Y-63000000D01*
X249000000Y-64000000D02*
X249000000Y-63000000D01*
X250000000Y-64000000D02*
X250000000Y-62000000D01*
X251000000Y-64000000D02*
X251000000Y-63000000D01*
X252000000Y-64000000D02*
X252000000Y-63000000D01*
X253000000Y-64000000D02*
X253000000Y-63000000D01*
X254000000Y-64000000D02*
X254000000Y-63000000D01*
X255000000Y-64000000D02*
X255000000Y-61000000D01*
X256000000Y-64000000D02*
X256000000Y-63000000D01*
X257000000Y-64000000D02*
X257000000Y-63000000D01*
X258000000Y-64000000D02*
X258000000Y-63000000D01*
X259000000Y-64000000D02*
X259000000Y-63000000D01*
X260000000Y-64000000D02*
X260000000Y-62000000D01*
X261000000Y-64000000D02*
X261000000Y-63000000D01*
X262000000Y-64000000D02*
X262000000Y-63000000D01*
X263000000Y-64000000D02*
X263000000Y-63000000D01*
X264000000Y-64000000D02*
X264000000Y-63000000D01*
X265000000Y-64000000D02*
X265000000Y-61000000D01*
X266000000Y-64000000D02*
X266000000Y-63000000D01*
X267000000Y-64000000D02*
X267000000Y-63000000D01*
X268000000Y-64000000D02*
X268000000Y-63000000D01*
X269000000Y-64000000D02*
X269000000Y-63000000D01*
X270000000Y-64000000D02*
X270000000Y-62000000D01*
X271000000Y-64000000D02*
X271000000Y-63000000D01*
X272000000Y-64000000D02*
X272000000Y-63000000D01*
X273000000Y-64000000D02*
X273000000Y-63000000D01*
X274000000Y-64000000D02*
X274000000Y-63000000D01*
D11*
X93000000Y-145000000D03*
X45000000Y-44000000D03*
X45000000Y-138000000D03*
X45000000Y-88000000D03*
M02*
